<svg xmlns="http://www.w3.org/2000/svg" xmlns:xlink="http://www.w3.org/1999/xlink" width="120.904" height="109.619" viewBox="0 0 120.904 109.619"><defs><linearGradient id="a" x1="-4.998" y1="0.5" x2="46.092" y2="0.5" gradientUnits="objectBoundingBox"><stop offset="0"/><stop offset="0.533" stop-color="#ff00a2"/><stop offset="1" stop-color="#ff7530"/></linearGradient></defs><g transform="translate(-4779.767 -2480.981)" style="isolation:isolate"><path d="M4817.492,2495.282a12.391,12.391,0,1,0-12.387,12.4A12.406,12.406,0,0,0,4817.492,2495.282Zm-20.831,0a8.44,8.44,0,1,1,8.444,8.446A8.455,8.455,0,0,1,4796.661,2495.282Z" fill="url(#a)"/><path d="M4839.111,2527.927c-3.115-5.47-5.734-10.068-7.385-12.953,6.571-1.236,12.231,1.4,16.849,7.852a8.44,8.44,0,0,0,7.859,3.61,9.049,9.049,0,0,0,7.367-4.988,7.2,7.2,0,0,0-.925-7.392c-11.973-16.771-30.286-20.727-47.824-10.307-2.138,1.256-20.719,12.756-14.777,29.373,1.51,4.221,6.765,8.717,16.934,9.015.422.8.974,1.858,1.449,2.768a82.718,82.718,0,0,0-14.858,10.383,7.678,7.678,0,0,0-2.417,6.6,9.851,9.851,0,0,0,4.744,7.556q7.071,4.222,14.116,8.466l5.773,3.467a7.771,7.771,0,0,0,7.948.284,9.241,9.241,0,0,0,4.6-7.714,7.917,7.917,0,0,0-4.031-7.03q-5.007-3.012-10.017-6.021c2.925-1.59,6.739-3.381,9.295-4.581.548-.257,1-.47,1.375-.647q5.014,8.526,10.033,17.047l8.13,13.812a7.876,7.876,0,0,0,6.881,4.072h.07a9.119,9.119,0,0,0,7.74-4.546,7.838,7.838,0,0,0-.2-8.014C4862.243,2568.537,4848.323,2544.1,4839.111,2527.927Zm25.487,56.182a5.251,5.251,0,0,1-4.336,2.541,3.858,3.858,0,0,1-3.514-2.125l-8.13-13.813q-5.486-9.316-10.969-18.639l-1.143-1.944-1.694,1.326c-.338.184-1.53.744-2.685,1.286-3.6,1.688-9.613,4.514-12.577,6.508l-2.579,1.737,2.668,1.6q6.437,3.852,12.856,7.722a3.943,3.943,0,0,1,2.114,3.577,5.242,5.242,0,0,1-2.56,4.325,3.8,3.8,0,0,1-4-.214l-5.773-3.468q-7.057-4.242-14.126-8.472a5.888,5.888,0,0,1-2.835-4.518,3.8,3.8,0,0,1,1.08-3.271,78.249,78.249,0,0,1,15.818-10.77l1.765-.9-.906-1.762c-.241-.468-.793-1.526-1.363-2.613.32,0,.632,0,.922-.01,4.578-.073,6.933-3.728,6.893-7.294a7.365,7.365,0,0,0-2.216-5.373,6.072,6.072,0,0,0-4.679-1.557c-2.461.179-7.67-1.008-9.472-1.479a1.975,1.975,0,0,0-1,3.822c.727.19,7.21,1.855,10.753,1.6a2.162,2.162,0,0,1,1.716.519,3.525,3.525,0,0,1,.947,2.509c0,.333-.048,3.26-3.017,3.307-.411.009-.857.009-1.306.009-.924,0-1.778-.025-2.682-.058-.067-.006-.133-.007-.2-.007-8.918,0-13.318-3.453-14.376-6.412-4.872-13.625,11.209-23.551,13.1-24.664,15.817-9.4,31.73-5.951,42.563,9.224a3.325,3.325,0,0,1,.544,3.46,5.191,5.191,0,0,1-4.151,2.692,4.538,4.538,0,0,1-4.266-1.973c-6.195-8.657-14.379-11.669-23.667-8.709l-2.336.745,1.225,2.123c1.279,2.22,4.536,7.937,8.668,15.192,9.217,16.181,23.145,40.634,28.751,50.162A3.863,3.863,0,0,1,4864.6,2584.109Z" fill="url(#a)"/><rect width="9.438" height="107.215" transform="translate(4779.767 2480.981)" fill="url(#a)"/><path d="M4898.7,2515.488h-24.4a1.975,1.975,0,1,0,0,3.95h24.4a1.975,1.975,0,1,0,0-3.95Z" fill="url(#a)"/><path d="M4860.127,2537a1.975,1.975,0,0,0,1.975,1.975h24.4a1.975,1.975,0,0,0,0-3.95h-24.4A1.975,1.975,0,0,0,4860.127,2537Z" fill="url(#a)"/><path d="M4889.064,2552.85h-24.393a1.975,1.975,0,1,0,0,3.95h24.393a1.975,1.975,0,1,0,0-3.95Z" fill="url(#a)"/></g></svg>