<svg xmlns="http://www.w3.org/2000/svg" width="60" height="51.477" viewBox="0 0 60 51.477"><g transform="translate(-6312.145 -9359.9)"><path d="M6372.143,9404.688a2.97,2.97,0,0,0-3.19-3.2q-3.485-.006-6.972,0h-.7v-.743q0-5.461,0-10.923a10.857,10.857,0,0,0-11.065-11.049q-4.5-.007-9.008,0h-.7a3.684,3.684,0,0,0-.014-3.091,8.319,8.319,0,0,1-.8-3.653,11.334,11.334,0,0,0-.2-1.216,13.8,13.8,0,0,0-27.2,1.228,61.466,61.466,0,0,0-.126,6.287,13.575,13.575,0,0,0,8.218,12.952.649.649,0,0,1,.419.705c-.016,1.337-.1,2.683.018,4.009a4.93,4.93,0,0,1-1.333,3.961c-1.7,1.895-2.887,4.2-5.049,5.742-1.391.992-1.624,2.685-1.549,4.361.044.973.333,1.306,1.291,1.308,2.1,0,4.2-.013,6.293.01a1.537,1.537,0,0,0,1.315-.639q3.949-4.86,7.924-9.7c.48-.589,1.1-1.105.971-2.048l1.676.969c-1.725,1.819-2.749,4.095-4.857,5.528-1.525,1.037-1.858,2.774-1.776,4.572.044.972.333,1.3,1.291,1.307,2.1,0,4.2-.012,6.294.009a1.515,1.515,0,0,0,1.312-.642c2.261-2.853,4.571-5.666,6.793-8.549a1.753,1.753,0,0,1,1.981-.628c-.112,1.116-.2,2.2-.334,3.281a5.806,5.806,0,0,0,6.774,6.425c.766-.137,1.515-.378,2.28-.518a1.746,1.746,0,0,1,.927.077,5.688,5.688,0,0,0,3.552.432c1.513-.372,3.009-.821,4.5-1.276a.705.705,0,0,1,.925.273,2.876,2.876,0,0,0,4.386.2c.12-.125.238-.251.359-.38a2.952,2.952,0,0,0,5.376-1.98C6372.144,9406.95,6372.146,9405.82,6372.143,9404.688Zm-57.814-24.152a25.278,25.278,0,0,1,.325-10.233,11.662,11.662,0,0,1,12.324-8.39,11.783,11.783,0,0,1,10.809,10.829.512.512,0,0,1-.033.135c-.622-.067-1.21-.134-1.852-.2v2a2.489,2.489,0,0,1,2.4,1.027,3.281,3.281,0,0,1,.481,1.666c-.026,1.386-1.089,2.188-2.879,2.288v1.955l1.6-.081c-.22.619-.4,1.218-.641,1.789a11.851,11.851,0,0,1-11.993,7.127A11.6,11.6,0,0,1,6314.328,9380.536Zm14.18,18.845q-3.975,4.874-7.967,9.73a.69.69,0,0,1-.442.262c-1.723.019-3.445.011-5.162.011a3,3,0,0,1,1.745-2.953,2.562,2.562,0,0,0,.843-.678c1.631-2.116,3.25-4.24,4.836-6.39a2.171,2.171,0,0,0,.392-1.178c.039-2.011.018-4.023.018-6.039a1.7,1.7,0,0,1,.229,0,5.641,5.641,0,0,1,2.139.431c.533.363.7,1.226,1.12,1.8.659.913,1.378,1.785,2.1,2.65A2.669,2.669,0,0,1,6328.508,9399.381Zm14.024.1v-5.851h-1.988v.66c0,1.79.012,3.579-.013,5.369a1.438,1.438,0,0,1-.273.831c-2.245,2.841-4.516,5.659-6.764,8.494a.981.981,0,0,1-.883.412c-1.62-.021-3.24-.009-4.9-.009a3.169,3.169,0,0,1,1.723-2.9,3.419,3.419,0,0,0,1.014-.852q2.4-3.1,4.731-6.244a2.319,2.319,0,0,0,.409-1.233c.048-1.5.019-3,.019-4.531h-1.982v4.624c-2.284-.721-5.386-3.692-6.088-5.7a36.37,36.37,0,0,0,4.068-1.31,13.5,13.5,0,0,0,7.942-9.962c.063-.287.053-.549.484-.543,1.788.021,3.576.01,5.407.01v18.732Zm4.269,9.307a3.652,3.652,0,0,1-1.784-3.43c.063-1.266.239-2.528.371-3.84h4.016c.185,2.537-.521,5.207,1.334,7.452A4.074,4.074,0,0,1,6346.8,9408.784Zm2.64-13.446c-.033,1.356-.005,2.713-.005,4.12H6347.5v-18.72c1.836.063,3.642-.161,5.418.361a8.937,8.937,0,0,1,6.386,8.383c.006.507,0,1.014,0,1.385a19.062,19.062,0,0,0-3-1.12A5.848,5.848,0,0,0,6349.441,9395.338Zm14.357,13.839,1.3-.391C6364.727,9409.422,6364.421,9409.509,6363.8,9409.177Zm5.714.153c-.644.211-.982-.213-1.288-.687-.356-.552-.733-1.093-1.091-1.644a1.081,1.081,0,0,0-1.374-.483c-2.965.9-5.932,1.8-8.906,2.664a4.129,4.129,0,0,1-5.242-2.746,4.942,4.942,0,0,1-.2-1.394q-.024-4.66-.008-9.315a3.953,3.953,0,1,1,7.9.021c0,1.049,0,2.1,0,3.146,0,1.11,0,2.221,0,3.331,0,.886.347,1.232,1.231,1.233q4.133.006,8.265,0c1.053,0,1.362.308,1.363,1.352,0,1.089-.012,2.179.005,3.27C6370.182,9408.632,6370.11,9409.135,6369.512,9409.33Z" transform="translate(0 0.001)"/><path d="M6323.073,9372.408a.885.885,0,0,0,1.037-.777,2.126,2.126,0,0,0-.087-.715,2.884,2.884,0,0,1,2.369-3.737c.031,0,.058-.04.125-.091-.024-.524-.049-1.075-.078-1.7a4.713,4.713,0,0,0-4.375,4.545,3.3,3.3,0,0,1-.809-3.263c-.1-.06-.161-.1-.228-.134-.422-.194-.845-.386-1.3-.592a1.033,1.033,0,0,0-.088.127A4.824,4.824,0,0,0,6323.073,9372.408Z"/><path d="M6317.569,9375.118a1.791,1.791,0,1,0,1.751,1.814A1.793,1.793,0,0,0,6317.569,9375.118Z" transform="translate(0 1.683)"/><path d="M6328.248,9378.7a1.791,1.791,0,1,0-1.755-1.867A1.805,1.805,0,0,0,6328.248,9378.7Z" transform="translate(1.568 1.683)"/><path d="M6325.541,9380.516h-1.708c-.126.493-.376.851-.906.863-.579.013-.829-.395-.958-.861h-1.71a2.641,2.641,0,1,0,5.282,0Z" transform="translate(0 2.233)"/></g></svg>