<svg xmlns="http://www.w3.org/2000/svg" width="117.951" height="111.947" viewBox="0 0 117.951 111.947"><g transform="translate(-5188.62 -2472.625)"><path d="M5306.415,2571.076c-.568-1.442-2.051-1.65-3.341-1.164a170.44,170.44,0,0,1-21.914,6.312,6.747,6.747,0,0,0-4.62-5.111l-8.547-2.577-.359-37.326a15,15,0,0,0-2.618-8.338l-10.524-15.415a10.51,10.51,0,0,1-1.807-6.35l.232-5.216c4.705-8.309,5.215-20.355,5.235-20.874a2.307,2.307,0,0,0-2.3-2.392h-31.173a2.3,2.3,0,0,0-2.3,2.2c-.222,4.974.647,15.571.77,17.019l-.483,10.84a15.067,15.067,0,0,0,3.175,9.931l5.573,7.133-3.73,12.99a2.3,2.3,0,1,0,4.429,1.272l2.807-9.776,8.794,11.256a10.331,10.331,0,0,1,1.153,1.855l-12.752,30.641-8.822-3.26,3.22-11.216a2.3,2.3,0,0,0-4.429-1.272l-3.786,13.19-2.518,6.812a7.616,7.616,0,0,0-.294,4.3,173.626,173.626,0,0,1-23.107-6.53c-1.365-.509-2.961-.533-3.593,1.069a2.3,2.3,0,0,0,1.3,2.989c31.577,12.443,66.779,13.505,99.4,4.926a139.376,139.376,0,0,0,15.635-4.926A2.332,2.332,0,0,0,5306.415,2571.076Zm-53.052-93.844h0c-.352,3.536-1.34,10.3-3.976,15.5l-21.787-2.964c-.222-2.882-.619-8.549-.653-12.533Zm-16.584,102.47c-5.1-.41-10.008-1.075-14.593-1.869a3.039,3.039,0,0,1-2.089-4l1.748-4.731,10.48,3.872,6.48,4.4a3.769,3.769,0,0,1,1.627,2.566Q5238.6,2579.848,5236.779,2579.7Zm13.684.413q-2.7.062-5.4.007a8.35,8.35,0,0,0-3.671-6.551l-5.159-3.5,10.29-24.726,4.558,33.256a6.3,6.3,0,0,0,.333,1.493C5251.1,2580.1,5250.781,2580.108,5250.463,2580.115Zm-.089-40.351a15.122,15.122,0,0,0-3.034-7.11l-17.873-22.876a10.448,10.448,0,0,1-2.2-6.889l.377-8.468,20.6,2.8-.164,3.679a15.15,15.15,0,0,0,2.6,9.152l10.524,15.415a10.394,10.394,0,0,1,1.817,5.785l.356,37.124-8.615,1.765Zm7.122,40.008a1.806,1.806,0,0,1-1.827-1.626l-.336-3.414,3.077-.63,7.189-1.474,9.61,2.9a2.077,2.077,0,0,1,1.335,1.246,2.132,2.132,0,0,1,.1.392C5271.152,2578.234,5257.9,2579.743,5257.5,2579.772Z"/><path d="M5228.087,2544.864a2.3,2.3,0,1,0-3.008-1.247A2.325,2.325,0,0,0,5228.087,2544.864Z"/></g></svg>