<svg xmlns="http://www.w3.org/2000/svg" width="144.281" height="143.676" viewBox="0 0 144.281 143.676"><path d="M676.368,2289.867a30.388,30.388,0,0,0-12.8,2.473l-5.6-10.863,1.983.816a9.168,9.168,0,0,0,3.5.693,9.356,9.356,0,0,0,8.572-5.588,9.149,9.149,0,0,0,.534-1.645h3.014a2.2,2.2,0,0,0,2.23-2.076,2.142,2.142,0,0,0-2.141-2.207h-3.182a9.544,9.544,0,0,0-5.595-6.443l-15.885-6.54.325-14.253c0-.021,0-.041,0-.062a18.239,18.239,0,0,0,26.59-14.922,7.074,7.074,0,0,0,3.307-8.623,19.1,19.1,0,0,0-6.442-8.944c-3.85-2.922-8.921-4.4-15.071-4.4a22.379,22.379,0,0,0-12.092,3.75,2.142,2.142,0,1,0,2.308,3.608,18.193,18.193,0,0,1,9.784-3.076c9.046,0,14.915,3.5,17.446,10.412a2.894,2.894,0,0,1-.327,2.68,2.775,2.775,0,0,1-2.28,1.168H641.125a1.043,1.043,0,0,1-.95-.583,1.021,1.021,0,0,1,.081-1.088,45.6,45.6,0,0,1,3.1-3.842,2.142,2.142,0,0,0-.065-2.953h0a2.139,2.139,0,0,0-3.1.067,49.635,49.635,0,0,0-3.407,4.218,5.306,5.306,0,0,0-.426,5.546,5.432,5.432,0,0,0,.532.836,25.683,25.683,0,0,0-8.4,5.606l-13.5,13.5c-.192.192-.381.39-.562.59l-.025.028a15.7,15.7,0,0,0,.587,21.6l.923.923H602.98a2.2,2.2,0,0,0-2.23,2.075,2.142,2.142,0,0,0,2.141,2.207h5.286l5.306,9.313-6.317,9.786a30.545,30.545,0,1,0,15.748,28.9h13.851a2.138,2.138,0,0,0,1.861-1.083l18.427-32.421,2.714,5.265a30.537,30.537,0,1,0,16.6-4.44ZM657.823,2230.1h6.852v1.824a2.142,2.142,0,0,0,4.283,0V2230.1h4.566a13.947,13.947,0,0,1-15.7,11.7Zm-4.282,0V2240.5A14.016,14.016,0,0,1,645.9,2230.1Zm-22.015,6.553a21.27,21.27,0,0,1,10.182-5.7,18.067,18.067,0,0,0,1.056,3.77c-.166-.013-.332-.022-.5-.026a9.319,9.319,0,0,0-9.534,9.07l-.436,18.637-13.261-13.261Zm-15.268,15.776,17.963,17.963a9.332,9.332,0,0,0,1.532,1.532l2.735,2.735-7.743,4.37-12.717-12.717A11.427,11.427,0,0,1,616.258,2252.433Zm-3.152,22.116h6.11a2.131,2.131,0,0,0,.824-.165l7.964,7.964H617.549Zm13.914,12.081-2.055,8.735-4.977-8.735Zm-36.457,34.8a2.141,2.141,0,0,0,1.88,1.116h19.221a19.358,19.358,0,1,1-10.6-19.447l-10.421,16.145A2.143,2.143,0,0,0,590.563,2321.43Zm5.811-3.166,8.288-12.84a19.33,19.33,0,0,1,7,12.84Zm-3.932,28.408a26.266,26.266,0,1,1,12.395-49.417l-1.438,2.229a23.622,23.622,0,1,0,12.567,23.062h2.654A26.3,26.3,0,0,1,592.442,2346.672Zm23.524-28.408h0a23.609,23.609,0,0,0-8.973-16.451l1.439-2.23a26.253,26.253,0,0,1,10.188,18.681Zm6.948,0a30.538,30.538,0,0,0-12.154-22.289l5.112-7.919,7.651,13.431-.869,3.691a8.566,8.566,0,0,0,6.619,10.353,8.249,8.249,0,0,0,1.661.169c.224,0,.447-.012.669-.03l1.477,2.594Zm7.22-6.929a4.28,4.28,0,0,1-3.31-5.177l5-21.23,0-.01.428-1.817,9.122-5.149a4.264,4.264,0,0,1,.249,2.715l-.791,3.361-.009.037-5.624,23.9A4.393,4.393,0,0,1,630.134,2311.335Zm6.629,4.74-1.056-1.853a8.788,8.788,0,0,0,3.659-5.275l5.251-22.317H653.5Zm8.862-33.727h0l.164-.7a8.511,8.511,0,0,0-.478-5.385l6.545,2.694,1.747,3.39Zm8.624-7.035-.018-.008-14.6-6.01a5.018,5.018,0,0,1-3.107-4.772l.483-20.645a5.026,5.026,0,0,1,5.017-4.894c.043,0,.085,0,.128,0a5.025,5.025,0,0,1,4.893,5.145v0l-.359,15.722a2.138,2.138,0,0,0,1.325,2.028l17.244,7.1a5.273,5.273,0,0,1,2.672,2.483h-4.255a2.141,2.141,0,1,0,0,4.282h4.4a5.045,5.045,0,0,1-6.487,2.581Zm21.378,71.359a26.259,26.259,0,0,1-13.892-48.547l1.216,2.36a23.623,23.623,0,0,0,21.314,41.918,2.142,2.142,0,1,0-1.567-3.986,19.341,19.341,0,0,1-17.777-34.111l8.8,17.08a2.141,2.141,0,1,0,3.807-1.962l-8.806-17.084a19.341,19.341,0,0,1,19.875,32.414,2.141,2.141,0,1,0,2.873,3.176,23.62,23.62,0,0,0-24.719-39.414l-1.216-2.36a26.266,26.266,0,1,1,10.089,50.516Z" transform="translate(-561.894 -2207.279)"/></svg>