<svg xmlns="http://www.w3.org/2000/svg" width="116.294" height="103.805" viewBox="0 0 116.294 103.805"><path d="M655.38,2311.751H645.5a20.067,20.067,0,0,0-17.227-35.8l-1.505-3.648h7.067a6.479,6.479,0,0,0,0-12.957H631.4c.006-.09.014-.179.014-.27v-2.663a3.928,3.928,0,0,0-3.923-3.923h-6.541l-10.444-5.68-1.729-1.73a1.7,1.7,0,0,0-2.409,2.409l1.9,1.9a1.693,1.693,0,0,0,.391.292l11.041,6a1.7,1.7,0,0,0,.814.207h6.975a.516.516,0,0,1,.515.515v1.227a4.869,4.869,0,0,0-7.33,1l-13.364-6.152-8.807-7.083a1.7,1.7,0,0,0-2.272.123l-.991.991a10.259,10.259,0,0,1-5.25-8.978,10.367,10.367,0,0,1,.227-2.159,3.213,3.213,0,0,1,4.267.225l6.429,6.43a1.7,1.7,0,0,0,2.41-2.409l-.657-.656a10.6,10.6,0,0,0,9.852-10.554v-7.773c0-5.473-4.352-9.295-10.583-9.295-6.329,0-10.582,3.637-10.582,9.05v.256h-5.761a1.7,1.7,0,0,0,0,3.407h5.761v4.355a10.55,10.55,0,0,0,.4,2.871,6.589,6.589,0,0,0-3.913,1.644c-.08.072-22.1,22.086-22.1,22.086a6.609,6.609,0,0,0,0,9.335l11.372,11.371-3.625,3.772a20.061,20.061,0,1,0-23.8,32.251h-5.477a1.7,1.7,0,0,0,0,3.407H655.38a1.7,1.7,0,1,0,0-3.407Zm-46.271-83.331a7.175,7.175,0,0,1-9.326,6.846v-11.2h9.326Zm-14.35-8.017c0-1.324.517-5.643,7.175-5.643,3.31,0,7.175,1.542,7.175,5.887v.011h-14.35v-.255Zm0,3.662h1.617v8.673c-.119-.1-.242-.188-.367-.276a7.134,7.134,0,0,1-1.25-4.042Zm30.012,35.752a1.48,1.48,0,1,1-1.48,1.48A1.481,1.481,0,0,1,624.771,2259.817Zm-12.5.393a5.971,5.971,0,0,0-.281-1.813l7.959,3.663a4.883,4.883,0,0,0,9.485.695h4.4a3.072,3.072,0,1,1,0,6.143h-28.3l4.6-4.087A5.989,5.989,0,0,0,612.272,2260.21Zm-3.407,0a2.591,2.591,0,0,1-.941,2l-.043.038-7.479,6.65h-4.338v-1l2.18-2.18a1.7,1.7,0,0,0-1.2-2.908h-.976v-5.2h10.2A2.6,2.6,0,0,1,608.865,2260.21ZM591.792,2272.3h4.779l-4.325,3.846v-1.157A10.114,10.114,0,0,0,591.792,2272.3Zm3.438,21.57h-1.56a4.168,4.168,0,1,1,4.208,6.725,2.808,2.808,0,0,0,.191-1.014v-2.871A2.843,2.843,0,0,0,595.23,2293.875Zm-.568,3.407v1.736H584.6v-1.736Zm-5.823-22.255v18.359h-3.685l-1.358-16.348,4.461-4.461A6.912,6.912,0,0,1,588.839,2275.027Zm-3.984-13.3,4.331-4.331h3.471v8.567H589.09Zm12.7-12.7,6.447,5.185H595.2a1.7,1.7,0,0,0-.835-.22h-1.768Zm-10.907-10.1A13.635,13.635,0,0,0,592.76,2249l-10.315,10.315-8.092-8.093Zm-18.506,23.024a3.208,3.208,0,0,1,0-4.517l3.8-3.8,15.22,15.22-6.058,6.057Zm11.371,16.189.385.386a1.7,1.7,0,0,0,.632.4l1.2,14.465h-.88a20,20,0,0,0-4.918-11.526Zm-5.951,6.191a16.586,16.586,0,0,1,3.869,9.057h-1.5a15.1,15.1,0,0,0-3.4-7.979Zm-13.935,11.284a2.011,2.011,0,0,0,1.91,1.181H572.5a11.778,11.778,0,1,1-4.806-11.271l-7.589,7.9A2.01,2.01,0,0,0,559.63,2295.612Zm5.229-2.226,5.289-5.5a11.714,11.714,0,0,1,2.351,5.5Zm-20.662,1.7a16.648,16.648,0,0,1,26.912-13.122l-1.037,1.079a15.166,15.166,0,1,0,5.86,13.747h1.5a16.662,16.662,0,0,1-33.237-1.7Zm27.828,16.662a20.08,20.08,0,0,0,8.83-14.958h.339v2.793a2.842,2.842,0,0,0,2.839,2.839h8.029A7.575,7.575,0,0,0,602.98,2292.1l1.264-1.315a1.7,1.7,0,1,0-2.456-2.361l-1.384,1.44a7.556,7.556,0,0,0-8.158.684v-9.837l9.452-8.405H617.28l-10.252,10.666a1.7,1.7,0,0,0,2.456,2.362l12.521-13.028h1.074l2.042,4.951a20.059,20.059,0,0,0-1.975,34.495Zm45.634-16.662a16.676,16.676,0,0,1,8.768-14.669l.572,1.387a15.167,15.167,0,1,0,21.591,8.125,1.7,1.7,0,1,0-3.2,1.161,11.766,11.766,0,1,1-17.078-6.11l4.437,10.756a1.7,1.7,0,1,0,3.15-1.3l-4.439-10.761a11.748,11.748,0,0,1,9.651,1.806,1.7,1.7,0,0,0,1.97-2.779,15.132,15.132,0,0,0-12.93-2.2l-.572-1.386a16.66,16.66,0,1,1-11.917,15.969Z" transform="translate(-540.79 -2211.353)"/></svg>