<svg xmlns="http://www.w3.org/2000/svg" width="157.34" height="133.844" viewBox="0 0 157.34 133.844"><g transform="translate(-6162.4 -1447.82)" style="isolation:isolate"><path d="M6319.74,1493.769a39.861,39.861,0,0,0-11.787-28.355c-23.843-22.181-67.422-26.989-104.667,6.815l-31.311,31.31a32.537,32.537,0,0,0-9.575,23.114v22.308a32.7,32.7,0,0,0,32.664,32.7c1.078,0,2.166-.054,3.255-.161a32.6,32.6,0,0,0,24-14.405,28.573,28.573,0,0,1,23.825-12.745c.531,0,1.062.012,1.57.034l29.795,1.653a40.045,40.045,0,0,0,42.231-39.979Zm-144.477,13.054,31.228-31.232c17.965-16.3,37.456-23.116,55.187-23.116a63.1,63.1,0,0,1,43.047,16.286,35.388,35.388,0,0,1-26.955,60.354l-29.822-1.654c-.607-.026-1.2-.04-1.805-.04a33.214,33.214,0,0,0-27.693,14.811,28.061,28.061,0,1,1-43.187-35.409Zm129.464,34.256a35.446,35.446,0,0,1-26.962,10.314l-29.812-1.644c-.609-.028-1.2-.043-1.81-.043a33.217,33.217,0,0,0-27.693,14.818,28.056,28.056,0,0,1-51.4-15.561v-5.486a32.674,32.674,0,0,0,28.016,15.9c1.078,0,2.166-.052,3.255-.161a32.6,32.6,0,0,0,24-14.4,28.581,28.581,0,0,1,23.826-12.747q.795,0,1.57.035l29.8,1.647a40.02,40.02,0,0,0,37.584-21.27v3.586a35.153,35.153,0,0,1-10.366,25.015Zm0,0"/><path d="M6268.58,1542.91l-10.182-.562a2.324,2.324,0,1,0-.255,4.64l10.181.56h.133a2.324,2.324,0,1,0,.126-4.647Zm0,0"/><path d="M6177.611,1544.17a24.743,24.743,0,0,0,38.078-3.776,36.523,36.523,0,0,1,30.454-16.292c.664,0,1.3.013,2.01.044l29.79,1.648a32.067,32.067,0,0,0,24.467-54.658,59.461,59.461,0,0,0-40.644-15.341c-12.968,0-32.672,3.838-52.986,22.212l-31.166,31.162a24.728,24.728,0,0,0-5.509,26.6,24.362,24.362,0,0,0,5.506,8.4Zm3.292-31.72,31.079-31.084c19.13-17.3,37.634-20.924,49.784-20.924a54.788,54.788,0,0,1,37.414,14.041,27.421,27.421,0,0,1-20.981,46.678l-29.812-1.655c-.809-.034-1.518-.052-2.244-.052a41.164,41.164,0,0,0-34.322,18.364,20.094,20.094,0,1,1-30.918-25.368Zm0,0"/><path d="M6277.542,1496.092a10.29,10.29,0,1,0-10.29-10.29,10.289,10.289,0,0,0,10.29,10.29Zm0-15.933a5.643,5.643,0,1,1-5.643,5.643,5.646,5.646,0,0,1,5.643-5.643Zm0,0"/></g></svg>