<svg xmlns="http://www.w3.org/2000/svg" width="50.075" height="116.87" viewBox="0 0 50.075 116.87"><path d="M984.99,2260.407c-.106-4.854-.454-5.973-1.42-7.931-.1-.2-.2-.412-.316-.656-.312-.666,0-1.475.785-3.163.157-.335.314-.675.466-1.022,1.413-3.229-.4-7.219-3.335-12.938a48.673,48.673,0,0,0-4.916-8.061,2.345,2.345,0,0,0-.528-.458c.952.048,1.413.091,1.427.092a2.327,2.327,0,0,0,1.9-.662,2.367,2.367,0,0,0,.706-1.882c0-.03-.235-2.975-.235-7.345a21.091,21.091,0,0,1,.161-3.1,7.936,7.936,0,0,0-.207-3.189c-.963-4.814-5.64-4.814-21.139-4.814h-.707c-6.219-.012-9.952,0-12.563.613-3.4.8-5.051,2.815-5.051,6.165v11.863a2.363,2.363,0,0,0,1.055,1.97c.32.214.688.452,2.8.571a2.338,2.338,0,0,0-.3.331,67.293,67.293,0,0,0-6.676,12.365c-1.915,4.957-1.795,6.458-.963,9.485.181.654.384,1.4.58,2.345.356,1.731.13,2.05-.281,2.628a5.853,5.853,0,0,0-1.268,3.712v52.633c0,9.11,6.653,12.186,26.367,12.186,16.58,0,23.654-3.114,23.654-10.413,0-.507,0-2.273.009-4.864C985.027,2294.313,985.091,2264.922,984.99,2260.407Zm-40.239-48.355c0-.991,0-1.226,1.4-1.556,2.078-.487,5.828-.488,11.479-.486h.708c7.6,0,15.459,0,16.466.9a.621.621,0,0,1,.03.107,3.777,3.777,0,0,1,.155,1.646,25.241,25.241,0,0,0-.2,3.72c0,2.01.047,3.721.1,5.017-2.936-.11-8.408-.185-17.319.151-7.265.274-10.963.269-12.815.208Zm35.514,94.8c-.006,2.6-.009,4.366-.009,4.874,0,1.4,0,5.677-18.919,5.677-21.631,0-21.631-3.958-21.631-7.45v-52.633c0-.415.052-.489.393-.969.926-1.3,1.77-2.867,1.058-6.326-.227-1.1-.462-1.958-.651-2.646-.574-2.084-.71-2.579.814-6.522a61.024,61.024,0,0,1,5.467-10.349h26.444a55.989,55.989,0,0,1,3.725,6.348c1.338,2.609,3.829,7.467,3.211,8.879-.137.313-.281.62-.421.922-.918,1.973-2.06,4.429-.784,7.164.13.276.249.521.361.747.594,1.2.84,1.7.933,5.941C980.355,2264.969,980.29,2295.4,980.265,2306.854Z" transform="translate(-934.97 -2205.271)"/></svg>