<svg xmlns="http://www.w3.org/2000/svg" width="58.434" height="65" viewBox="0 0 58.434 65"><g transform="translate(-6305.363 -9092.957)"><path d="M6362.534,9130.188a9.081,9.081,0,0,0-1.627-11.271.806.806,0,0,1-.167-.682,9.291,9.291,0,0,0-4.141-11.015.776.776,0,0,1-.448-.793,7.13,7.13,0,0,0-4-7.015,7.678,7.678,0,0,1-3-2.727,8.427,8.427,0,0,0-13.538-.591c-.362.428-.685.886-1.033,1.338-.422-.539-.772-1.072-1.2-1.527a8.233,8.233,0,0,0-8.436-2.661,8.862,8.862,0,0,0-5.7,4.6,1.927,1.927,0,0,1-1.163,1.018,7.574,7.574,0,0,0-5.066,7.371,1.04,1.04,0,0,1-.6,1.087,9.238,9.238,0,0,0-3.973,10.841.733.733,0,0,1-.194.817,15.96,15.96,0,0,0-2.074,2.922,9,9,0,0,0,.555,8.452.888.888,0,0,1,.015,1.025,8.662,8.662,0,0,0,1.014,10.612,1.161,1.161,0,0,1,.235.663c.04.8-.034,1.606.063,2.4a9.134,9.134,0,0,0,8.358,7.8.955.955,0,0,1,.848.514,9.011,9.011,0,0,0,4.054,3.531,32.292,32.292,0,0,0,3.5,1.06h1.777a31.041,31.041,0,0,0,3.583-1.173,9.374,9.374,0,0,0,4.07-3.795c.077-.126.157-.252.243-.372.021-.028.068-.038.124-.067.376.524.73,1.07,1.137,1.572a9.932,9.932,0,0,0,6.611,3.748,1.107,1.107,0,0,1,.231.087h1.778a.849.849,0,0,1,.176-.068,10.194,10.194,0,0,0,7.5-4.668,1.039,1.039,0,0,1,.725-.342,9.215,9.215,0,0,0,8.418-9.971,1.2,1.2,0,0,1,.349-1.068,8.635,8.635,0,0,0,.994-10.293A1.155,1.155,0,0,1,6362.534,9130.188Zm-29.217-18.744v.618c-.624-.18-1.2-.376-1.792-.5a2.645,2.645,0,0,0-1-.016,1.233,1.233,0,0,0-1.005,1.219,1.274,1.274,0,0,0,.958,1.2,2.173,2.173,0,0,0,.248.052c1.873.286,2.593,1.123,2.594,3.021v23.61c-.2-.177-.335-.282-.455-.4a10.069,10.069,0,0,0-6.748-2.967c-1.011-.055-1.65.421-1.675,1.218-.025.767.561,1.267,1.542,1.313a7.6,7.6,0,0,1,7.314,8.047c-.251,4.8-4.713,8.586-9.481,7.306a7.181,7.181,0,0,1-4.648-3.562,2.09,2.09,0,0,0-2.3-1.3c-2.406.205-4.926-1.665-5.913-4.208a5.9,5.9,0,0,1-.357-3.543,1.908,1.908,0,0,0-.689-2.016,6.057,6.057,0,0,1-1.136-7.595c1.289.546,2.507,1.107,3.763,1.569a5.08,5.08,0,0,0,1.626.205,1.261,1.261,0,1,0,.086-2.518,6.436,6.436,0,0,1-5.662-3.869,6.355,6.355,0,0,1,1.867-7.908c1.175-.875,1.25-1.173.624-2.493-1.955-4.128,1.248-9.351,5.736-9.353a6.577,6.577,0,0,1,5.907,4.444,11.294,11.294,0,0,1,.421,2.1c.1.883.565,1.446,1.3,1.44a1.317,1.317,0,0,0,1.251-1.523c-.174-5.529-5.062-9.6-9.826-8.928a1.633,1.633,0,0,1-.239,0,4.86,4.86,0,0,1,2.309-4.378,5.047,5.047,0,0,1,5.967.446,3.742,3.742,0,0,0,.723.51,1.224,1.224,0,0,0,1.512-.444,1.248,1.248,0,0,0-.167-1.621,7.47,7.47,0,0,0-3.369-1.937c-.224-.06-.45-.109-.771-.187a6.61,6.61,0,0,1,2.947-2.526,5.827,5.827,0,0,1,6.768,1.7,7.271,7.271,0,0,1,1.78,4.888C6333.3,9105.52,6333.316,9108.481,6333.316,9111.443Zm20.443,22.508a1.308,1.308,0,0,0,1.344.764,8.3,8.3,0,0,0,4.3-1.355c.285-.18.559-.378.9-.613a6.127,6.127,0,0,1-1.019,7.757,2.038,2.038,0,0,0-.7,2.134,6.731,6.731,0,0,1-5.3,7.622,3.5,3.5,0,0,1-1.2.044,1.641,1.641,0,0,0-1.93,1.046,7.137,7.137,0,0,1-3.749,3.445,7.52,7.52,0,0,1-10.041-4.553,7.647,7.647,0,0,1,6.907-10.436c.914-.053,1.5-.586,1.454-1.334s-.654-1.238-1.573-1.2a10.039,10.039,0,0,0-6.821,2.947,4.1,4.1,0,0,0-.317.395l-.167-.076v-23.466c0-1.944.689-2.749,2.619-3.062a1.294,1.294,0,0,0,1.176-1.339,1.23,1.23,0,0,0-1.337-1.164,23.683,23.683,0,0,0-2.439.479,1.329,1.329,0,0,1-.017-.189c0-3.216-.025-6.433.006-9.648a6.814,6.814,0,0,1,5.526-6.594,6.108,6.108,0,0,1,5.912,2.9,4.378,4.378,0,0,1-.506.177,7.3,7.3,0,0,0-3.426,1.825,1.288,1.288,0,0,0-.279,1.851,1.25,1.25,0,0,0,1.9.078,5.215,5.215,0,0,1,4.509-1.34,5.015,5.015,0,0,1,4.071,5.073,16.3,16.3,0,0,0-2.373.017,9.221,9.221,0,0,0-7.718,8.853c-.018.917.458,1.526,1.216,1.56s1.252-.546,1.323-1.47a6.889,6.889,0,0,1,3.915-5.956,6.018,6.018,0,0,1,7.814,2.745,6.43,6.43,0,0,1,.2,6.362,1.3,1.3,0,0,0,.483,1.967c3.795,2.6,3.676,7.912.045,10.73a5.907,5.907,0,0,1-3.46,1.253A1.265,1.265,0,0,0,6353.759,9133.951Z" transform="translate(0)"/><path d="M6326.162,9119.759a6.357,6.357,0,0,1-8.75-5.654c-.036-.931-.581-1.5-1.327-1.459a1.326,1.326,0,0,0-1.205,1.564,8.763,8.763,0,0,0,2.816,6.177,9.106,9.106,0,0,0,4.612,2.3,3.883,3.883,0,0,1-3.542,2.648,1.292,1.292,0,0,0-1.341,1.37,1.321,1.321,0,0,0,1.544,1.151,6.288,6.288,0,0,0,5.786-4.619.775.775,0,0,1,.716-.641,8.544,8.544,0,0,0,3.964-1.872,1.3,1.3,0,0,0,.409-1.875c-.451-.621-1.189-.655-1.957-.134A11.113,11.113,0,0,1,6326.162,9119.759Z" transform="translate(0.671 1.388)"/><path d="M6321.538,9141.07a8.313,8.313,0,0,0-5.3-1.977,1.279,1.279,0,0,0-1.359,1.227,1.3,1.3,0,0,0,1.227,1.295c.125.016.254.012.38.021a5.94,5.94,0,0,1,3.451,1.439,6.965,6.965,0,0,1,2.55,5.187,1.286,1.286,0,0,0,.874,1.271c.931.33,1.689-.377,1.647-1.839A9.246,9.246,0,0,0,6321.538,9141.07Z" transform="translate(0.671 3.255)"/><path d="M6325.562,9129.618a11.216,11.216,0,0,0-9.1,5.455,1.333,1.333,0,0,0,.242,2,1.319,1.319,0,0,0,1.873-.608,8.923,8.923,0,0,1,7.521-4.332,1.289,1.289,0,0,0,1.361-1.351C6327.4,9130.04,6326.807,9129.58,6325.562,9129.618Z" transform="translate(0.759 2.585)"/><path d="M6326.786,9105.32a1.26,1.26,0,1,0-1.232-1.287A1.3,1.3,0,0,0,6326.786,9105.32Z" transform="translate(1.424 0.693)"/><path d="M6341.758,9123.837a1.906,1.906,0,0,0,.317.687,6.288,6.288,0,0,0,5.474,3.337,1.235,1.235,0,0,0,1.31-.977,1.137,1.137,0,0,0-.587-1.344,2.38,2.38,0,0,0-.911-.217,3.736,3.736,0,0,1-3.286-2.635c.2-.052.4-.107.6-.154a8.949,8.949,0,0,0,6.765-8.03c.065-1.138-.339-1.784-1.163-1.854s-1.3.524-1.373,1.673a6.388,6.388,0,0,1-7.075,5.866,7.325,7.325,0,0,1-3.545-1.566,1.228,1.228,0,0,0-1.8.216,1.261,1.261,0,0,0,.3,1.8,7.745,7.745,0,0,0,3.387,1.79C6341.03,9122.607,6341.666,9122.847,6341.758,9123.837Z" transform="translate(2.177 1.389)"/><path d="M6349.736,9139.091a5.2,5.2,0,0,0-.76.041,9.306,9.306,0,0,0-8,8.9,3,3,0,0,0,0,.367,1.255,1.255,0,0,0,2.5.1c.028-.166.02-.338.037-.506a6.968,6.968,0,0,1,3.325-5.476,6.117,6.117,0,0,1,3-.9,1.272,1.272,0,0,0,1.274-1.31A1.3,1.3,0,0,0,6349.736,9139.091Z" transform="translate(2.511 3.254)"/><path d="M6347.511,9136.5a1.3,1.3,0,0,0,1.885.547,1.329,1.329,0,0,0,.213-1.959,11.375,11.375,0,0,0-9.392-5.483c-.951-.038-1.588.441-1.617,1.221-.028.747.545,1.222,1.472,1.327a13.946,13.946,0,0,1,2.486.43A8.729,8.729,0,0,1,6347.511,9136.5Z" transform="translate(2.344 2.584)"/><path d="M6338.682,9105.32a1.26,1.26,0,1,0-1.268-1.252A1.3,1.3,0,0,0,6338.682,9105.32Z" transform="translate(2.261 0.693)"/></g></svg>