<svg xmlns="http://www.w3.org/2000/svg" width="83.406" height="83.824" viewBox="0 0 83.406 83.824"><g transform="translate(-7138.378 -7081.55)" style="isolation:isolate"><path d="M7216.224,7134.375v2.78a2.781,2.781,0,0,1,2.78,2.78,5.56,5.56,0,0,1-5.56,5.561H7205.1a5.562,5.562,0,0,1-5.561-5.561,2.781,2.781,0,0,1,2.781-2.78v-2.78a5.56,5.56,0,0,0-5.561,5.56,8.341,8.341,0,0,0,8.341,8.341h8.341a8.34,8.34,0,0,0,8.34-8.341A5.56,5.56,0,0,0,7216.224,7134.375Z"/><rect width="8.341" height="2.78" transform="translate(7205.103 7135.765)"/><path d="M7189.812,7120.474v-2.781a5.562,5.562,0,0,0-5.561,5.561,8.342,8.342,0,0,0,8.341,8.341h8.341a8.341,8.341,0,0,0,8.34-8.341,5.56,5.56,0,0,0-5.56-5.561v2.781a2.78,2.78,0,0,1,2.78,2.78,5.56,5.56,0,0,1-5.56,5.56h-8.341a5.56,5.56,0,0,1-5.561-5.56A2.78,2.78,0,0,1,7189.812,7120.474Z"/><rect width="8.341" height="2.78" transform="translate(7192.592 7119.083)"/><path d="M7201.03,7156.2h-3.114l-2.613-8.688a1.391,1.391,0,0,0-1.39-.987h-5.561c-.6-6-4.379-10.759-8.966-10.759s-8.48,4.879-9.036,11.121h-1.39c-.556-6.242-4.393-11.121-9.036-11.121-4.712,0-8.577,5.018-8.994,11.385h-4.337a1.389,1.389,0,0,0-1.265,1.126l-2.377,8.757h-3.183a1.4,1.4,0,0,0-1.377,1.4l.084,5.56a1.376,1.376,0,0,0,1.39,1.376l61.165-.834a1.39,1.39,0,0,0,1.39-1.39v-5.56A1.39,1.39,0,0,0,7201.03,7156.2Zm-21.644-17.654c3.044,0,5.658,3.587,6.158,8.132a1.392,1.392,0,0,0-1.321,1.029l-2.377,8.758H7177l-2.614-8.689a1.389,1.389,0,0,0-1.153-.973C7173.659,7142.243,7176.3,7138.545,7179.386,7138.545Zm-19.462-.056c3.142,0,5.755,3.726,6.186,8.341l-.055.056a1.388,1.388,0,0,0-1.321,1.028l-2.377,8.758-4.852.07-2.613-8.689a1.391,1.391,0,0,0-1.168-.973C7154.1,7142.326,7156.783,7138.489,7159.924,7138.489Zm39.7,23.285-58.385.792v-2.78h2.78a1.391,1.391,0,0,0,1.391-1.029l2.363-8.757h4.865l2.6,8.688a1.39,1.39,0,0,0,1.39,1l6.95-.1a1.389,1.389,0,0,0,1.39-1.028l2.364-8.758,4.656-.139,2.614,8.688a1.39,1.39,0,0,0,1.307,1.043l6.95-.1a1.389,1.389,0,0,0,1.321-1.028l2.377-8.758,6.241-.083,2.656,8.577a1.389,1.389,0,0,0,1.39.987h2.78Z"/><path d="M7142.548,7131.6H7163.4a4.171,4.171,0,0,0,4.17-4.171v-30.582a1.392,1.392,0,0,0-.4-.987l-5.158-5.144v-7.77a1.39,1.39,0,0,0-1.39-1.391h-12.511a1.391,1.391,0,0,0-1.39,1.391v7.77l-7.937,7.924a1.384,1.384,0,0,0-.4.987v27.8A4.171,4.171,0,0,0,7142.548,7131.6Zm6.95-47.264h9.731v2.78H7149.5Zm-8.34,15.861,7.937-7.924a1.384,1.384,0,0,0,.4-.987v-1.39h9.731v1.39a1.392,1.392,0,0,0,.4.987l5.158,5.144v30.012a1.39,1.39,0,0,1-1.39,1.39h-20.852a1.389,1.389,0,0,1-1.39-1.39Z"/><path d="M7157.839,7109.353h2.78a1.39,1.39,0,0,0,1.39-1.39v-9.731a1.378,1.378,0,0,0-.4-.987l-2.78-2.78a1.4,1.4,0,0,0-2.377.987v12.511A1.39,1.39,0,0,0,7157.839,7109.353Z"/><path d="M7216.127,7082.829a8.243,8.243,0,0,0-7.91,1.5l-3.628,3.03a4.975,4.975,0,0,1-3.17,1.14h-1.126a4.556,4.556,0,0,1-2.891-1.043l-2.78-2.349a8.342,8.342,0,0,0-9.731-.667l-.807.5A14.125,14.125,0,0,0,7177.3,7097v3.169a13.345,13.345,0,0,0,13.331,13.359h6.283a20.044,20.044,0,0,0,16.278-8.341l1.39-1.848,4.852-4.852a8.259,8.259,0,0,0,2.349-5.811v-1.987A8.26,8.26,0,0,0,7216.127,7082.829Zm2.877,9.842a5.424,5.424,0,0,1-1.612,3.879l-4.935,4.935a.871.871,0,0,0-.139.18l-1.391,1.947a17.28,17.28,0,0,1-14.012,7.131h-6.255a10.593,10.593,0,0,1-10.579-10.579V7097a11.372,11.372,0,0,1,5.38-9.731l.806-.514a5.587,5.587,0,0,1,6.533.444l2.781,2.35a7.252,7.252,0,0,0,4.712,1.737h1.126a7.754,7.754,0,0,0,4.949-1.793l3.628-3.03a5.56,5.56,0,0,1,9.008,4.17Z"/><path d="M7194.594,7094.52l-1.668-1.251a5.422,5.422,0,0,0-8.675,4.337v2.781a5.436,5.436,0,0,0,2.169,4.337l1.668,1.251a5.422,5.422,0,0,0,8.674-4.337v-2.781A5.436,5.436,0,0,0,7194.594,7094.52Zm-.612,7.118a2.641,2.641,0,0,1-4.17,2.154l-1.668-1.251a2.654,2.654,0,0,1-1.113-2.154v-2.781a2.641,2.641,0,0,1,4.171-2.154l1.668,1.251a2.655,2.655,0,0,1,1.112,2.154Z"/><path d="M7150.889,7116.873l1.793,1.807a1.39,1.39,0,0,0,1.966.008l.008-.008,1.793-1.807v4.991h2.78v-8.341a1.4,1.4,0,0,0-2.377-.987l-3.183,3.2-3.184-3.2a1.4,1.4,0,0,0-2.377.987v8.341h2.781Z"/></g></svg>