<svg xmlns="http://www.w3.org/2000/svg" width="50.492" height="65" viewBox="0 0 50.492 65"><g transform="translate(-6311.539 -8898.344)"><path d="M6356.331,8940.328a.888.888,0,0,1-.486-.8,21.123,21.123,0,0,0-3.814-11.448q-2.212-3.252-4.434-6.5c-.155-.227-.276-.542-.5-.647a2.022,2.022,0,0,0-1.258-.312,1.524,1.524,0,0,0-.853.957,1.67,1.67,0,0,0,.337,1.153c1.6,2.395,3.254,4.745,4.841,7.144a18.489,18.489,0,0,1,2.964,13.249,19.782,19.782,0,0,1-23.764,16.275c-12.408-2.825-18.953-16.632-13.087-27.791a76.283,76.283,0,0,1,4.368-6.685.855.855,0,0,1,.52-.284,6.538,6.538,0,0,0,5.313-7.568,1.46,1.46,0,0,1,.189-.974c2.209-3.28,4.445-6.543,6.676-9.808.111-.162.239-.312.393-.511,1.644,2.409,3.239,4.752,4.836,7.089a4.086,4.086,0,0,0,.459.6,1.18,1.18,0,0,0,1.4.25,1.135,1.135,0,0,0,.729-1.218,2.354,2.354,0,0,0-.431-.967q-2.845-4.2-5.716-8.387c-.863-1.265-1.746-1.263-2.612.008q-3.524,5.161-7.045,10.323c-.125.182-.262.354-.4.538a6.445,6.445,0,0,0-9.827.356,6.166,6.166,0,0,0-1.293,4.829,6.43,6.43,0,0,0,4.081,5.132c-.138.222-.242.4-.358.571-.807,1.191-1.639,2.365-2.422,3.57a21.008,21.008,0,0,0-2.926,17.113,22.178,22.178,0,0,0,29.976,15.149.842.842,0,0,1,.922.076,11.566,11.566,0,0,0,3.937,1.694c.509.12,1.025.214,1.537.318H6351c.494-.1.991-.186,1.482-.3a12.195,12.195,0,0,0,3.844-22.205Zm-40-22a3.842,3.842,0,0,1,3.854-3.869,3.864,3.864,0,1,1-3.854,3.869Zm42,36.833a9.582,9.582,0,0,1-12.964,4,22.565,22.565,0,0,0,10.362-16.059C6358.632,8944.9,6360.954,8950.278,6358.327,8955.162Z" transform="translate(0 0.509)"/><path d="M6331.787,8930.793c.824.489,1.531.4,1.954-.249a1.33,1.33,0,0,0-.626-1.915,9.116,9.116,0,0,0-6.324-1.3,9.265,9.265,0,0,0,1.361,18.424,7.747,7.747,0,0,0,5.974-2.6,1.266,1.266,0,1,0-1.854-1.717,5.278,5.278,0,0,1-2.61,1.6,6.72,6.72,0,1,1,2.127-12.242Z" transform="translate(0.971 3.798)"/><path d="M6335.6,8936.318a5.056,5.056,0,0,0-.113,5.871c1.448,2.087,3.425,2.574,6.665,1.633a4.107,4.107,0,0,0,.287.543,1.22,1.22,0,0,0,1.407.462,1.279,1.279,0,0,0,.877-1.385c.01-2.536,0-5.072,0-7.606a8.317,8.317,0,0,0-.03-.949,1.157,1.157,0,0,0-.991-1.084,1.2,1.2,0,0,0-1.375.666c-.067.123-.113.26-.167.387C6339.165,8933.861,6337.087,8934.33,6335.6,8936.318Zm6.58,3a2.515,2.515,0,1,1-2.5-2.5A2.508,2.508,0,0,1,6342.183,8939.318Z" transform="translate(3.035 4.661)"/><path d="M6343.919,8907.863a4.76,4.76,0,1,0-4.753-4.772A4.748,4.748,0,0,0,6343.919,8907.863Zm.026-6.98a2.221,2.221,0,1,1-2.238,2.209A2.237,2.237,0,0,1,6343.945,8900.883Z" transform="translate(3.635)"/><path d="M6339.672,8917.022a1.263,1.263,0,1,0-1.273-1.295A1.275,1.275,0,0,0,6339.672,8917.022Z" transform="translate(3.534 2.125)"/></g></svg>