<svg xmlns="http://www.w3.org/2000/svg" width="60" height="60.007" viewBox="0 0 60 60.007"><g transform="translate(-6304.119 -9181.097)"><path d="M6362.208,9218.347c-1.461-2.629-3.767-4.488-5.956-6.812l-1.725,1.878c-1.16-2.705-2.311-5.445-3.512-8.164-.581-1.317-.61-1.287.388-2.323a1.51,1.51,0,0,1,1.254-.534c.966.045,1.935.022,2.9.01a8.458,8.458,0,0,0,8.267-6.753,47.254,47.254,0,0,0,.265-6.682c0-.028-.05-.06-.092-.105-1.618,0-3.249-.017-4.882,0a8.563,8.563,0,0,0-8.287,6.748,19.106,19.106,0,0,0-.23,4.447,2.316,2.316,0,0,1-1.185,2.049c-.128-.227-.238-.418-.344-.61a114.245,114.245,0,0,0-10.742-16.267,44.8,44.8,0,0,0-3.454-3.709c-.586-.582-.907-.545-1.526,0a17.2,17.2,0,0,0-1.748,1.751,122.985,122.985,0,0,0-8.9,12.2c-.116.175-.234.349-.328.486a1.55,1.55,0,0,1-.852-1.687c.056-.883.022-1.772.01-2.66a8.458,8.458,0,0,0-6.747-8.272,47.466,47.466,0,0,0-6.682-.265c-.028,0-.059.047-.1.078,0,1.787-.084,3.585.017,5.372a8.577,8.577,0,0,0,7.423,7.952c1.411.175,2.855.084,4.284.131a1.093,1.093,0,0,1,.6.177c.354.261.668.578.981.858-3.867,6.693-7.581,13.329-8.492,21.154-2.805-1.421-5.763-.734-8.7-.936,0,1.718-.013,3.346,0,4.975a8.544,8.544,0,0,0,6.766,8.33,31.43,31.43,0,0,0,4.931.257.807.807,0,0,1,.731.392,21.155,21.155,0,0,0,25.1,7.913,1.24,1.24,0,0,1,.837.034,15.347,15.347,0,0,0,19.715-21.414Zm-8.229-17.907a4.54,4.54,0,0,1,.294-.367c1.051-1.055,2.1-2.11,3.162-3.152a.952.952,0,0,1,.542-.307c1.141-.028,2.283-.014,3.489-.014C6360.308,9199.284,6357.586,9200.668,6353.979,9200.439Zm2.394-7.772c0-1.35-.015-1.452,1.341-1.655,1.442-.216,2.916-.211,4.407-.306v3.92h-2.264l-.126-.141,1.228-1c-.522-.512-.958-.94-1.4-1.374l-3.023,3.04-.163-.056Zm-1.939.2c0,1.467,0,2.8-.006,4.143a.508.508,0,0,1-.152.309c-.535.57-1.08,1.133-1.726,1.8A7.454,7.454,0,0,1,6354.434,9192.866Zm-44.35-3.732a28.828,28.828,0,0,1-.035-4.3c1.621.166,3.252.322,4.881.5.653.071.865.449.819,1.114-.065.933-.017,1.875-.017,3l-1.132-1.32c-.506.564-.915,1.021-1.354,1.51,1.576,1.558,3.246,3.206,4.971,4.908C6313.923,9195.239,6310.631,9192.569,6310.084,9189.134Zm9.475,4.2c-.659-.693-1.212-1.27-1.754-1.854a.52.52,0,0,1-.128-.318c-.008-1.323-.005-2.646-.005-4.1C6319.377,9188.843,6319.754,9190.892,6319.559,9193.338Zm38.719,32.837c-3.362-1.2-6.677-2.383-9.972-3.56,1.8-1.8,3.58-3.578,5.363-5.362C6356.369,9219.536,6358.455,9222.2,6358.277,9226.175Zm-10.95-1.85,10.62,3.786a9.179,9.179,0,0,1-6.835,6.808C6349.874,9231.449,6348.63,9227.971,6347.328,9224.325Zm1.855,10.945c-3.953.184-6.622-1.889-8.9-4.572l5.351-5.349Q6347.368,9230.194,6349.183,9235.271Zm-43.04-11.626v-3.813c1.757.045,3.594-.262,5.34.5a.661.661,0,0,1,.363.444c.03,1.1.017,2.207.017,3.31l-.142.08-3.013-3.071c-.461.478-.885.921-1.4,1.455.391.3.8.621,1.215.941-.036.051-.073.1-.108.156Zm.627,1.981c1.205,0,2.348,0,3.489.007a.588.588,0,0,1,.373.143c1.212,1.2,2.415,2.4,3.646,3.631A6.917,6.917,0,0,1,6306.771,9225.626Zm8.887,2.458c-.59-.6-1.118-1.13-1.626-1.675a.77.77,0,0,1-.223-.459c-.018-1.3-.01-2.61-.01-3.945C6315.332,9223.247,6315.977,9225.732,6315.657,9228.084Zm20.834,10.934c-7.716.729-13.864-2.036-18.4-8.346a2.324,2.324,0,0,1-.438-1.395,38.191,38.191,0,0,0-.219-4.515,7.879,7.879,0,0,0-2.3-4.3,1.39,1.39,0,0,1-.355-.877,23.549,23.549,0,0,1,1.615-7.707,78.992,78.992,0,0,1,8.6-16.376,113.612,113.612,0,0,1,8.243-11.181c.234-.277.482-.543.726-.812a2.385,2.385,0,0,1,.26-.183c1.2,1.486,2.411,2.915,3.542,4.4a112.142,112.142,0,0,1,11.765,18.748,47.662,47.662,0,0,1,3.152,8.151.932.932,0,0,1-.295,1.047q-8.61,8.577-17.2,17.176a5.92,5.92,0,0,1-.613.464l5.242,5.063A33.9,33.9,0,0,1,6336.491,9239.018Zm15.648-.3a12.989,12.989,0,0,1-12.543-3.2c-.671-.608-1.291-1.273-1.934-1.914-.057-.057-.106-.12-.2-.22l1.417-1.356c.551.572,1.134,1.2,1.745,1.806a11.341,11.341,0,0,0,8.625,3.394,11.47,11.47,0,0,0,7.515-19.68c-.583-.58-1.179-1.147-1.76-1.713.5-.479.929-.9,1.376-1.326,3.008,2.557,5.252,5.589,5.693,9.7A13.324,13.324,0,0,1,6352.139,9238.722Z" transform="translate(0 -0.001)"/><path d="M6322.615,9198.279c.565.34,1.045.629,1.51.907l4.615-7-1.439-1.023C6325.718,9193.567,6324.178,9195.906,6322.615,9198.279Z" transform="translate(2.009 1.138)"/><path d="M6319.647,9203.65l1.564.8c.646-1.185,1.27-2.327,1.9-3.488l-1.529-.88Z" transform="translate(1.599 1.99)"/><path d="M6348.242,9226.116a.878.878,0,1,0-.875-.881A.889.889,0,0,0,6348.242,9226.116Z" transform="translate(4.31 4.312)"/><path d="M6341.187,9226.125a.878.878,0,1,0,.876.879A.882.882,0,0,0,6341.187,9226.125Z" transform="translate(3.607 5.28)"/><path d="M6349.991,9219.056a.878.878,0,1,0-.859-.9A.888.888,0,0,0,6349.991,9219.056Z" transform="translate(5.279 3.608)"/></g></svg>