<svg xmlns="http://www.w3.org/2000/svg" width="127.019" height="156.374" viewBox="0 0 127.019 156.374"><g transform="translate(-1226.709 -2200.93)" style="isolation:isolate"><path d="M1298.816,2234.868a13.608,13.608,0,1,0-12.56-8.418A13.625,13.625,0,0,0,1298.816,2234.868Zm-8.429-17.1a9.139,9.139,0,1,1,1.984,9.952A9.139,9.139,0,0,1,1290.387,2217.769Z"/><path d="M1313.638,2283.566a3.577,3.577,0,0,1-.52-2.616l3.889-20.926a9.725,9.725,0,0,1,1.856-4.149l30.119-39.056a8.932,8.932,0,0,0-14.1-10.971l-26.474,33.714a3.6,3.6,0,0,1-2.85,1.385h-6.741l-8.249.012a2.968,2.968,0,0,1-2.413-1.244l-5.108-7.168a16.551,16.551,0,0,1-2.325-4.676l-6.388-20.427a9.252,9.252,0,1,0-17.592,5.728l7.793,23.007a18.092,18.092,0,0,0,2.576,4.953l15.2,20.614a6.114,6.114,0,0,1,.4,6.644l-5.727,10.066a27.277,27.277,0,0,0-3.435,16.5l5.681,52.849a10.634,10.634,0,1,0,21.116-2.523l-5.976-45.5a2.062,2.062,0,0,1,3.746-1.434l10.4,15.164a3.211,3.211,0,0,1,.533,2.247l-3.933,29.261a10.476,10.476,0,1,0,20.811,2.4l3.2-33.482a16.586,16.586,0,0,0-2.607-10.607Zm11.041,29.959-3.2,33.469a6.01,6.01,0,1,1-11.938-1.374l3.933-29.26a7.672,7.672,0,0,0-1.278-5.372l-10.4-15.165a6.527,6.527,0,0,0-11.856,4.544l5.977,45.5a6.165,6.165,0,1,1-12.242,1.463l-5.683-52.849a22.848,22.848,0,0,1,2.875-13.826l5.727-10.072a10.585,10.585,0,0,0-.684-11.5l-15.2-20.606a13.738,13.738,0,0,1-1.948-3.732l-7.792-23.007a4.787,4.787,0,1,1,9.1-2.971l6.4,20.427a20.981,20.981,0,0,0,2.949,5.935l5.108,7.167a7.444,7.444,0,0,0,6.052,3.127l14.984-.01a8.05,8.05,0,0,0,6.364-3.094l26.477-33.712a4.466,4.466,0,0,1,7.05,5.485l-30.119,39.062a14.261,14.261,0,0,0-2.712,6.062l-3.889,20.925a8.018,8.018,0,0,0,1.169,5.873l12.881,19.77A12.093,12.093,0,0,1,1324.679,2313.525Z"/><path d="M1353.6,2265.846a19.858,19.858,0,0,0-20.686-13.78,2.235,2.235,0,0,0-1.816,3.049l9.323,23.263a10.336,10.336,0,0,0-6.327,3.117c-3.638,3.638-4.2,8.776-1.293,11.68a6.475,6.475,0,0,0,4.649,1.825,7.957,7.957,0,0,0,1.243-.1,11.1,11.1,0,0,0,8.807-8.807,6.726,6.726,0,0,0-1.376-5.479l-9.625-24.033a15.194,15.194,0,0,1,12.886,10.745,2.234,2.234,0,1,0,4.215-1.483Zm-10.512,19.559a6.664,6.664,0,0,1-5.08,5.08,2.4,2.4,0,0,1-2.047-.471,2.458,2.458,0,0,1-.5-2.08,6.63,6.63,0,0,1,5.073-5.073,3.669,3.669,0,0,1,.556-.044l0,0a2.116,2.116,0,0,1,1.527.538A2.41,2.41,0,0,1,1343.089,2285.405Z"/><path d="M1255.762,2248.226a4,4,0,0,0-5.214-2.32l-18.111,7.17a3.979,3.979,0,0,0-2.269,5.117l2.645,6.912a2.333,2.333,0,0,0,.534,1.4l3.258,8.512a10.186,10.186,0,0,0-6.747,3.143c-3.637,3.638-4.2,8.777-1.293,11.681a6.449,6.449,0,0,0,4.641,1.837,10.136,10.136,0,0,0,7.006-3.166c2.96-2.958,3.9-6.892,2.586-9.819l-4.77-12.457,17.182-7.051,3.193,8.239a10.2,10.2,0,0,0-6.709,3.142c-3.636,3.638-4.2,8.776-1.294,11.68a6.437,6.437,0,0,0,4.642,1.838,10.143,10.143,0,0,0,7.008-3.165c3-3,3.922-7.005,2.519-9.945Zm-18.706,37.124c-1.959,1.961-4.383,2.273-5.333,1.325-1.081-1.082-.478-3.589,1.293-5.361a5.856,5.856,0,0,1,3.857-1.834,2.073,2.073,0,0,1,1.508.538C1239.328,2280.968,1239.015,2283.389,1237.056,2285.35Zm-.626-23.3-1.913-5,17.228-6.821,1.85,4.775Zm22.462,15.7c-1.964,1.963-4.385,2.272-5.333,1.324-1.081-1.081-.479-3.588,1.293-5.36a6.194,6.194,0,0,1,3.284-1.788,3.557,3.557,0,0,1,.556-.044,2.123,2.123,0,0,1,1.524.537,1.569,1.569,0,0,1,.278.4l.058.148C1261.019,2274.109,1260.554,2276.09,1258.892,2277.751Z"/></g></svg>