<svg xmlns="http://www.w3.org/2000/svg" width="60.94" height="80.7" viewBox="0 0 60.94 80.7"><g transform="translate(-6896.69 -7673.315)" style="isolation:isolate"><circle cx="1.182" cy="1.182" r="1.182" transform="translate(6925.978 7737.465)"/><circle cx="1.182" cy="1.182" r="1.182" transform="translate(6925.978 7751.651)"/><path d="M6934.8,7698.722a1.182,1.182,0,0,0-1.183,1.182v2.7a1.182,1.182,0,0,0,2.365,0v-2.7A1.181,1.181,0,0,0,6934.8,7698.722Z"/><circle cx="1.182" cy="1.182" r="1.182" transform="translate(6925.978 7744.558)"/><path d="M6950.384,7727.4l-5.262-1.771a11.271,11.271,0,0,0,4.732-9.143c.007-.015,0-20.476,0-20.476a22.7,22.7,0,0,0-33.8-19.793,1.182,1.182,0,0,0,1.159,2.06,20.332,20.332,0,0,1,30.279,17.733v.006a4.656,4.656,0,0,0-2.327-.621h-1.136a42.976,42.976,0,0,1-15.721-6.04,2.064,2.064,0,0,0-2.344.106,29.284,29.284,0,0,1-15.61,5.934h-1.193a4.657,4.657,0,0,0-2.327.621v-.006a20.184,20.184,0,0,1,6.087-14.507,1.182,1.182,0,0,0-1.656-1.687,22.528,22.528,0,0,0-6.8,16.194v20.476a11.27,11.27,0,0,0,4.732,9.143l-5.262,1.771a10.631,10.631,0,0,0-7.246,10.084v15.35a1.182,1.182,0,0,0,2.364,0v-15.35a8.267,8.267,0,0,1,5.636-7.843l2.055-.692a13.809,13.809,0,0,0,.211,7.366,5.587,5.587,0,0,0-3.975,5.341v4.81a2.162,2.162,0,0,0,2.159,2.159h1.324a1.183,1.183,0,1,0,0-2.365h-1.118v-4.6a3.214,3.214,0,0,1,3.208-3.211h0a3.215,3.215,0,0,1,3.208,3.211v4.6h-1.119a1.183,1.183,0,0,0,0,2.365h1.325a2.161,2.161,0,0,0,2.158-2.159v-4.81a5.583,5.583,0,0,0-4.742-5.513,11.511,11.511,0,0,1-.673-3.469,11.707,11.707,0,0,1,.8-4.656l8.064-2.714,8.461,8.462a1.829,1.829,0,0,0,2.564,0l2.335-2.336a1.182,1.182,0,0,0-1.672-1.671l-1.945,1.945-7.494-7.494a4.674,4.674,0,0,0,1.5-3.923,17.685,17.685,0,0,0,5.769.985,18,18,0,0,0,5.9-.966,4.553,4.553,0,0,0,1.678,4.045l-1.515,1.515a1.182,1.182,0,0,0,1.672,1.671l2.154-2.153,7.2,2.423a11.538,11.538,0,0,1,.069,8.329,6.269,6.269,0,1,0,2.447.16,13.867,13.867,0,0,0,.257-7.557l2.677.9a8.267,8.267,0,0,1,5.637,7.843v15.35a1.182,1.182,0,1,0,2.364,0v-15.35A10.632,10.632,0,0,0,6950.384,7727.4Zm-5.283-29.641h.061a2.33,2.33,0,0,1,2.327,2.319v.018a2.333,2.333,0,0,1-2.388,2.319Zm-38.27,2.319a2.333,2.333,0,0,1,2.388-2.319v4.657a2.333,2.333,0,0,1-2.388-2.32Zm12.133,20.849a1.966,1.966,0,0,1-1.342,1.867l-5.423,1.825a8.888,8.888,0,0,1-5.368-8.133v-12.327a4.676,4.676,0,0,0,2.462.621,18.181,18.181,0,0,0,9.671,14.485Zm8.141-2.019a15.7,15.7,0,0,1-15.522-15.759v-5.5a31.594,31.594,0,0,0,15.643-6.185,45.36,45.36,0,0,0,15.511,6.1v5.767a15.468,15.468,0,0,1-4.582,11.033A15.148,15.148,0,0,1,6927.1,7718.907Zm15.016,5.711-5.424-1.825a1.966,1.966,0,0,1-1.341-1.867V7719.3a17.99,17.99,0,0,0,9.687-14.519,4.783,4.783,0,0,0,2.446-.621v12.327A8.887,8.887,0,0,1,6942.121,7724.618Zm6.853,17.734a3.908,3.908,0,1,1-3.912-3.908h.007A3.912,3.912,0,0,1,6948.974,7742.352Z"/><path d="M6928.839,7709.954a2.884,2.884,0,0,1-3.359,0,1.182,1.182,0,1,0-1.366,1.929,5.326,5.326,0,0,0,3.047.975,5.625,5.625,0,0,0,3.046-.976,1.182,1.182,0,0,0-1.368-1.927Z"/><path d="M6919.516,7698.722a1.181,1.181,0,0,0-1.182,1.182v2.7a1.183,1.183,0,0,0,2.365,0v-2.7A1.183,1.183,0,0,0,6919.516,7698.722Z"/></g></svg>