<svg xmlns="http://www.w3.org/2000/svg" width="126.674" height="73.441" viewBox="0 0 126.674 73.441"><path d="M6092.964,1021.173h-4.647c0-.048,0-.1,0-.145,0-15.882-8.453-34.345-19.35-34.345a10.57,10.57,0,0,0-5.192,1.431c-3.54-5.615-7.861-8.68-12.3-8.68s-8.763,3.065-12.3,8.68a10.134,10.134,0,0,0-10.384,0c-3.54-5.615-7.86-8.68-12.3-8.68s-8.763,3.065-12.3,8.68a10.566,10.566,0,0,0-5.191-1.431c-4.179,0-8.208,2.655-11.649,7.678a1.855,1.855,0,1,0,3.06,2.1c1.9-2.767,4.926-6.065,8.589-6.065,3.7,0,7.607,3.534,10.713,9.7a48.741,48.741,0,0,1,4.926,20.94c0,.046,0,.095,0,.143h-31.269c0-.048,0-.1,0-.143a49.031,49.031,0,0,1,3.293-17.247,1.856,1.856,0,0,0-3.463-1.338,52.859,52.859,0,0,0-3.541,18.583c0,.048,0,.1,0,.145H5975a4.359,4.359,0,0,0-4.354,4.354v3a4.36,4.36,0,0,0,4.354,4.355h4.862l2.02,16.181a4.363,4.363,0,0,0,4.323,3.814h25.833a4.345,4.345,0,0,0,4.224-3.3l.227-.9.225.9a4.347,4.347,0,0,0,4.226,3.3h8.7a1.856,1.856,0,0,0,0-3.712h-8.7a.641.641,0,0,1-.625-.486l-.571-2.287a3.355,3.355,0,0,0-6.51,0l-.572,2.288a.642.642,0,0,1-.624.485H5986.2a.645.645,0,0,1-.64-.563l-1.964-15.72h100.764l-1.964,15.72a.646.646,0,0,1-.641.563h-25.832a.641.641,0,0,1-.624-.486l-.572-2.287a3.355,3.355,0,0,0-6.51,0l-.571,2.288a.641.641,0,0,1-.625.485h-8.7a1.856,1.856,0,1,0,0,3.712h8.7a4.347,4.347,0,0,0,4.226-3.3l.225-.9.227.9a4.344,4.344,0,0,0,4.224,3.3h25.832a4.364,4.364,0,0,0,4.324-3.814l2.02-16.181h4.862a4.359,4.359,0,0,0,4.354-4.355v-3A4.358,4.358,0,0,0,6092.964,1021.173Zm-41.489-38.028c3.179,0,6.451,2.536,9.309,7.176-4.108,3.8-7.393,10.176-9.309,17.225-1.916-7.049-5.2-13.426-9.308-17.225C6045.024,985.681,6048.3,983.145,6051.475,983.145Zm-17.494,7.249c3.7,0,7.607,3.534,10.713,9.7a48.753,48.753,0,0,1,4.925,20.938c0,.048,0,.1,0,.145h-31.27c0-.048,0-.1,0-.145a48.766,48.766,0,0,1,4.924-20.938C6026.374,993.928,6030.279,990.394,6033.981,990.394Zm-26.8-.073c2.858-4.64,6.13-7.176,9.309-7.176s6.45,2.536,9.307,7.176c-4.106,3.8-7.391,10.176-9.307,17.225C6014.571,1000.5,6011.286,994.12,6007.178,990.321Zm86.429,38.2a.644.644,0,0,1-.643.643H5975a.643.643,0,0,1-.643-.643v-3a.644.644,0,0,1,.643-.643h95.584a1.856,1.856,0,1,0,0-3.711h-17.246c0-.048-.006-.1-.006-.145a48.74,48.74,0,0,1,4.927-20.938c3.1-6.162,7.011-9.7,10.713-9.7s7.608,3.534,10.714,9.7a48.76,48.76,0,0,1,4.925,20.938c0,.048,0,.1,0,.145h-5.338a1.856,1.856,0,0,0,0,3.711h13.7a.644.644,0,0,1,.643.643Z" transform="translate(-5970.644 -979.434)"/></svg>