<svg xmlns="http://www.w3.org/2000/svg" width="100.235" height="103.706" viewBox="0 0 100.235 103.706"><g transform="translate(-1270.946 -2214.117)" style="isolation:isolate"><path d="M1311.949,2238.315h-4.17a15.45,15.45,0,0,0-11,4.556l-20.149,20.148a1.728,1.728,0,0,0,0,2.445l8.642,8.642a1.728,1.728,0,0,0,2.444,0l16.062-16.063v18.005l-13.732,39.478a1.728,1.728,0,0,0,1.633,2.3h15.556a1.73,1.73,0,0,0,1.633-1.16l12.292-35.335,13.848,35.4a1.729,1.729,0,0,0,1.611,1.1h15.556a1.729,1.729,0,0,0,1.61-2.359l-15.438-39.45v-17.971l16.063,16.063a1.728,1.728,0,0,0,2.444,0l8.642-8.642a1.73,1.73,0,0,0,0-2.445l-20.149-20.148a15.448,15.448,0,0,0-11-4.556h-4.17a13.828,13.828,0,1,0-18.23,0Zm22.4,3.457a12.015,12.015,0,0,1,8.554,3.543l18.928,18.927-6.2,6.2-17.791-17.791a1.729,1.729,0,0,0-2.951,1.222v22.47a1.768,1.768,0,0,0,.118.63l14.635,37.4H1337.8l-15.126-38.656a1.732,1.732,0,0,0-1.61-1.1h-.034a1.73,1.73,0,0,0-1.6,1.16l-13.425,38.594h-11.9l13.03-37.457a1.723,1.723,0,0,0,.095-.568v-22.47a1.728,1.728,0,0,0-2.95-1.222l-17.791,17.791-6.2-6.2,18.927-18.927a12.017,12.017,0,0,1,8.555-3.543Zm-13.285-24.2a10.37,10.37,0,1,1-10.371,10.37,10.381,10.381,0,0,1,10.371-10.37Zm0,0"/><path d="M1319.873,2267.225a1.735,1.735,0,0,0,2.381,0l7.411-7.036a5.565,5.565,0,0,0,0-8.136,6.114,6.114,0,0,0-8.31,0l0,0-.291.276-.294-.278a6.111,6.111,0,0,0-8.308,0,5.564,5.564,0,0,0,0,8.136Zm-5.033-12.663a2.611,2.611,0,0,1,3.551,0l1.482,1.407a1.729,1.729,0,0,0,2.38,0l1.482-1.407a2.614,2.614,0,0,1,3.554,0,2.108,2.108,0,0,1,0,3.119l-6.224,5.907-6.225-5.907a2.108,2.108,0,0,1,0-3.119Zm0,0"/><path d="M1356.893,2230.931c-.845-.865-1.726-1.7-2.616-2.488l-2.289,2.59c.828.73,1.647,1.51,2.438,2.316Zm0,0"/><path d="M1358.769,2238.477l2.792-2.04c-.712-.971-1.462-1.924-2.235-2.836l-2.637,2.235c.719.848,1.421,1.737,2.08,2.641Zm0,0"/><path d="M1345.461,2222.189c-1.05-.587-2.132-1.141-3.216-1.646l-1.461,3.133c1.008.47,2.016.985,2.993,1.532Zm0,0"/><path d="M1362.334,2244.171l3.055-1.618c-.564-1.064-1.17-2.116-1.805-3.128l-2.93,1.835c.59.942,1.156,1.922,1.68,2.911Zm0,0"/><path d="M1367.664,2263.458l3.454-.183c-.066-1.206-.172-2.415-.321-3.6l-3.43.431c.139,1.1.239,2.226.3,3.349Zm0,0"/><path d="M1365.039,2250.319l3.259-1.161c-.4-1.13-.853-2.258-1.338-3.357l-3.163,1.4c.451,1.019.869,2.07,1.242,3.121Zm0,0"/><path d="M1366.2,2287.787l-3.109-1.507c-.484,1-1.014,2-1.575,2.97l3,1.726c.6-1.044,1.171-2.117,1.689-3.189Zm0,0"/><path d="M1368.864,2281.086l-3.3-1.042c-.339,1.07-.717,2.135-1.126,3.162l3.209,1.28c.441-1.1.85-2.25,1.212-3.4Zm0,0"/><path d="M1362.593,2294.035l-2.863-1.938c-.623.918-1.289,1.831-1.984,2.713l2.714,2.14c.748-.947,1.465-1.928,2.133-2.915Zm0,0"/><path d="M1353.219,2299.778l2.383,2.5c.867-.824,1.715-1.691,2.525-2.579l-2.555-2.329c-.753.827-1.544,1.636-2.353,2.4Zm0,0"/><path d="M1366.83,2256.791l3.39-.675c-.234-1.183-.517-2.366-.834-3.516l-3.332.924c.3,1.067.557,2.166.776,3.267Zm0,0"/><path d="M1370.537,2274.067l-3.413-.554c-.179,1.1-.4,2.209-.656,3.293l3.362.8c.276-1.163.515-2.354.707-3.537Zm0,0"/><path d="M1371.181,2266.881l-3.457-.059c-.019,1.116-.08,2.245-.18,3.354l3.444.309c.106-1.192.172-2.4.193-3.6Zm0,0"/><path d="M1351.492,2226.149c-.946-.723-1.936-1.427-2.943-2.088l-1.9,2.888c.939.617,1.86,1.272,2.742,1.945Zm0,0"/><path d="M1274.578,2270.12c-.1-1.1-.156-2.234-.176-3.359l-3.456.058c.022,1.208.084,2.42.189,3.6Zm0,0"/><path d="M1274.767,2260.051l-3.43-.436c-.148,1.181-.259,2.389-.324,3.595l3.45.19c.063-1.124.165-2.251.3-3.349Zm0,0"/><path d="M1276.091,2253.465l-3.333-.923c-.317,1.145-.6,2.327-.838,3.51l3.39.684c.222-1.1.484-2.2.781-3.271Zm0,0"/><path d="M1301.4,2223.651l-1.458-3.134c-1.091.507-2.172,1.058-3.217,1.641l1.682,3.019c.972-.54,1.979-1.053,2.993-1.526Zm0,0"/><path d="M1281.506,2241.209l-2.931-1.836c-.636,1.017-1.245,2.067-1.806,3.124l3.052,1.622c.523-.984,1.09-1.962,1.685-2.91Zm0,0"/><path d="M1278.352,2247.142l-3.163-1.4c-.489,1.112-.941,2.239-1.337,3.354l3.255,1.161c.37-1.034.788-2.084,1.245-3.119Zm0,0"/><path d="M1290.184,2230.994l-2.29-2.592c-.905.8-1.784,1.635-2.618,2.485l2.468,2.42c.776-.79,1.6-1.569,2.44-2.313Zm0,0"/><path d="M1288.882,2299.754c-.82-.783-1.611-1.592-2.35-2.4l-2.559,2.324c.795.875,1.642,1.742,2.522,2.582Zm0,0"/><path d="M1285.475,2235.792l-2.633-2.24c-.778.913-1.53,1.867-2.238,2.834l2.788,2.043c.659-.9,1.359-1.786,2.083-2.637Zm0,0"/><path d="M1277.668,2283.164c-.412-1.038-.791-2.1-1.125-3.167l-3.3,1.039c.361,1.143.767,2.287,1.211,3.4Zm0,0"/><path d="M1295.528,2226.919l-1.894-2.893c-1,.651-1.987,1.354-2.947,2.084l2.1,2.75c.893-.682,1.816-1.336,2.745-1.941Zm0,0"/><path d="M1271.581,2274.007c.188,1.179.426,2.372.7,3.544l3.362-.8c-.259-1.092-.479-2.2-.655-3.3Zm0,0"/><path d="M1280.594,2289.214c-.554-.962-1.083-1.961-1.571-2.973l-3.112,1.508c.526,1.084,1.093,2.158,1.689,3.191Zm0,0"/><path d="M1284.357,2294.778c-.685-.87-1.353-1.782-1.982-2.713l-2.862,1.937c.675,1,1.392,1.982,2.13,2.917Zm0,0"/><path d="M1322.864,2316.062c1.2-.044,2.416-.131,3.6-.262l-.379-3.437c-1.1.122-2.231.2-3.351.243Zm0,0"/><path d="M1319.251,2316.063l.128-3.455c-1.112-.041-2.241-.123-3.354-.245l-.375,3.437c1.195.131,2.407.218,3.6.263Zm0,0"/></g></svg>