<svg xmlns="http://www.w3.org/2000/svg" width="272.066" height="269.419" viewBox="0 0 272.066 269.419"><g transform="translate(-7212.095 -7355.606)"><path d="M7422,7504.712a3.985,3.985,0,1,0-5.637-5.635,6.542,6.542,0,0,1-9.25,0,3.985,3.985,0,1,0-5.637,5.635,14.512,14.512,0,0,0,20.524,0Z"/><path d="M7401.1,7478.185a10.568,10.568,0,0,0-14.544,0,3.985,3.985,0,0,0,5.532,5.737,2.559,2.559,0,0,1,3.476,0,3.986,3.986,0,0,0,5.536-5.737Z"/><path d="M7427.915,7483.922a2.568,2.568,0,0,1,3.492,0,3.984,3.984,0,1,0,5.533-5.734,10.575,10.575,0,0,0-14.558,0,3.984,3.984,0,1,0,5.533,5.734Z"/><path d="M7336.938,7560.537a3.984,3.984,0,0,0,3.985-3.985v-2.535a3.985,3.985,0,0,0-7.97,0v2.535A3.984,3.984,0,0,0,7336.938,7560.537Z"/><path d="M7359.516,7560.537a3.984,3.984,0,0,0,3.985-3.985v-2.535a3.985,3.985,0,0,0-7.97,0v2.535A3.983,3.983,0,0,0,7359.516,7560.537Z"/><path d="M7484.047,7597.919l-4.766-36.875a36.044,36.044,0,0,0-5.272-15.144,3.985,3.985,0,1,0-6.695,4.325,27.816,27.816,0,0,1,4.06,11.838l4.661,36.058h-27.111v-16.932a3.985,3.985,0,0,0-7.971,0v16.932h-50.681c-4.187-6.55-11.627-9.305-18.318-11.2-.053-.016-.106-.033-.152-.044-1.046-.3-2.079-.567-3.067-.833-.642-.171-1.276-.34-1.893-.51-.722-.2-1.323-1.175-1.8-2.205,9.714-6.681,16.924-18.033,16.924-27.95V7546.4a46,46,0,0,0-1.141-10.415c1.3-.363,4.772-1.286,5.2-1.4l18.177,12.316c1.91,1.415,4.458,2.992,7.531,2.981,3.05.039,5.621-1.566,7.531-2.981l18.183-12.321c.354.1.722.2,1.082.294,5.527,1.466,11.245,2.98,16.334,5.308a3.987,3.987,0,0,0,3.313-7.254,109.5,109.5,0,0,0-17.6-5.759c-.933-.253-1.866-.51-2.795-.762-2.154-.589-3.457-3.3-4.354-5.59,14.289-9.261,25.055-25.72,25.055-40.02v-31.221c0-16.035-12.13-30.526-30.906-36.917a51.367,51.367,0,0,0-23.458-2.5c-7.577,1.113-13.8,4.241-18.1,9.087-8.791,1.378-21.562,8.186-21.125,36.161,0,.268,0,25.392,0,25.392,0,14.295,10.808,30.762,25.146,40.028-.9,2.3-2.2,4.993-4.353,5.582-.1.028-.2.064-.3.1-.892.241-5.635,1.5-7.138,1.924a33.476,33.476,0,0,0-6.626-9.513,32.932,32.932,0,0,0-22.946-9.65h-.127a32.961,32.961,0,0,0-22.955,9.65,33.76,33.76,0,0,0-7.381,11.292c-3.182-1.079-10.845-3.172-10.845-3.172-2.184-.6-3.485-3.418-4.379-5.729,10.633-8.092,18.321-20.787,18.321-31.94v-10.935a3.989,3.989,0,0,0-3.709-3.98c-5.866-.409-8.07-2.668-10.409-5.053-2.551-2.6-6.041-6.169-13.167-4.326-1.86.479-3.444.9-4.808,1.265-3.98,1.062-5.978,1.594-7.63,1.594s-3.656-.532-7.638-1.594c-1.365-.368-2.943-.786-4.8-1.265-7.143-1.838-10.633,1.727-13.184,4.331-2.336,2.386-4.542,4.639-10.4,5.048a3.983,3.983,0,0,0-3.7,3.98v10.935c0,11.148,7.682,23.848,18.316,31.94-.889,2.317-2.189,5.134-4.379,5.729l-1.115.308c-9.13,2.482-18.98,5.164-26.165,12.152-1.721-.559-7.536-1.818-8.1-1.957a20.091,20.091,0,0,1,1.56-2.651c8.879-13.107,12.5-32.146,12.5-65.719,0-17.7,7.614-29.5,15-30.681.111-.015.222-.031.329-.048a6.114,6.114,0,0,0,5.01-3.182c4.862-9.357,18.789-14.586,33.875-12.72,15.116,1.871,33.095,11.535,38.195,33.05a80.276,80.276,0,0,1,1.8,13.587,275.65,275.65,0,0,0,1.3,29.826,3.986,3.986,0,0,0,7.924-.872,269.032,269.032,0,0,1-1.248-29.076c0-.081-.006-.164-.011-.244a87.726,87.726,0,0,0-2-15.047c-6.047-25.5-27.194-36.937-44.976-39.137-18.119-2.241-34.576,4.16-41.392,15.984l-.08.016c-12.574,2.009-21.69,18.222-21.69,38.544,0,31.836-3.227,49.579-11.128,61.247-2.2,3.246-4.254,7.035-2.809,10.547,1.422,3.465,5.111,4.193,8.075,4.772l.571.116c.727.143,1.411.293,2.064.453a40.686,40.686,0,0,0-4.716,15.083l-4.711,36.558a7.344,7.344,0,0,0,1.384,6c1.879,2.147,4.777,2.147,5.87,2.147h82.879a29.629,29.629,0,0,0-.376,4.818v7.758a6.362,6.362,0,0,0,6.354,6.357h77.277a6.363,6.363,0,0,0,6.354-6.357v-7.758a28.983,28.983,0,0,0-.377-4.818h83.526c1.872,0,4.229-.247,5.9-2.153A7.365,7.365,0,0,0,7484.047,7597.919Zm-69.317-57.569c-.047.034-.094.064-.144.1-1.625,1.2-2.416,1.461-2.8,1.461h-.052c-.022,0-.036.006-.052,0-.377,0-1.168-.257-2.8-1.461a1.5,1.5,0,0,0-.143-.1l-14.952-10.135a20.761,20.761,0,0,0,3.3-5.568c.842.371,1.689.725,2.544,1.044a31.563,31.563,0,0,0,24.194,0c.858-.319,1.705-.673,2.549-1.047a20.84,20.84,0,0,0,3.3,5.571Zm-26.3-113.377a3.987,3.987,0,0,0,2.806-1.536c4.265-5.541,11.435-7.755,19.038-7.755a46.539,46.539,0,0,1,14.744,2.525c11.764,4,25.5,14.1,25.5,29.369v16.39h-3.8c-6.357,0-10.326-3.726-15.352-8.438-6.063-5.688-12.935-12.133-25.213-12.133H7392.6c-10.788,0-12.565,8.676-13.741,14.416-1.249,6.1-2.117,8.615-5.992,9.169,0,0,0-13.382-.009-13.7C7372.671,7443.011,7375.216,7428.144,7388.427,7426.973ZM7372.87,7480.8v-3.816c10.8-.939,12.592-9.679,13.8-15.574,1.335-6.52,2.04-8.042,5.932-8.042h13.55c9.127,0,14.292,4.843,19.761,9.975,5.294,4.965,11.3,10.594,20.806,10.594h3.8v6.863c0,14.112-13.764,31.6-29.458,37.421a23.693,23.693,0,0,1-18.646,0C7386.674,7512.379,7372.87,7494.893,7372.87,7480.8Zm-48.01,54.508a24.556,24.556,0,0,1,45.66-4.473,29.656,29.656,0,0,1,2.663,7.509q.311,1.423.5,2.959a10.655,10.655,0,0,1-2.789-2.1c-.238-.236-.477-.473-.723-.726-1.71-1.74-3.9-3.979-7.677-4.176a15.55,15.55,0,0,0-4.9.667c-1.594.427-3.18.892-4.779,1.31a13.666,13.666,0,0,1-5.214.71,63,63,0,0,1-7.487-1.848c-2.646-.7-5.3-1.273-7.968-.338a13.727,13.727,0,0,0-5.1,3.681,12.943,12.943,0,0,1-3.5,2.818A30.3,30.3,0,0,1,7324.86,7535.308Zm-1.627,14.507a18.326,18.326,0,0,0,9.512-5.756c.6-.609,1.295-1.536,2.165-1.766a6.027,6.027,0,0,1,2.822.46c2.4.633,4.786,1.345,7.213,1.851a16.841,16.841,0,0,0,5.925.255,60.823,60.823,0,0,0,6.858-1.639l2.134-.564a9.107,9.107,0,0,1,1.921-.416c1.146-.036,1.973,1.078,2.695,1.819a18.387,18.387,0,0,0,9.521,5.754v5.571c0,9.07-9.255,20.765-19.425,24.532a17.933,17.933,0,0,1-4.932,1.179,15.77,15.77,0,0,1-7-1.185c-.283-.1-.559-.213-.842-.329-9.82-4.077-18.565-15.371-18.565-24.2Zm38.27,41.786-10.929,6.418c-.05.033-.1.061-.15.092,0,0-.01,0-.016.01-1.758,1.138-1.832,1.138-3.623-.016a1.047,1.047,0,0,1-.138-.086l-6.717-3.941-4.216-2.471a12.779,12.779,0,0,0,3.477-4.49c.224.089.446.186.676.272.3.11.594.215.885.318a24.017,24.017,0,0,0,7.854,1.411h.006a24.807,24.807,0,0,0,8.738-1.729c.226-.086.45-.183.677-.272A12.768,12.768,0,0,0,7361.5,7591.6Zm-111.666-102.235V7481.9a21.482,21.482,0,0,0,11.823-6.925c2.28-2.328,2.825-2.881,5.5-2.183,1.834.467,3.39.883,4.74,1.242,4.506,1.2,6.988,1.866,9.687,1.866s5.18-.664,9.687-1.866c1.344-.359,2.9-.775,4.74-1.248,2.668-.686,3.208-.139,5.482,2.189a21.569,21.569,0,0,0,11.846,6.925v7.464c0,11.546-11.308,25.877-24.194,30.665a19.249,19.249,0,0,1-15.138.005C7261.134,7515.243,7249.837,7500.912,7249.837,7489.366Zm49.443,41.472-14.8,10.025c-.046.03-.094.068-.144.1-2.565,1.913-2.928,1.913-5.493,0-.047-.031-.1-.069-.15-.1l-14.793-10.025a20.222,20.222,0,0,0,3.119-5.2,38.513,38.513,0,0,0,4.221,1.872,27.17,27.17,0,0,0,20.685,0,40.58,40.58,0,0,0,4.231-1.872A20.136,20.136,0,0,0,7299.28,7530.838Zm7.68,67.283h-53.78v-16.935a3.986,3.986,0,0,0-7.971,0v16.935h-23.334l4.6-35.718c.883-6.839,2.917-11.713,5.84-15.341a3.765,3.765,0,0,0,.589-.686c5.446-6.216,13.7-8.572,23.226-11.168l18.025,12.205c2.674,1.976,5.053,2.959,7.434,2.959s4.761-.983,7.434-2.959l18.02-12.205c3.121.855,6.119,1.683,8.972,2.665a47.591,47.591,0,0,0-.753,8.525v8.986c0,9.919,7.2,21.269,16.907,27.95-.473,1.03-1.068,2-1.785,2.205-.634.17-1.27.339-1.912.515-.988.261-2,.532-3.044.822-.067.023-.134.039-.2.061C7318.553,7588.828,7311.142,7591.59,7306.96,7598.121Zm78.674,18.933h-74.047v-6.144c0-9.708,5.3-13.082,14.289-15.839l14.8,8.693a6.12,6.12,0,0,0,3.611,2.084,9.768,9.768,0,0,0,4.326,1.1,9.378,9.378,0,0,0,3.783-.855,15.526,15.526,0,0,0,2.276-1.237l11.466-6.734,5.214-3.061a35.676,35.676,0,0,1,7.583,3.061,12.17,12.17,0,0,1,6.169,7.971,20.272,20.272,0,0,1,.526,4.818Z"/><path d="M7274.272,7510.818a11.159,11.159,0,0,0,7.946,3.3h.013a11.128,11.128,0,0,0,7.927-3.3,3.986,3.986,0,0,0-5.655-5.618,3.191,3.191,0,0,1-2.283.952h0a3.236,3.236,0,0,1-2.306-.958,3.986,3.986,0,1,0-5.64,5.633Z"/><path d="M7263.675,7490.667a2.22,2.22,0,0,1,3.027,0,3.986,3.986,0,0,0,5.549-5.724,10.228,10.228,0,0,0-14.123,0,3.985,3.985,0,0,0,5.547,5.724Z"/><path d="M7297.735,7490.667a2.2,2.2,0,0,1,3.006-.009,3.985,3.985,0,0,0,5.563-5.706,10.2,10.2,0,0,0-14.115-.009,3.985,3.985,0,0,0,5.546,5.724Z"/><path d="M7311.136,7397.659l27.222,27.006a4.566,4.566,0,0,0,.351.307l.308.241a6.7,6.7,0,0,0,4.1,1.88c.039,0,.075,0,.114,0s.077,0,.118,0a6.692,6.692,0,0,0,4.08-1.874l.313-.247a3.891,3.891,0,0,0,.348-.307l27.225-27.006c.022-.023.042-.042.061-.064a26.074,26.074,0,0,0,0-35.887c-8.181-8.474-21.936-8.068-32.145.88-10.227-8.945-23.985-9.349-32.163-.878a26.072,26.072,0,0,0,0,35.885C7311.094,7397.617,7311.114,7397.636,7311.136,7397.659Zm5.674-30.416c5.942-6.155,15.47-3.789,21.41,1.55.4.363.722.673.99.927a5.677,5.677,0,0,0,4.025,2.056,5.548,5.548,0,0,0,3.963-2c.274-.261.612-.581,1.043-.972,5.939-5.35,15.46-7.713,21.4-1.561a18.036,18.036,0,0,1,.03,24.792l-26.447,26.235-26.444-26.235A18.034,18.034,0,0,1,7316.81,7367.243Z"/></g></svg>