<svg xmlns="http://www.w3.org/2000/svg" width="60.002" height="59.985" viewBox="0 0 60.002 59.985"><g transform="translate(-3772.754 -529.769)"><path d="M3832.3,554.57a29.914,29.914,0,0,0-22.581-23.977c-1.514-.346-3.074-.488-4.612-.727-.152-.023-.3-.064-.452-.1h-3.746a3.233,3.233,0,0,1-.449.1,28.479,28.479,0,0,0-10.657,2.872c-1.427.707-2.778,1.574-4.135,2.415a1.1,1.1,0,0,0-.327,1.633,1.172,1.172,0,0,0,1.61.3c.118-.068.228-.149.342-.225a27.317,27.317,0,0,1,20.474-4.292,27.6,27.6,0,1,1-28.243,12.249,6.977,6.977,0,0,0,.459-.746,1.154,1.154,0,0,0-1.9-1.274,3.074,3.074,0,0,0-.308.425c-5.292,8.329-6.452,17.216-3.225,26.527a29.792,29.792,0,0,0,37.4,18.485c11.244-3.78,18.018-11.732,20.356-23.392.214-1.066.3-2.156.45-3.235v-3.746C3832.6,556.766,3832.483,555.663,3832.3,554.57Z" transform="translate(0)"/><path d="M3787.993,579.956c3.274,1.83,6.133.969,8.553-1.747a6.481,6.481,0,0,0,10.5-.026,31.445,31.445,0,0,1,18.039,2.294,6.32,6.32,0,0,0,4.188-5.863c-.036-3.568-1.994-5.666-5.372-6.583a6.5,6.5,0,0,0-5.238-7.668c.39-3.189-.638-5.724-3.552-7.12-3.14-1.506-5.859-.581-8.079,1.994a6.342,6.342,0,0,0-7.373-2.294c-3.344,1.314-4.615,3.906-4.244,7.368q-5.877,1.713-5.268,7.765c-3.1.811-4.995,2.767-5.29,5.682A5.977,5.977,0,0,0,3787.993,579.956Zm13.762-1.411a4.094,4.094,0,1,1,4.123-4.074A4.117,4.117,0,0,1,3801.754,578.544Zm10.549,0a4.094,4.094,0,1,1,4.11-4.086A4.117,4.117,0,0,1,3812.3,578.544Zm10.533-8.188a4.094,4.094,0,1,1-4.078,4.107A4.094,4.094,0,0,1,3822.836,570.356Zm-2.9-6.985a4.079,4.079,0,0,1,1.611,4.373c-.05.18-.2.431-.346.473a3.807,3.807,0,0,1-7.156.018.771.771,0,0,1-.412-.479,4.088,4.088,0,0,1,6.3-4.385Zm-10.012-7.688a4.088,4.088,0,0,1,6.334,4.408.72.72,0,0,1-.4.423,3.807,3.807,0,0,1-7.157-.018.669.669,0,0,1-.333-.419A4.076,4.076,0,0,1,3809.923,555.683Zm-.466,7.734a4.056,4.056,0,0,1,1.53,4.4.724.724,0,0,1-.4.423,3.808,3.808,0,0,1-7.157-.02c-.141-.038-.281-.258-.332-.421a4.089,4.089,0,0,1,6.356-4.38Zm-10.054-7.748a4.09,4.09,0,0,1,6.328,4.389.718.718,0,0,1-.374.447,3.808,3.808,0,0,1-7.157,0,.72.72,0,0,1-.373-.449A4.073,4.073,0,0,1,3799.4,555.669Zm-5.239,7.7a4.091,4.091,0,0,1,6.287,4.447.723.723,0,0,1-.4.423,3.809,3.809,0,0,1-7.158-.02.675.675,0,0,1-.332-.421A4.09,4.09,0,0,1,3794.165,563.369Zm-2.923,6.987a4.094,4.094,0,1,1-4.095,4.091A4.094,4.094,0,0,1,3791.242,570.356Z" transform="translate(-4.267 -8.048)"/><path d="M3786.876,545.373a1.161,1.161,0,0,0,1.144-1.166,1.2,1.2,0,0,0-1.17-1.155,1.175,1.175,0,0,0-1.159,1.212A1.134,1.134,0,0,0,3786.876,545.373Z" transform="translate(-4.576 -4.699)"/></g></svg>