<svg xmlns="http://www.w3.org/2000/svg" width="60" height="59.983" viewBox="0 0 60 59.983"><g transform="translate(-6296.549 -8625.404)"><path d="M6355.992,8649.686a30.031,30.031,0,0,0-24.273-23.823c-1.092-.189-2.195-.307-3.293-.458h-3.633c-1.368.194-2.749.329-4.1.591a29.956,29.956,0,0,0-23.683,24.244c-.187,1.093-.307,2.2-.458,3.293v3.75a4.165,4.165,0,0,1,.1.51,28.853,28.853,0,0,0,1.707,7.864,30,30,0,0,0,57.636-15.971Zm-28.875,33.709a28,28,0,1,1,27.432-28.534A27.915,27.915,0,0,1,6327.118,8683.395Z"/><path d="M6345.121,8640.862q-9.994,10.012-20,20.011l-13.089,13.09c-1.268,1.268-1.2,2.481.229,3.53a25.514,25.514,0,0,0,19.612,4.906,25.992,25.992,0,0,0,22.026-25.721c-.04-.663-.07-1.325-.123-1.987a25.745,25.745,0,0,0-5.364-13.88,1.952,1.952,0,0,0-1.5-.8A2.319,2.319,0,0,0,6345.121,8640.862Zm-7.522,10.506c2.439,3.267,4.49,6.714,4.242,11.1a14.056,14.056,0,0,1-10.807,12.87,13.615,13.615,0,0,1-12.729-3.443c-.231-.209-.488-.39-.721-.574Zm7.995,21.518a23.822,23.822,0,0,1-32.343,2.793l2.943-2.934c.918.738,1.822,1.577,2.833,2.262a15.975,15.975,0,0,0,24.428-9.727,15.4,15.4,0,0,0-1.9-11.6c-.774-1.308-1.652-2.554-2.45-3.777l7.74-7.723C6352.916,8649.335,6354.623,8662.984,6345.594,8672.886Z" transform="translate(-1.313 -1.315)"/><path d="M6343.075,8638.255a1.962,1.962,0,0,0-.254-3.023c-7.922-5.814-16.546-7.112-25.672-3.485-10.109,4.018-16.3,13.6-16.207,24.688a25.541,25.541,0,0,0,5.485,15.259,2.526,2.526,0,0,0,1.371.773,2.1,2.1,0,0,0,1.937-.861q16.521-16.535,33.053-33.059C6342.885,8638.451,6342.984,8638.355,6343.075,8638.255Zm-29.589,26.577c-.159-.946-.374-1.912-.478-2.891a13.15,13.15,0,0,1,2.293-8.659c1.659-2.568,3.537-4.994,5.311-7.489q2.968-4.17,5.918-8.354c.123-.174.233-.357.354-.543l5.9,8.657Zm20.773-20.765c-.974-1.377-2.01-2.79-2.992-4.241-.908-1.342-1.744-2.729-2.635-4.083a1.935,1.935,0,0,0-3.328-.044c-2.782,4.541-6.172,8.638-9.333,12.9a28.6,28.6,0,0,0-4.175,7.354,14.678,14.678,0,0,0,.05,9.981.814.814,0,0,1-.237,1.008c-1.071,1.027-2.106,2.092-3.158,3.142-.135.134-.277.261-.418.393a23.938,23.938,0,0,1,33.51-33.669Z" transform="translate(-0.395 -0.389)"/><path d="M6330,8674.763a11,11,0,0,0,9.55-6.763,10.379,10.379,0,0,0,.874-4.088,1,1,0,1,0-1.991-.07c0,.078,0,.156-.008.234a9.048,9.048,0,0,1-8.583,8.671c-1,.059-1.45.409-1.4,1.1S6328.979,8674.808,6330,8674.763Z" transform="translate(-2.871 -3.364)"/></g></svg>