<svg xmlns="http://www.w3.org/2000/svg" width="87.839" height="89.609" viewBox="0 0 87.839 89.609"><g transform="translate(-6115.988 -7078.658)" style="isolation:isolate"><path d="M6174.273,7104.015a1.537,1.537,0,1,0-1.536-1.536A1.536,1.536,0,0,0,6174.273,7104.015Z"/><path d="M6181.483,7087.581a4.72,4.72,0,0,0,2.23.563,4.776,4.776,0,0,0,1.381-.206,4.741,4.741,0,1,0-3.611-.357Zm.767-4.967A1.667,1.667,0,1,1,6184.2,7085a1.667,1.667,0,0,1-1.953-2.382Z"/><path d="M6188.1,7102.479a1.537,1.537,0,0,0,3.073,0V7099.4a1.537,1.537,0,0,0-3.073,0Z"/><path d="M6189.641,7113.237a1.536,1.536,0,0,0,1.537-1.537v-3.073a1.537,1.537,0,1,0-3.073,0v3.073A1.536,1.536,0,0,0,6189.641,7113.237Z"/><path d="M6186.568,7104.015H6183.5a1.537,1.537,0,1,0,0,3.074h3.073a1.537,1.537,0,1,0,0-3.074Z"/><path d="M6192.715,7107.089h3.074a1.537,1.537,0,1,0,0-3.074h-3.074a1.537,1.537,0,0,0,0,3.074Z"/><path d="M6203.352,7123.159l-5.025-4.806a1.542,1.542,0,0,0-2.411.371c-.16.29-4.074,7.1-15.993,8.289-15.338,1.525-15.2,15.858-15.193,16,0,.1.137,10.1-5.524,14.064a1.537,1.537,0,0,0,1.762,2.518c7.016-4.906,6.846-16.171,6.835-16.649s-.115-11.63,12.424-12.876c10.073-1,15.2-5.728,17.263-8.266l2.489,2.38c-5.56,5.325-5.413,15.032-5.4,15.473.011.475.116,11.629-12.424,12.877-13.632,1.354-18.2,9.53-18.39,9.878a1.537,1.537,0,0,0,2.7,1.469c.16-.289,4.074-7.1,15.993-8.289,15.34-1.526,15.2-15.858,15.194-16,0-.1-.138-10.1,5.523-14.062a1.536,1.536,0,0,0,.18-2.37Z"/><path d="M6178.63,7149.329a13.92,13.92,0,0,0,12.587-13.161,1.016,1.016,0,0,0-1.748-.716l-11.632,12.163A1.016,1.016,0,0,0,6178.63,7149.329Z"/><path d="M6172.3,7119.547a1.537,1.537,0,0,0-1.913-2.407c-.778.619-19.1,15.309-20.135,28.824-.96,12.494-12.126,12.705-12.595,12.709-.443,0-10.151.07-15.349,5.748l-2.436-2.436c2.492-2.121,7.1-7.35,7.878-17.443.96-12.494,12.125-12.706,12.6-12.709a1.531,1.531,0,0,0,.178-.01c.4-.046,9.86-1.214,15.608-6.959L6167,7114l-2.173-2.173-10.868,10.867c-4.768,4.766-12.963,5.969-13.735,6.072-1.409.052-14.413.937-15.537,15.543-.919,11.942-7.644,16.008-7.921,16.171a1.536,1.536,0,0,0-.325,2.422l4.917,4.917a1.539,1.539,0,0,0,1.087.451,1.429,1.429,0,0,0,.151-.008,1.533,1.533,0,0,0,1.128-.677c3.832-5.747,13.836-5.836,13.936-5.836.144,0,14.477-.177,15.659-15.546C6154.252,7134.021,6172.119,7119.691,6172.3,7119.547Z"/><path d="M6184.331,7133.836A13.919,13.919,0,0,0,6171.744,7147a1.016,1.016,0,0,0,1.748.716l11.632-12.164A1.015,1.015,0,0,0,6184.331,7133.836Z"/><path d="M6120.93,7123.088a1.53,1.53,0,0,0,1.173.593h.04a1.535,1.535,0,0,0,1.163-.534c4.515-5.229,14.453-4.079,14.55-4.066.141.02,14.388,1.617,17.462-13.489,2.391-11.735,9.568-14.938,9.863-15.065a1.537,1.537,0,1,0-1.179-2.839c-.365.153-8.962,3.868-11.695,17.291-2.5,12.282-13.606,11.109-14.07,11.052-.442-.055-10.078-1.186-15.943,3.8l-2.116-2.718c2.735-1.8,7.958-6.415,9.977-16.335,2.5-12.28,13.608-11.108,14.07-11.052s11.664,1.371,17.258-5.108a1.536,1.536,0,1,0-2.326-2.008c-4.517,5.23-14.455,4.078-14.551,4.066-.142-.02-14.387-1.616-17.461,13.488-2.391,11.737-9.568,14.94-9.863,15.066a1.538,1.538,0,0,0-.624,2.364Z"/><path d="M6135.1,7112.338a13.918,13.918,0,0,0,14.371-11.185,1.015,1.015,0,0,0-1.625-.962l-13.281,10.335A1.016,1.016,0,0,0,6135.1,7112.338Z"/><path d="M6148.389,7095.877a1.016,1.016,0,0,0-.534-1.812,13.921,13.921,0,0,0-14.372,11.185,1.015,1.015,0,0,0,1.625.962Z"/><path d="M6144.665,7136.844a1.017,1.017,0,0,0-.754-1.732,13.921,13.921,0,0,0-12.878,12.878,1.016,1.016,0,0,0,1.732.754Z"/><path d="M6133.519,7154.823a13.92,13.92,0,0,0,12.876-12.877,1.015,1.015,0,0,0-1.73-.754l-11.9,11.9A1.016,1.016,0,0,0,6133.519,7154.823Z"/></g></svg>