<svg xmlns="http://www.w3.org/2000/svg" width="109.26" height="76.242" viewBox="0 0 109.26 76.242"><g transform="translate(-6492.367 -983.052)" style="isolation:isolate"><path d="M6562.357,1040.9a1.6,1.6,0,0,0,0-3.207,2.928,2.928,0,0,1,0-5.856,1.6,1.6,0,0,0,0-3.207,2.928,2.928,0,0,1,0-5.856,1.6,1.6,0,0,0,0-3.207,2.927,2.927,0,1,1,0-5.855,1.6,1.6,0,0,0,0-3.207,2.928,2.928,0,0,1,0-5.856,1.6,1.6,0,0,0,0-3.207,175.109,175.109,0,0,1-6.135,15.2,6.125,6.125,0,0,1,0,9.063,6.124,6.124,0,0,1,0,9.062A6.142,6.142,0,0,0,6562.357,1040.9Z"/><path d="M6549.479,1036.37a1.6,1.6,0,1,0,0-3.207,2.927,2.927,0,1,1,0-5.855,1.6,1.6,0,1,0,0-3.207,2.928,2.928,0,1,1,0-5.856,1.6,1.6,0,1,0,0-3.207,2.928,2.928,0,1,1,0-5.856,1.6,1.6,0,1,0,0-3.207,174.652,174.652,0,0,1-6.135,15.2,6.124,6.124,0,0,1,0,9.062A6.142,6.142,0,0,0,6549.479,1036.37Z"/><path d="M6536.6,1031.839a1.6,1.6,0,1,0,0-3.207,2.928,2.928,0,1,1,0-5.856,1.6,1.6,0,1,0,0-3.207,2.927,2.927,0,1,1,0-5.855,1.6,1.6,0,1,0,0-3.207,174.456,174.456,0,0,1-6.135,15.2A6.143,6.143,0,0,0,6536.6,1031.839Z"/><path d="M6601.558,1024.788c-.018-.07-.04-.138-.064-.206a2.181,2.181,0,0,0-.947-1.125c-.176-.1-.344-.2-.5-.295a26.258,26.258,0,0,1-2.264-1.475,7.537,7.537,0,0,1,2.5-2.61c.094-.064.192-.127.292-.19h0l.04-.028c.048-.031.094-.062.138-.1.014-.011.026-.023.039-.034.042-.034.084-.068.123-.1l.026-.028a2.17,2.17,0,0,0,.525-2.258,2.09,2.09,0,0,0-.184-.388c-.1-.16-.2-.325-.3-.491l-.059-.095a45.731,45.731,0,0,0-32.272-21.2c-6.053-5.482-16.586-11.7-32.878-11.071a4.341,4.341,0,0,0-3.965,5.673l3.767,11.653a91.154,91.154,0,0,0-11.648,7.5,1.6,1.6,0,0,0,1.929,2.563c6.511-4.9,15.663-10.534,25.566-12.774l.08-.018c.356-.08.713-.154,1.071-.225l.223-.043c.322-.062.644-.121.967-.175.114-.019.228-.037.342-.054.29-.046.58-.091.871-.131.154-.021.307-.039.461-.058.255-.032.51-.064.765-.091.2-.021.4-.036.6-.054s.42-.039.63-.054c.281-.02.561-.033.84-.046.133-.006.266-.016.4-.021q.628-.022,1.25-.023c.331,0,.662,0,.993.009h.007a53.15,53.15,0,0,1,6.775.547h0a47.112,47.112,0,0,1,5.063,1.028c-3.207,6.19-5.022,14.39-5.022,22.874,0,1.785.079,3.579.235,5.331a1.6,1.6,0,0,0,3.194-.284c-.147-1.658-.222-3.356-.222-5.047,0-8.238,1.792-16.143,4.944-21.93a42.582,42.582,0,0,1,21.393,16.422l.125.185c.081.12.161.239.238.357q.14.213.273.421l.083.127c-.138.1-.27.2-.4.3a9.608,9.608,0,0,0-3.079,4.019,2.4,2.4,0,0,0,.414,2.393,2.183,2.183,0,0,0,.243.249c.2.171.424.353.681.545q.849.633,2.14,1.418l-.083.128c-.088.139-.179.279-.273.422q-.116.175-.236.354l-.129.19a42.558,42.558,0,0,1-21.347,16.407,39.077,39.077,0,0,1-3.631-9.8,1.6,1.6,0,0,0-3.123.729,42.934,42.934,0,0,0,3.626,10.016,47.181,47.181,0,0,1-5.223,1.056h-.011a53.187,53.187,0,0,1-6.629.528l-.054,0q-.486.008-.973.008c-.382,0-.765-.008-1.15-.021l-.22-.008c-.392-.015-.786-.035-1.181-.064l-.019,0a50.173,50.173,0,0,1-19.137-5.833l-.051-.022q-3-1.548-6.076-3.494a105.314,105.314,0,0,1-17.486-14.088h0l-.016-.016h0l0-.006a1.349,1.349,0,0,1,0-1.906l.017-.017h0c1.177-1.179,3.08-3.016,5.5-5.113a1.6,1.6,0,1,0-2.1-2.423c-1.888,1.637-3.473,3.122-4.659,4.276a76.331,76.331,0,0,0-9.29-6.212c-5.244-2.859-8.757-3.27-10.74-1.254-1.852,1.882-.608,5.385.488,7.856a42.438,42.438,0,0,0,1.972,3.844,42.44,42.44,0,0,0-1.972,3.844c-1.1,2.471-2.34,5.973-.488,7.856a4.372,4.372,0,0,0,3.27,1.254c1.924,0,4.4-.834,7.47-2.508a76.451,76.451,0,0,0,9.29-6.212,108.312,108.312,0,0,0,17.032,13.537q2.6,1.65,5.168,3.027l-3.736,11.557a4.343,4.343,0,0,0,3.965,5.673q1.156.044,2.271.044c14.923,0,24.724-5.831,30.48-11a45.731,45.731,0,0,0,32.435-21.273l.059-.095c.1-.166.2-.331.3-.491A2.141,2.141,0,0,0,6601.558,1024.788Zm-40.08-31.258c-.076,0-.153,0-.23-.006-.438-.01-.877-.016-1.32-.016-.119,0-.238.005-.357.006-.31,0-.619.006-.931.016-.121,0-.241.013-.361.018-.316.014-.631.028-.948.049-.035,0-.069.006-.1.009a51.916,51.916,0,0,0-18.759,5.332l-3.607-11.156a1.136,1.136,0,0,1,1.038-1.482c.726-.028,1.438-.042,2.14-.042,11.159,0,19.223,3.464,24.737,7.318C6562.346,993.555,6561.913,993.541,6561.478,993.53Zm-65.853,37.164c-.044-.127-.318-1.206,1.242-4.62a40.65,40.65,0,0,1,2.136-4.006,1.6,1.6,0,0,0,0-1.694,40.656,40.656,0,0,1-2.124-3.98c-1.573-3.433-1.3-4.518-1.254-4.646.609-.56,2.765-.41,6.9,1.843a72.87,72.87,0,0,1,8.809,5.891l0,.013c-.033.082-.06.166-.088.249-.019.057-.042.113-.059.171-.026.086-.045.174-.065.261-.013.057-.03.112-.041.169-.018.093-.029.188-.041.282-.007.052-.018.1-.022.155-.012.125-.017.25-.018.375,0,.054,0,.109,0,.163,0,.113.006.227.017.34.005.061.017.122.026.183.011.085.02.17.037.254.013.065.032.129.047.193.019.079.035.158.058.236s.045.13.068.194.05.152.08.226l0,.015C6501.671,1030.354,6496.676,1031.668,6495.625,1030.694Zm40.274,25.351a1.137,1.137,0,0,1-1.038-1.482l3.579-11.068a52.684,52.684,0,0,0,17.6,5.242l.075.008q1.212.117,2.408.162l.263.009c.382.011.764.019,1.144.019.418,0,.832-.006,1.246-.015l.259-.006c.382-.01.763-.022,1.142-.039l.052,0C6556.78,1052.916,6548.083,1056.516,6535.9,1056.045Z"/><path d="M6580.375,1015.223a5.272,5.272,0,1,0-5.272-5.272A5.278,5.278,0,0,0,6580.375,1015.223Zm0-7.336a2.064,2.064,0,1,1-2.065,2.064A2.067,2.067,0,0,1,6580.375,1007.887Z"/></g></svg>