<svg xmlns="http://www.w3.org/2000/svg" width="165.289" height="163.742" viewBox="0 0 165.289 163.742"><g transform="translate(-1535.667 -2197.246)" style="isolation:isolate"><path d="M1649,2341.67l-4.761-36.755a13.452,13.452,0,0,0-4.293-8.186,6.317,6.317,0,0,0-3.38-8.121l-17.3-7.457-.005,0-.017-.008a.1.1,0,0,1-.027-.014l-23.642-9.917,7.272-18.873,8.433-.321a2.4,2.4,0,0,0-.184-4.794l-11.262.43.014-7.72,14.08-.747a2.4,2.4,0,0,0-.254-4.79l-3.141.166c.308-.412.627-.813.963-1.2a9.187,9.187,0,0,1,6.159-3.136,15.239,15.239,0,0,0,14.229,5.465,4.885,4.885,0,0,1,1.477,5.753l-13.876,32.894a2.4,2.4,0,0,0,4.42,1.865l7.673-18.19,6.4,4.239a8.781,8.781,0,0,0,4.865,1.466c.3,0,22.212-.818,22.546-.829a8.318,8.318,0,0,0-.308-16.631h-20.826l-6.073-4.089a9.672,9.672,0,0,0-1.374-8.19c.161-.089.324-.175.484-.271a15.082,15.082,0,0,0,6.9-9.345l2.055-8.269a15.172,15.172,0,1,0-29.448-7.316l-2.053,8.269a15.083,15.083,0,0,0,.431,8.735c-4.753,1.021-8.307,4.9-10.516,9.093l-15.74.834a12.239,12.239,0,0,0-7.81,3.376l-13.947,13.354a8.938,8.938,0,1,0,12.457,12.821l12.67-12.518,5.343-.2-7.35,19.075v0l-10.527,25.8a6.314,6.314,0,0,0,1.365,6.84l9.682,9.766-34.6,13.727v-8.849l20.407-8.483a2.4,2.4,0,0,0-1.841-4.429l-21.461,8.92h-10.824a6.816,6.816,0,0,0-6.806,6.808v13.147a7.7,7.7,0,0,0,13.381,5.187l6.145-6.744,39.725-15.761a6.366,6.366,0,0,0,3.341.469,6.286,6.286,0,0,0,4.67-3.123l4.976-8.668,9.606,6.721a6.278,6.278,0,0,0,6.968.188l5.89,29.95v9.232a8.687,8.687,0,0,0,8.674,8.68h11.271a7.7,7.7,0,0,0,5.184-13.386Zm-3.511-90.618h19.584a3.521,3.521,0,0,1,2.67,5.813,3.479,3.479,0,0,1-2.539,1.227l-21.252.787Zm-4.634-1.3-1.5,7.658-5.881-3.9,2.868-6.8Zm-19.408-39.822a10.378,10.378,0,0,1,12.57-7.575,10.523,10.523,0,0,1,7.321,13.564l-7.6-4.568a5.664,5.664,0,0,0-7.131,1.078l-1.655,1.847a.864.864,0,0,1-1.118.143l-3-1.994Zm-2.055,8.271.207-.834,1.579,1.049a5.689,5.689,0,0,0,7.346-.941l1.654-1.849a.866.866,0,0,1,1.087-.164l8.863,5.327-.6,2.414a10.374,10.374,0,1,1-20.137-5Zm-24.36,29.633-3.865.146a2.407,2.407,0,0,0-1.594.691l-13.332,13.172a4.141,4.141,0,1,1-5.768-5.942l13.948-13.353a7.431,7.431,0,0,1,4.745-2.052l5.879-.31Zm-43.634,82.512-5.893,6.467a2.9,2.9,0,0,1-5.038-1.956V2321.71a2.013,2.013,0,0,1,2.009-2.011h8.922Zm47.374-17.85a1.535,1.535,0,0,1-2.419.314l-11.833-11.937a1.521,1.521,0,0,1-.329-1.65l9.61-23.554,21.05,8.831Zm25.53-5.8a.181.181,0,0,1-.019.02l-2.039,2.106a1.524,1.524,0,0,1-1.979.189l-9.957-6.966,8.99-15.652,15.368,6.623a1.526,1.526,0,0,1,.495,2.464l-.1.106-.04.042Zm4.288,2.469,8.376-8.653a8.619,8.619,0,0,1,2.516,5.022l4.523,34.918h-9.261Zm21.725,47.029h-11.27a3.883,3.883,0,0,1-3.876-3.883v-7.061H1645.8l6.465,5.9a2.9,2.9,0,0,1-1.952,5.046Z"/><path d="M1679.893,2318.862a21.063,21.063,0,1,0,21.063,21.063A21.087,21.087,0,0,0,1679.893,2318.862Zm0,37.329a16.266,16.266,0,1,1,16.266-16.266A16.285,16.285,0,0,1,1679.893,2356.191Z"/></g></svg>