<svg xmlns="http://www.w3.org/2000/svg" width="87.387" height="87.407" viewBox="0 0 87.387 87.407"><g transform="translate(-7049.015 -977.248)" style="isolation:isolate"><path d="M7064.679,1005.58a1.705,1.705,0,0,0,2.178-1.04l.02-.057a1.706,1.706,0,1,0-3.219-1.133l-.019.051A1.708,1.708,0,0,0,7064.679,1005.58Z"/><path d="M7077.43,1056.862a1.708,1.708,0,0,0,1.61-1.138l.019-.057a1.707,1.707,0,1,0-3.22-1.133l-.019.052a1.708,1.708,0,0,0,1.61,2.276Z"/><path d="M7134.056,1039.837a1.708,1.708,0,0,0-1.853,1.548l-.006.074a1.706,1.706,0,0,0,1.537,1.861,1.494,1.494,0,0,0,.164.008,1.708,1.708,0,0,0,1.7-1.545l.009-.094A1.706,1.706,0,0,0,7134.056,1039.837Z"/><path d="M7133.392,1044.976a1.708,1.708,0,0,0-2.149,1.1,21.87,21.87,0,0,1-35.629,9.353,1.8,1.8,0,0,0-.162-.152,21.6,21.6,0,0,1-3.988-5.076c-.016-.03-.033-.061-.052-.09a21.97,21.97,0,0,1-2.058-5.067,21.877,21.877,0,0,1,9.062-23.89,1.762,1.762,0,0,0,.193-.124,21.874,21.874,0,0,1,6.188-2.734c4.122-1.1,7.447-3.988,10.663-6.778,5.291-4.59,8.781-7.261,13.651-4.449,4.813,2.778,4.29,6.778,2.952,13.611-.794,4.062-1.695,8.665-.518,13.059.171.644.316,1.3.429,1.948a1.706,1.706,0,1,0,3.363-.582c-.129-.75-.295-1.507-.5-2.249-.972-3.631-.187-7.641.572-11.52.64-3.262,1.243-6.345.875-9.256a10.253,10.253,0,0,0-5.47-7.969,10.389,10.389,0,0,0-9.827-.688c-2.774,1.182-5.314,3.386-7.77,5.516-2.922,2.536-5.945,5.158-9.308,6.06a25.344,25.344,0,0,0-5.979,2.448q-.415-.455-.845-.885c-3.021-3.021-4.519-7.389-5.966-11.613-1.207-3.519-2.347-6.842-4.318-9.442a11.046,11.046,0,0,0-5.366-3.951c-.046-.68-.115-1.37-.2-2.06a18.5,18.5,0,0,0,9,.541c4.291-.815,7.808-3.134,9.408-6.2a1.707,1.707,0,0,0-.648-2.261,17.8,17.8,0,0,0-12.042-1.895,15.049,15.049,0,0,0-7.012,3.237,27.77,27.77,0,0,0-.93-2.911,4.331,4.331,0,0,0-5.467-2.5c-1.913.709-3.309,2.976-2.117,6.439a40.8,40.8,0,0,1,1.207,7.723c-3.87,1.423-5.873,4.586-7.116,7.122a1.707,1.707,0,0,0,3.067,1.5c1.6-3.274,3.452-5.049,6.066-5.688a1.782,1.782,0,0,0,.253-.057,10.844,10.844,0,0,1,2.266-.221c6.377,0,8.23,4.458,10.723,11.732,1.5,4.378,3.2,9.34,6.782,12.92.126.126.25.254.374.383a25.311,25.311,0,0,0-7.15,31.415,9.82,9.82,0,0,1-5.665,2.445,1.707,1.707,0,0,0,.052,3.413h.054a13.16,13.16,0,0,0,7.322-2.877,24.718,24.718,0,0,0,2.148,2.692,24.757,24.757,0,0,1-32.145-37.47,24.88,24.88,0,0,0,5.187-8.786,1.707,1.707,0,0,0-3.188-1.222,21.757,21.757,0,0,1-4.413,7.594,28.169,28.169,0,0,0,18.893,48.069q.518.02,1.035.019a28.049,28.049,0,0,0,17.141-5.82,25.577,25.577,0,0,0,3.5,2.432,25.105,25.105,0,0,0,12.585,3.393,25.318,25.318,0,0,0,24.084-17.531A1.706,1.706,0,0,0,7133.392,1044.976Zm-45.8-61.941a14.841,14.841,0,0,1,7.98.667,11.1,11.1,0,0,1-5.972,2.981,14.849,14.849,0,0,1-7.979-.667A11.088,11.088,0,0,1,7087.59,983.035Zm-10.419,7.875c-.4,0-.791.016-1.167.045a41.835,41.835,0,0,0-1.348-8.122c-.378-1.1-.346-1.972.076-2.128a.917.917,0,0,1,1.107.566,36.371,36.371,0,0,1,1.539,5.7l.009.041c.245,1.257.452,2.594.577,3.921C7077.7,990.917,7077.44,990.91,7077.171,990.91Z"/><path d="M7119.3,1024.067a1.714,1.714,0,0,0-1.295-.171l-10.636,2.85a12.718,12.718,0,1,0,15.575,8.992l-2.849-10.634A1.711,1.711,0,0,0,7119.3,1024.067Zm-.583,19.615a9.3,9.3,0,1,1-10.465-13.639l8.986-2.407,2.409,8.986A9.242,9.242,0,0,1,7118.714,1043.682Z"/></g></svg>