<svg xmlns="http://www.w3.org/2000/svg" width="60" height="60.009" viewBox="0 0 60 60.009"><g transform="translate(-6272.179 -11182.295)"><path d="M6331.075,11199.339a1.438,1.438,0,0,0,1.1-.756V11198a1.209,1.209,0,0,0-1.519-.625c-.884.224-1.79.359-2.719.539l-.691-2.527c.733-.369,1.463-.729,2.187-1.1.673-.347.9-.866.626-1.417a1.024,1.024,0,0,0-1.5-.375c-.716.346-1.427.705-2.136,1.058-.425-.607-.825-1.181-1.292-1.847.523-.5,1.07-1.021,1.6-1.552a1.047,1.047,0,0,0,.174-1.548c-.444-.467-1.024-.428-1.581.137-.518.526-1.014,1.075-1.526,1.619l-1.864-1.331c.356-.713.707-1.406,1.047-2.1.33-.676.193-1.241-.352-1.515a1.031,1.031,0,0,0-1.431.608c-.356.691-.7,1.39-1.067,2.122l-2.107-.744c.354-.893.7-1.771,1.049-2.647a.9.9,0,0,0-.194-1.124,1.278,1.278,0,0,0-.947-.246,1.307,1.307,0,0,0-.716.674c-.379.812-.665,1.663-1.022,2.485a.582.582,0,0,1-.438.312c-.713-.081-1.42-.219-2.192-.349.169-.875.3-1.734.508-2.575a1.372,1.372,0,0,0-.529-1.631h-.7a1.592,1.592,0,0,0-.73,1.188c-.157.954-.375,1.9-.563,2.825h-2.359c0-.893-.026-1.74.008-2.587a1.438,1.438,0,0,0-.69-1.427h-.7a1.477,1.477,0,0,0-.625,1.4c.04.873.01,1.748.01,2.672l-2.318.267c-.2-1.006-.409-2-.592-3.009a1.577,1.577,0,0,0-.811-1.33h-.585a1.222,1.222,0,0,0-.621,1.523c.247,1.018.413,2.056.62,3.12-.794.167-1.551.329-2.344.5-.083-.19-.165-.363-.236-.54-.386-.958-.761-1.921-1.162-2.873a.988.988,0,0,0-1.321-.631,1.012,1.012,0,0,0-.529,1.37c.109.313.246.615.368.924.3.749.6,1.5.906,2.27l-2.1.657c-.445-.884-.853-1.747-1.316-2.58-.149-.269-.416-.595-.679-.646a1.412,1.412,0,0,0-1,.254.855.855,0,0,0-.174,1.122c.417.852.844,1.7,1.281,2.575l-2.253,1.008c-.4-.81-.76-1.589-1.179-2.331a1.271,1.271,0,0,0-.689-.637,1.422,1.422,0,0,0-1,.274.861.861,0,0,0-.153,1.125c.411.832.824,1.662,1.248,2.517-.575.348-1.1.665-1.636.991-.656-.877-1.265-1.713-1.9-2.529a1,1,0,0,0-1.677.009,1.031,1.031,0,0,0,.125,1.25c.61.807,1.211,1.62,1.822,2.438l-1.958,1.625c-.8-.818-1.574-1.621-2.365-2.4a1,1,0,1,0-1.391,1.423c.777.788,1.567,1.563,2.36,2.352l-1.668,1.908c-.838-.627-1.638-1.25-2.465-1.834a.988.988,0,0,0-1.6.6,1.056,1.056,0,0,0,.525,1.091c.793.591,1.585,1.186,2.361,1.768-.558.973-1.08,1.885-1.617,2.824-.175-.08-.352-.155-.524-.24-.733-.363-1.461-.742-2.2-1.094a1.007,1.007,0,0,0-1.456.381,1.019,1.019,0,0,0,.559,1.4c.4.209.8.4,1.2.6.532.269,1.062.539,1.581.8-.361,1.009-.693,1.939-1.035,2.9-.167-.056-.314-.1-.456-.154-.852-.336-1.7-.687-2.556-1.01a.993.993,0,1,0-.761,1.833c.211.1.431.182.647.269l2.638,1.061c-.167.845-.318,1.616-.472,2.4-.17-.025-.266-.037-.36-.055-.977-.19-1.949-.4-2.929-.566a.96.96,0,0,0-1.144.76.987.987,0,0,0,.678,1.146,4.316,4.316,0,0,0,.513.116c.989.2,1.979.4,3.006.61l-.177,2.326c-.963,0-1.878,0-2.793,0-.781,0-1.25.385-1.251,1s.451.989,1.249.991c.893,0,1.786,0,2.713,0,.052.812.1,1.563.146,2.288-.076.053-.1.087-.14.095-1.011.211-2.024.413-3.033.633-.684.149-1.04.624-.92,1.188a1.042,1.042,0,0,0,1.366.742c1.006-.2,2.013-.393,3.043-.595.212.814.412,1.578.615,2.362l-3.021,1.218c-.89.357-1.194.831-.938,1.461q.371.914,1.709.383c.974-.388,1.948-.779,2.966-1.186.286.594.549,1.142.82,1.707l-2.707,1.625c-.828.5-1.062,1.008-.727,1.584s.926.624,1.777.115c.9-.537,1.794-1.072,2.68-1.6.611.773,1.176,1.487,1.77,2.24-1.025,1.013-2.048,2.006-3.048,3.02a.963.963,0,0,0-.018,1.456,1.011,1.011,0,0,0,1.422-.051c.385-.36.749-.743,1.121-1.116l1.917-1.925,2.6,1.87c-.689.918-1.375,1.838-2.068,2.752a1.045,1.045,0,0,0-.178,1.2.985.985,0,0,0,1.733.057c.708-.907,1.378-1.846,2.086-2.753a.625.625,0,0,1,.5-.238c.754.242,1.492.539,2.259.826-.023.148-.041.281-.066.412-.2.994-.406,1.987-.6,2.982a1,1,0,1,0,1.947.413c.048-.188.08-.381.12-.572.19-.931.381-1.86.579-2.824l2.331.241c0,1.038-.02,2.013.007,2.987a.943.943,0,0,0,1.471.84,1.592,1.592,0,0,0,.5-1.035c.068-.927.022-1.861.022-2.838.431-.026.8-.044,1.162-.075.38-.033.76-.08,1.146-.121.066.3.119.528.167.756.186.9.35,1.8.561,2.692a.971.971,0,0,0,1.131.775.982.982,0,0,0,.8-1.123,5.062,5.062,0,0,0-.1-.575q-.282-1.453-.567-2.911c.791-.251,1.508-.479,2.263-.72.089.209.176.4.254.6q.6,1.493,1.194,2.986a1.012,1.012,0,0,0,1.11.757.985.985,0,0,0,.76-1.456c-.478-1.232-.976-2.456-1.475-3.709l2.238-1.406c.845,1.054,1.656,2.079,2.485,3.09a.99.99,0,0,0,1.61.1,1.02,1.02,0,0,0-.087-1.388c-.811-1.026-1.631-2.042-2.356-2.949l1.337-1.55c.9.674,1.766,1.336,2.646,1.979a1,1,0,1,0,1.2-1.588c-.847-.652-1.7-1.291-2.565-1.94l1.7-2.468c.9.679,1.795,1.343,2.682,2.013a1,1,0,0,0,1.3.063.984.984,0,0,0-.075-1.639c-.954-.739-1.924-1.457-2.913-2.2l1.245-2.4c.867.433,1.7.854,2.536,1.262a1.018,1.018,0,0,0,1.5-.374c.272-.546.044-1.075-.626-1.419-.8-.406-1.6-.8-2.456-1.232l1.191-1.782,1.932,1.45c.156.117.308.242.471.347a1.016,1.016,0,0,0,1.372-.175.971.971,0,0,0-.173-1.4c-.756-.608-1.542-1.18-2.353-1.794.375-.415.7-.8,1.051-1.161s.708-.7,1.09-1.073c.579.77,1.126,1.5,1.682,2.23.464.606,1,.735,1.507.378s.546-.962.079-1.594c-.6-.815-1.216-1.624-1.841-2.457l2.027-1.867c.754.563,1.606,1.211,2.47,1.842a1.01,1.01,0,0,0,1.384-.018.99.99,0,0,0-.181-1.567c-.829-.642-1.674-1.264-2.5-1.885l1.522-2.557c1.055.416,2.082.838,3.12,1.225a.977.977,0,0,0,1.262-.541,1,1,0,0,0-.509-1.284c-.172-.089-.359-.151-.539-.224l-2.623-1.062c.206-.964.4-1.871.6-2.8.927,0,1.824-.024,2.72.01a1.439,1.439,0,0,0,1.431-.691v-.7a1.521,1.521,0,0,0-1.459-.624c-.83.038-1.664.009-2.538.009v-2.384C6329.138,11199.724,6330.1,11199.5,6331.075,11199.339Zm-6.151,8.657a16.233,16.233,0,0,1-3.474,4.743c-1.009,1.034-2.049,2.037-3.062,3.067a29.32,29.32,0,0,0-5.422,7.659,31.007,31.007,0,0,1-4.42,6.938c-3.9,4.425-8.863,6.188-14.661,5.828a15.56,15.56,0,0,1-10.252-4.408,17.1,17.1,0,0,1-5.181-10.443,29.871,29.871,0,0,1,4.242-20.031,24.716,24.716,0,0,1,8.751-8.219,37.745,37.745,0,0,1,17.7-4.856,27.935,27.935,0,0,1,9.673,1.511,10.771,10.771,0,0,1,7.279,9.839A16.883,16.883,0,0,1,6324.923,11208Z" transform="translate(0 0.001)"/><path d="M6297.729,11206.762a16.673,16.673,0,1,0,16.68,16.681A16.681,16.681,0,0,0,6297.729,11206.762Zm.024,31.122a14.45,14.45,0,1,1,14.435-14.471A14.5,14.5,0,0,1,6297.753,11237.884Z" transform="translate(0 -6.701)"/><path d="M6303.271,11203.405a4.437,4.437,0,1,0-4.4-4.456A4.429,4.429,0,0,0,6303.271,11203.405Zm.107-6.653a2.217,2.217,0,1,1-2.284,2.161A2.223,2.223,0,0,1,6303.378,11196.752Z" transform="translate(-3.093 -1.418)"/><path d="M6318.819,11205.632a4.445,4.445,0,0,0,.067,8.89,4.445,4.445,0,1,0-.067-8.89Zm.011,6.66a2.219,2.219,0,0,1-2.189-2.2,2.259,2.259,0,0,1,2.231-2.24,2.227,2.227,0,0,1,2.209,2.25A2.191,2.191,0,0,1,6318.83,11212.292Z" transform="translate(-4.896 -2.705)"/><path d="M6317.805,11200.075a3.335,3.335,0,0,0-.033-6.67,3.335,3.335,0,1,0,.033,6.67Zm.017-4.434a1.1,1.1,0,0,1,1.024,1.185,1.069,1.069,0,0,1-1.188,1.007,1.1,1.1,0,0,1-1.009-1.139A1.122,1.122,0,0,1,6317.822,11195.642Z" transform="translate(-4.714 -1.24)"/><path d="M6297.531,11212.31a11.156,11.156,0,0,0-10.889,10.71c-.017.972.328,1.465,1.047,1.5.751.033,1.132-.447,1.174-1.449a8.32,8.32,0,0,1,.97-3.677,8.814,8.814,0,0,1,7.765-4.859c.825-.042,1.307-.518,1.261-1.177S6298.307,11212.3,6297.531,11212.31Z" transform="translate(-1.779 -3.69)"/></g></svg>