<svg xmlns="http://www.w3.org/2000/svg" width="60" height="59.989" viewBox="0 0 60 59.989"><g transform="translate(-6308.52 -9271.152)"><path d="M6322.008,9312.565a6.771,6.771,0,0,0-13.038-1.339c-.181.486-.3.993-.451,1.491v9.489a1.7,1.7,0,0,1,.1.27,6.787,6.787,0,0,0,13.487-1.142q.015-3.832,0-7.664A7.563,7.563,0,0,0,6322.008,9312.565Zm-6.62-3.372a3.173,3.173,0,1,1-3.247,3.126A3.153,3.153,0,0,1,6315.388,9309.193Zm-4.485,6.782c.86.862,1.747,1.751,2.6,2.6l-2.6,2.59Zm8.85,5.594a4.409,4.409,0,0,1-3.2,4.087,4.359,4.359,0,0,1-4.831-1.693l8.014-8.016c.011.132.031.275.031.42C6319.765,9318.1,6319.79,9319.836,6319.753,9321.569Z" transform="translate(0 2.95)"/><path d="M6310.322,9285.418q10.382-2.051,20.772-4.064l25.768-5.022c1.015-.2,2.033-.383,3.156-.594-.176.315-.291.517-.4.72a1.18,1.18,0,1,0,2.032,1.164c.525-.891,1.04-1.787,1.552-2.684a1.256,1.256,0,0,0-.527-2q-1.535-.9-3.076-1.789h-.7c-.408.277-.877.586-.786,1.123a5.65,5.65,0,0,0,.6,1.314l-6.131,1.2q-11.038,2.156-22.079,4.31-10.206,1.992-20.418,3.971a2.123,2.123,0,0,0-1.559.856v.82A1.542,1.542,0,0,0,6310.322,9285.418Z"/><path d="M6365.6,9301.692c0-.856-.456-1.378-1.174-1.375s-1.16.527-1.166,1.388c0,.916.016,1.834-.007,2.752a2.709,2.709,0,0,1-2.336,2.69v-2.457q0-4.042,0-8.082c0-.856-.459-1.36-1.2-1.347-.708.013-1.142.51-1.143,1.34q-.007,3.981,0,7.964v.643h-7.966v-.673q0-3.952,0-7.905c0-.867-.441-1.37-1.174-1.368s-1.164.5-1.165,1.377q-.007,3.221,0,6.442v4.1a2.788,2.788,0,0,1-2.338-2.814q-.02-3.983,0-7.965a4.941,4.941,0,0,1,5.108-5.152c2.381-.019,4.763,0,7.145,0a5.013,5.013,0,0,1,2.777.773c.2.126.375.28.573.405a1.188,1.188,0,0,0,1.583-.229,1.147,1.147,0,0,0-.177-1.624,2.754,2.754,0,0,0-.662-.478c-1.034-.462-2.08-.895-3.141-1.347a6.174,6.174,0,0,0,.844-3.907,5.425,5.425,0,0,0-5.019-5.126,5.368,5.368,0,0,0-5.645,4.406,6.4,6.4,0,0,0,.841,4.8c-.195.035-.329.058-.461.083a7.306,7.306,0,0,0-6.11,7.354c-.01,2.635,0,5.271,0,7.905a5.274,5.274,0,0,0,.8,2.891,5.357,5.357,0,0,0,3.888,2.479v.722q0,9.281,0,18.564c0,1.123.391,1.511,1.517,1.511q4.773,0,9.546,0c1.229,0,1.588-.367,1.588-1.619q0-9.25,0-18.5v-.672c2.673-.528,4.366-2.2,4.637-4.661A30.026,30.026,0,0,0,6365.6,9301.692Zm-13.983-17.141a2.991,2.991,0,0,1,3.239-2.5,3.069,3.069,0,0,1,2.777,3.023c0,.137,0,.273,0,.41a3.055,3.055,0,0,1-4.021,3.235,2.745,2.745,0,0,1-1.947-2.144A5.992,5.992,0,0,1,6351.616,9284.552Zm1.771,43.483h-2.739v-20.416h2.739Zm5.156,0h-2.74v-20.445c.84,0,1.637,0,2.434,0,.093,0,.186.014.306.024Z" transform="translate(2.898 0.707)"/><path d="M6340.136,9296.3a7.316,7.316,0,0,0-3.271-1.32,5.525,5.525,0,0,0,.815-3.729,5.191,5.191,0,0,0-1.855-3.286,5.047,5.047,0,0,0-5.905-.513c-2.958,1.878-3.354,4.5-1.884,7.535a7.066,7.066,0,0,0-6.1,7.4c0,2.051-.011,4.1,0,6.149a5.053,5.053,0,0,0,3.936,4.967c.241.058.486.1.747.15v.686q0,7,0,14c0,1.118.394,1.507,1.521,1.507q4.3,0,8.609,0c1.21,0,1.583-.369,1.584-1.564v-14.625c.136-.035.208-.062.283-.073a5.04,5.04,0,0,0,4.4-5.1c.012-2.227.039-4.452-.012-6.677A6.817,6.817,0,0,0,6340.136,9296.3Zm-7.657-7.207a2.92,2.92,0,1,1-2.922,2.9A2.948,2.948,0,0,1,6332.479,9289.1Zm-1.209,38.377h-2.275v-17.033h2.275Zm4.695-.019h-2.293v-17.023h2.293Zm4.709-18.858a2.591,2.591,0,0,1-2.336,2.607v-.629q0-4.009,0-8.021a1.174,1.174,0,0,0-.934-1.3,1.159,1.159,0,0,0-1.4,1.236c-.013,1.619,0,3.239,0,4.859v.686h-7.029v-.622c0-1.6,0-3.2,0-4.8,0-.873-.433-1.374-1.166-1.376s-1.172.5-1.173,1.368q-.007,3.98,0,7.962v.633a2.563,2.563,0,0,1-2.33-2.482c-.032-2.342-.054-4.686.008-7.025a4.581,4.581,0,0,1,4.43-4.389q3.744-.1,7.492,0a4.608,4.608,0,0,1,4.448,4.558C6340.7,9304.107,6340.692,9306.351,6340.674,9308.6Z" transform="translate(1.109 1.288)"/><path d="M6362.915,9296.207a1.187,1.187,0,0,0,1.179-1.187,1.167,1.167,0,0,0-2.333-.025A1.189,1.189,0,0,0,6362.915,9296.207Z" transform="translate(4.402 1.879)"/></g></svg>