<svg xmlns="http://www.w3.org/2000/svg" width="93.897" height="84.127" viewBox="0 0 93.897 84.127"><g transform="translate(-5423.583 -5220.462)"><path d="M5453.8,5256.261h.024a1.375,1.375,0,0,0,1.375-1.352,1.526,1.526,0,0,1,1.555-1.5,1.5,1.5,0,0,1,1.1.5,1.376,1.376,0,1,0,2.031-1.856,4.281,4.281,0,0,0-7.439,2.816A1.376,1.376,0,0,0,5453.8,5256.261Z"/><path d="M5460.717,5258.472a1.372,1.372,0,0,0,1.768-.811,1.183,1.183,0,0,1,1.516-.7,1.164,1.164,0,0,1,.673.641,1.376,1.376,0,1,0,2.532-1.076,3.93,3.93,0,0,0-7.3.174A1.376,1.376,0,0,0,5460.717,5258.472Z"/><path d="M5473.8,5248a1.367,1.367,0,0,0,.973-.4l1.3-1.3a1.375,1.375,0,0,0-1.947-1.943l-1.3,1.3a1.375,1.375,0,0,0,.974,2.347Z"/><path d="M5467.514,5262.1h-1.834a1.375,1.375,0,0,0,0,2.751h1.834a1.375,1.375,0,0,0,0-2.751Z"/><path d="M5479.736,5264.856h1.833a1.375,1.375,0,1,0,0-2.751h-1.833a1.375,1.375,0,0,0,0,2.751Z"/><path d="M5517.436,5286.906l-.358-1.934a2.606,2.606,0,0,0-3.039-2.088l-7.292,1.339,3.3-2.207a2.6,2.6,0,0,0,.821-3.443l-1-1.77a2.6,2.6,0,0,0-2.612-1.3,34.76,34.76,0,0,0,.557-6.212,2.3,2.3,0,0,0-1.367-2.1,10.549,10.549,0,0,0,.084-7.981,1.652,1.652,0,0,0-.371-.565,1.674,1.674,0,0,0-.562-.371,10.46,10.46,0,0,0-3.888-.747c-.171,0-.341,0-.51.013a7.272,7.272,0,0,0-7.247-6.9,7.17,7.17,0,0,0-1.49.156,11.334,11.334,0,0,0-.641-6.054,1.693,1.693,0,0,0-.951-.959,11.306,11.306,0,0,0-10.218.937,13.606,13.606,0,0,0-3.238-5.182,2.336,2.336,0,0,0-3.306,0l-6.659,6.675a6.949,6.949,0,0,0-9.58.328,6.988,6.988,0,0,0-4.214-.592,7.1,7.1,0,0,0-.915.226v-5.144a6.493,6.493,0,0,0-6.368-6.489v-2.917a2.294,2.294,0,0,0,1.9-2.257v-6.609a2.3,2.3,0,0,0-2.293-2.292H5434.8a2.3,2.3,0,0,0-2.292,2.292v6.609a2.3,2.3,0,0,0,1.9,2.257v2.916a6.494,6.494,0,0,0-6.369,6.49v40.144a13.137,13.137,0,0,0-4.455,9.767c0,7.528,6.607,13.652,14.727,13.652l55.053-.016a6.3,6.3,0,0,0,6.229-7.28l11,1.976a2.674,2.674,0,0,0,.463.041,2.608,2.608,0,0,0,2.581-2.221l.3-2a2.6,2.6,0,0,0-2-2.922l-3.876-.889,7.285-1.338a2.605,2.605,0,0,0,2.094-3.035Zm-15.724-26.63a3.477,3.477,0,0,1,1.767,6.714h-3.705l1.182-1.185a1.376,1.376,0,0,0-1.947-1.943l-.626.627a6.373,6.373,0,0,0-1.478-2.539A7.691,7.691,0,0,1,5501.712,5260.276Zm-7.757-6.891a4.516,4.516,0,0,1,4.5,4.518c0,.046,0,.092,0,.138a10.459,10.459,0,0,0-3.926,2.328c-.181-.068-.365-.132-.554-.184a6.38,6.38,0,0,0-3.8-4.73A4.5,4.5,0,0,1,5493.955,5253.385Zm-7.271-7.662a8.514,8.514,0,0,1,2.737.45,8.618,8.618,0,0,1-.34,6.352,7.3,7.3,0,0,0-1.762,2.443,6.323,6.323,0,0,0-.734.084,6.419,6.419,0,0,0-2.923,1.333,7.3,7.3,0,0,0-1.041-1.444l3.154-3.161a1.375,1.375,0,1,0-1.947-1.943l-3.448,3.455a7.194,7.194,0,0,0-2.11-.627,8.585,8.585,0,0,1,8.414-6.942Zm-10.539,21.267h-1.192a1.374,1.374,0,0,0-2.559,0h-1.4a1.375,1.375,0,0,0-2.145-1.69l-1.3,1.3a1.4,1.4,0,0,0-.271.391h-2.8a10.892,10.892,0,0,1-1.764-5.551h21.821a10.873,10.873,0,0,1-1.764,5.551h-2.913a1.36,1.36,0,0,0-.272-.391l-1.3-1.3a1.375,1.375,0,0,0-2.145,1.69Zm-3.2-8.3a4.5,4.5,0,0,1,8.7,0Zm2.813-16.912a10.879,10.879,0,0,1,2.6,4.857,11.337,11.337,0,0,0-1.745,2.5,1.363,1.363,0,0,0-.717-.2h-1.833a1.375,1.375,0,0,0,0,2.751h1.608a11.519,11.519,0,0,0-.212,1.151,7.27,7.27,0,0,0-1.556.608,6.94,6.94,0,0,0-4.233-3.234l0-.012a6.943,6.943,0,0,0-.553-1.762Zm-24.864,12.411a4.1,4.1,0,0,1-.182-.689,4.2,4.2,0,0,1,4.142-4.907,4.155,4.155,0,0,1,2.5.836,1.376,1.376,0,0,0,1.97-.342,4.16,4.16,0,0,1,2.781-1.82,4.255,4.255,0,0,1,.727-.063,4.178,4.178,0,0,1,4.179,4.18,1.374,1.374,0,0,0,1.255,1.367,4.187,4.187,0,0,1,3.454,2.467,7.244,7.244,0,0,0-1.589,3.472h-7.845a2.34,2.34,0,0,0-2.161,1.455,10.5,10.5,0,0,0-9.78-1.062,1.672,1.672,0,0,0-.561.37,1.645,1.645,0,0,0-.37.564,10.532,10.532,0,0,0-.642,2.445,4.185,4.185,0,0,1,1.4-6.561A1.375,1.375,0,0,0,5450.9,5254.187Zm4.1,12.427.375.376h-3.3a3.166,3.166,0,0,1,2.172-5.905,7.706,7.706,0,0,1,5.49,2.28,7.887,7.887,0,0,1,.548.613,13.609,13.609,0,0,0,1.052,3.012h-2.073l-2.314-2.319a1.375,1.375,0,0,0-1.947,1.943Zm-5.858.376h-4.9a4.526,4.526,0,0,1,2.133-3.138,6.9,6.9,0,0,0,2.508,2.079A10.543,10.543,0,0,0,5449.137,5266.99Zm-13.881-43.778h10.269v5.693h-10.269Zm8.368,8.444v2.878h-6.466v-2.878ZM5430.79,5246.6h8.931a1.375,1.375,0,1,0,0-2.751h-8.931v-2.827a3.739,3.739,0,0,1,3.73-3.741h11.742a3.739,3.739,0,0,1,3.73,3.741v2.827h-2.568a1.375,1.375,0,1,0,0,2.751h2.568v1.221a6.933,6.933,0,0,0-1.99,6.142l0,.014a6.952,6.952,0,0,0-2.914,6.907c.027.158.062.313.1.466a7.312,7.312,0,0,0-1.833,1.441H5430.79Zm0,18.942h10.97a7.19,7.19,0,0,0-.3,1.444h-.232a2.3,2.3,0,0,0-2.3,2.3,34.833,34.833,0,0,0,.6,6.426c-.4-.032-.8-.049-1.213-.049a12.542,12.542,0,0,0-4.462.743c-1.857.734-2.37,1.775-2.482,2.495-.2.1-.39.2-.582.307Zm17.417,16.9a5.2,5.2,0,0,1,.974.976h-.051a8.542,8.542,0,0,1-3.768-1.194,9.971,9.971,0,0,1-1.578-1.071,1.376,1.376,0,0,0-1.778,0,9.939,9.939,0,0,1-1.577,1.071,8.545,8.545,0,0,1-3.768,1.194h-.052a5.2,5.2,0,0,1,.974-.977,1.375,1.375,0,0,0-.7-2.439,6.567,6.567,0,0,1-2.588-.748,7.835,7.835,0,0,1,4.022-.839,8.566,8.566,0,0,1,3.905.764,1.373,1.373,0,0,0,1.346,0,8.584,8.584,0,0,1,3.906-.764,7.837,7.837,0,0,1,4.022.839,6.567,6.567,0,0,1-2.589.748,1.376,1.376,0,0,0-.7,2.44Zm-2.751,16.741.047.255a6.277,6.277,0,0,0,.991,2.4h-8.183c-6.6,0-11.976-4.89-11.976-10.9a10.8,10.8,0,0,1,6.206-9.548,5.909,5.909,0,0,0,1.582.81,3.262,3.262,0,0,0-.463,1.36,2.233,2.233,0,0,0,.547,1.7,3.123,3.123,0,0,0,2.454.915,11.357,11.357,0,0,0,5.1-1.538q.6-.333,1.134-.7c.355.244.734.479,1.134.7a11.366,11.366,0,0,0,5.1,1.538h0a3.121,3.121,0,0,0,2.453-.915,2.232,2.232,0,0,0,.547-1.7,3.249,3.249,0,0,0-.463-1.36,5.909,5.909,0,0,0,1.582-.81,11.126,11.126,0,0,1,5.9,7.077l-9.728,3.7A6.288,6.288,0,0,0,5445.455,5299.184Zm50.644,1.36a3.56,3.56,0,0,1-2.738,1.278h-1.443l-.9-4.87a1.376,1.376,0,0,0-2.705.5l.809,4.37-4.733,0-.609-3.293a1.375,1.375,0,1,0-2.7.5l.517,2.793-11.008,0-.829-4.472a1.376,1.376,0,0,0-2.705.5l.736,3.973-16.073.006h0a3.556,3.556,0,0,1-3.5-2.9l-.048-.255a3.538,3.538,0,0,1,2.232-3.949l5.406-2.054.4,2.174a1.375,1.375,0,1,0,2.7-.5l-.494-2.665,8.025-3.048a1.376,1.376,0,0,0-.977-2.572l-3.734,1.419a13.945,13.945,0,0,0-7.307-8.582c-.112-.72-.626-1.762-2.482-2.495a12.542,12.542,0,0,0-4.462-.743,13.963,13.963,0,0,0-3.2.356v-.83a1.375,1.375,0,0,0-2.226-1.081,32.1,32.1,0,0,1-.358-4.369h44.8a1.375,1.375,0,1,0,0-2.751h-.562a13.629,13.629,0,0,0,1.37-5.964,2.34,2.34,0,0,0-2.112-2.327,3.635,3.635,0,0,1,1.875-.938,3.746,3.746,0,0,1,.634-.055,3.641,3.641,0,0,1,3.641,3.642,1.376,1.376,0,0,0,1.255,1.369,3.625,3.625,0,0,1,3.261,4.273h-1.476a1.375,1.375,0,0,0,0,2.751h10.691a31.664,31.664,0,0,1-.966,7.379l-7.454,4.4a6.314,6.314,0,0,0-8.314-4.143l-15.352,5.833a1.375,1.375,0,0,0,.977,2.571l2.022-.768.628,3.39a1.376,1.376,0,0,0,1.351,1.126,1.342,1.342,0,0,0,.252-.024,1.374,1.374,0,0,0,1.1-1.6l-.719-3.883,10.716-4.071a3.563,3.563,0,0,1,4.774,2.667l2.783,15.023A3.515,3.515,0,0,1,5496.1,5300.544Zm4.908-10.767a1.376,1.376,0,0,0-.059,2.694l10.241,2.349-.256,1.716-11.872-2.133-1.856-10.02,10.341-6.1.861,1.525-8.722,5.831a1.375,1.375,0,0,0,1.013,2.5l13.7-2.517.305,1.647Z"/></g></svg>