<svg xmlns="http://www.w3.org/2000/svg" width="289.099" height="295.805" viewBox="0 0 289.099 295.805"><g transform="translate(-8084.951 -7365.298)"><path d="M8373.585,7596.688,8370.3,7586.1c-.1-.307-.208-.61-.331-.905a9.728,9.728,0,0,0-6.9-5.787,10.424,10.424,0,0,0-9.243,2.32l-1.463,1.285a1.043,1.043,0,0,1-.963.238,1.062,1.062,0,0,1-.678-.506,6.395,6.395,0,0,0-8.786-4.333,9.739,9.739,0,0,0-5.78,9.948l.548,5.254a4,4,0,0,1-2.264,4.089l-2.552,1.2c-3.716,1.754-9.683,4.568-19.44,9.241l-3.331-4.788a5.621,5.621,0,0,0-.1-6.276l-17.368-26.6a.99.99,0,0,0-.085-.123,33.228,33.228,0,0,0-18.68-12.614c-2.347-.629-4.357-1.12-6.187-1.565a78.674,78.674,0,0,1-9.459-2.714,5.066,5.066,0,0,0-1.274-2.19l-5.338-5.339a5.117,5.117,0,0,0-4.223-1.45,7.008,7.008,0,0,1-.1-1.141v-3.106a32.584,32.584,0,0,0,15.587-22.961,15.22,15.22,0,0,0,10.869-25.258V7470.9a186.511,186.511,0,0,0-42.97-25.683h-8.69a33.505,33.505,0,0,0-33.467,33.467v12.418a15.228,15.228,0,0,0,10.008,26.171,32.588,32.588,0,0,0,15.59,22.962v3.1a7.392,7.392,0,0,1-.1,1.142,5.116,5.116,0,0,0-4.23,1.449l-5.338,5.339a5.066,5.066,0,0,0-1.273,2.192,78.618,78.618,0,0,1-9.439,2.709c-1.832.445-3.851.939-6.165,1.559a33.231,33.231,0,0,0-18.722,12.623c-.031.039-.061.082-.088.123l-17.368,26.6a5.625,5.625,0,0,0-.1,6.276l-3.33,4.782c-9.755-4.673-15.722-7.484-19.441-9.238l-2.552-1.206a4.009,4.009,0,0,1-2.257-4.129l.542-5.211a9.731,9.731,0,0,0-5.777-9.948,6.4,6.4,0,0,0-8.789,4.333,1.076,1.076,0,0,1-1.641.267l-1.463-1.288a10.443,10.443,0,0,0-9.244-2.319,9.74,9.74,0,0,0-6.9,5.789c-.121.295-.229.6-.328.912l-3.289,10.582a10.522,10.522,0,0,0,6.085,12.81l11.13,4.48a49.148,49.148,0,0,1,8.5,4.427l33.133,21.563a14.094,14.094,0,0,0,19.093-3.518l10.782-14.814a5.635,5.635,0,0,0,5.707-2.045l6.277-8.312v44.074a5.763,5.763,0,0,0,5.756,5.757h74.729a5.763,5.763,0,0,0,5.756-5.76V7611.27l6.3,8.338a5.615,5.615,0,0,0,5.687,2.021l10.785,14.817a14.1,14.1,0,0,0,19.087,3.521l33.136-21.566a49.539,49.539,0,0,1,8.5-4.427l11.13-4.48A10.516,10.516,0,0,0,8373.585,7596.688Zm-122.159-41.776-11.034,11.038-4.447-4.448,11.037-11.034Zm10.841-43.433v-18.857a9.48,9.48,0,0,1,0,18.857Zm-73.518-9.427a9.5,9.5,0,0,1,8.492-9.43v18.857A9.493,9.493,0,0,1,8188.749,7502.052Zm10.138-17.092a4.416,4.416,0,0,0-1.327,1.867,15.155,15.155,0,0,0-4.161.762v-8.9A27.721,27.721,0,0,1,8221.088,7451h8.69a14.134,14.134,0,0,1,12.036,6.879,2.888,2.888,0,0,0,3.964.993,13.982,13.982,0,0,1,21.191,12.033v17a15.147,15.147,0,0,0-4.7-1.062v-.974c0-.177,0-.352-.006-.52a4.468,4.468,0,0,0-4.333-4.388c-11.488-.337-17.355-4.908-19.346-6.857a4.481,4.481,0,0,0-6.653.415c-9.638,12.121-23.7,10.706-29.3,9.535A4.462,4.462,0,0,0,8198.887,7484.96Zm4.132,27.3V7490c6.409,1.04,21.639,1.853,32.553-10.821,3.376,2.915,9.932,6.906,20.919,7.5v25.575a26.736,26.736,0,1,1-53.472,0Zm26.735,32.516a32.377,32.377,0,0,0,10.761-1.838v.408a13.021,13.021,0,0,0,.843,4.574l-9.945,9.945a4.959,4.959,0,0,0-.427.524h-2.462a5.094,5.094,0,0,0-.428-.524l-9.938-9.939a13.13,13.13,0,0,0,.84-4.58v-.407A32.353,32.353,0,0,0,8229.754,7544.775Zm-17.227,5.693,11.037,11.034-4.447,4.448-11.035-11.038Zm-53.333,82.575a8.314,8.314,0,0,1-11.266,2.077l-33.133-21.567a55.619,55.619,0,0,0-9.5-4.944l-11.131-4.48a4.706,4.706,0,0,1-2.723-5.732l3.286-10.58a3.929,3.929,0,0,1,.153-.422,4.007,4.007,0,0,1,2.868-2.374,4.643,4.643,0,0,1,4.119,1.029l1.466,1.288a6.854,6.854,0,0,0,10.908-2.647,2.977,2.977,0,0,0,.153-.548.588.588,0,0,1,.316-.434.6.6,0,0,1,.538-.021,3.974,3.974,0,0,1,2.36,4.062l-.539,5.176a9.782,9.782,0,0,0,5.528,9.987l2.561,1.21c3.848,1.815,10.11,4.766,20.5,9.743a4.333,4.333,0,0,0,5.456-1.432l3.681-5.29,14.956,11.4Zm113.1-32.131a2.89,2.89,0,0,0-5.2,1.739l.021,52.674-74.709.021v-52.691a2.891,2.891,0,0,0-5.2-1.743l-11.346,15.028-20.562-15.666,17.351-26.567a27.452,27.452,0,0,1,15.466-10.379c2.312-.619,4.288-1.1,6.084-1.537a85.214,85.214,0,0,0,9.783-2.8l11.488,11.489a5.154,5.154,0,0,0,7.279,0l5.338-5.338a5.1,5.1,0,0,0,.748-.978h1.821a5.06,5.06,0,0,0,.747.978l5.338,5.338a5.154,5.154,0,0,0,7.279,0l11.489-11.49a86.3,86.3,0,0,0,9.807,2.8c1.79.436,3.761.915,6.1,1.541a27.42,27.42,0,0,1,15.424,10.372l17.352,26.567-20.562,15.666Zm93.05,3.22-11.128,4.48a55.232,55.232,0,0,0-9.5,4.944l-33.136,21.566a8.316,8.316,0,0,1-11.266-2.076l-10.559-14.5,14.956-11.4,3.685,5.295a4.346,4.346,0,0,0,5.459,1.433c10.387-4.977,16.648-7.932,20.494-9.747l2.561-1.207a9.767,9.767,0,0,0,5.534-9.948l-.542-5.215a3.968,3.968,0,0,1,2.358-4.061.616.616,0,0,1,.855.454,2.962,2.962,0,0,0,.152.547,6.85,6.85,0,0,0,10.908,2.645l1.463-1.285a4.658,4.658,0,0,1,4.122-1.029,4.008,4.008,0,0,1,2.865,2.368c.06.139.109.281.153.418l3.286,10.587A4.706,4.706,0,0,1,8365.343,7604.132Z"/><path d="M8090.2,7525.652h70.532a5.257,5.257,0,0,0,5.249-5.25V7477.23a5.254,5.254,0,0,0-5.249-5.251h-5.267a5.3,5.3,0,0,0-2.878-4.077,12147.859,12147.859,0,0,1-54.241,0,5.3,5.3,0,0,0-2.882,4.077H8090.2a5.256,5.256,0,0,0-5.251,5.251V7520.4A5.257,5.257,0,0,0,8090.2,7525.652Zm59.555-52.692v35.462a31.6,31.6,0,0,0-21.4,0v-35.456A26.041,26.041,0,0,1,8149.757,7472.96Zm-48.571,0a26.039,26.039,0,0,1,21.394.009v35.464a31.529,31.529,0,0,0-21.4-.005Zm-10.458,4.8h4.671v31.415a5.472,5.472,0,0,0,2.335,4.579,4.713,4.713,0,0,0,4.444.476,25.843,25.843,0,0,1,21.928,1.179,2.894,2.894,0,0,0,2.723,0,25.845,25.845,0,0,1,21.929-1.179,4.7,4.7,0,0,0,4.442-.476,5.476,5.476,0,0,0,2.335-4.579v-31.415h4.671v42.118h-69.478Z"/><path d="M8135.017,7481.955a2.351,2.351,0,0,0,.385-.028,25.549,25.549,0,0,1,6.7,0,2.888,2.888,0,1,0,.754-5.726,31.053,31.053,0,0,0-8.22.006,2.888,2.888,0,0,0,.383,5.751Z"/><path d="M8135.017,7491.836a2.8,2.8,0,0,0,.385-.027,25.34,25.34,0,0,1,6.7,0,2.89,2.89,0,0,0,.754-5.73,31.387,31.387,0,0,0-8.22.007,2.889,2.889,0,0,0,.383,5.753Z"/><path d="M8142.854,7495.958a31.177,31.177,0,0,0-8.22.007,2.888,2.888,0,0,0,.383,5.75,2.788,2.788,0,0,0,.385-.024,25.464,25.464,0,0,1,6.7-.006,2.888,2.888,0,0,0,.754-5.727Z"/><path d="M8108.223,7481.927a25.406,25.406,0,0,1,6.7,0,2.83,2.83,0,0,0,.388.025,2.888,2.888,0,0,0,.379-5.751,31.035,31.035,0,0,0-8.218-.006,2.889,2.889,0,1,0,.752,5.729Z"/><path d="M8108.223,7491.806a25.469,25.469,0,0,1,6.7,0,2.835,2.835,0,0,0,.388.027,2.888,2.888,0,0,0,.379-5.75,31.076,31.076,0,0,0-8.218-.006,2.888,2.888,0,1,0,.752,5.726Z"/><path d="M8115.31,7501.715a2.888,2.888,0,0,0,.379-5.75,31.159,31.159,0,0,0-8.218-.007,2.89,2.89,0,1,0,.752,5.73,25.344,25.344,0,0,1,6.7,0A2.827,2.827,0,0,0,8115.31,7501.715Z"/><path d="M8143.458,7414.984h-1.819a5.486,5.486,0,0,0-5.479,5.48,11.866,11.866,0,0,0,11.853,11.853h24.824a11.866,11.866,0,0,0,11.853-11.853,5.486,5.486,0,0,0-5.479-5.48h-1.82a28.49,28.49,0,0,0,2.65-2.311h7a16.736,16.736,0,0,0,15.759-11.149,10.707,10.707,0,0,0-10.1-14.271H8188.3a6.362,6.362,0,0,0-6.1-4.622h-43.536a6.372,6.372,0,0,0-6.313,5.569,29.271,29.271,0,0,0,11.114,26.784Zm35.449,5.777a6.085,6.085,0,0,1-6.07,5.778h-24.824a6.085,6.085,0,0,1-6.07-5.778Zm17.821-25.649a4.872,4.872,0,0,1,.624,4.49,10.947,10.947,0,0,1-10.31,7.294H8184.6a29.129,29.129,0,0,0,4.11-13.866h4A4.875,4.875,0,0,1,8196.729,7395.112Zm-58.652-6.192a.585.585,0,0,1,.581-.512h43.536a.584.584,0,0,1,.58.512v0a23.891,23.891,0,0,1,.184,2.951c0,12.744-10.107,23.11-22.532,23.11s-22.532-10.366-22.532-23.11A24.167,24.167,0,0,1,8138.076,7388.92Z"/><path d="M8148.87,7376.853a2.89,2.89,0,0,0,2.889-2.888v-5.778a2.889,2.889,0,1,0-5.778,0v5.778A2.889,2.889,0,0,0,8148.87,7376.853Z"/><path d="M8160.425,7376.853a2.889,2.889,0,0,0,2.888-2.888v-5.778a2.888,2.888,0,1,0-5.777,0v5.778A2.89,2.89,0,0,0,8160.425,7376.853Z"/><path d="M8171.98,7376.853a2.89,2.89,0,0,0,2.889-2.888v-5.778a2.889,2.889,0,0,0-5.778,0v5.778A2.889,2.889,0,0,0,8171.98,7376.853Z"/><path d="M8314.138,7473.568v34.421a11.511,11.511,0,1,0,5.78,9.972c0-.02,0-.04,0-.06v-28.435l28.751-6.161v17.283a11.512,11.512,0,1,0,5.778,9.98v-30.8c0-.012,0-.023,0-.035v-13.566a2.891,2.891,0,0,0-3.5-2.825l-34.529,7.4A2.889,2.889,0,0,0,8314.138,7473.568Zm-5.741,50.137a5.742,5.742,0,1,1,5.741-5.805v.061l0,.021A5.749,5.749,0,0,1,8308.4,7523.705Zm34.525-7.4a5.746,5.746,0,1,1,5.744-5.744A5.75,5.75,0,0,1,8342.922,7516.309Zm-23.007-40.406,28.751-6.163v7.658l-28.751,6.16Z"/><path d="M8266.92,7404.9l6.3,6.3-13.476,14.349a7.639,7.639,0,0,0,10.8,10.8l15.353-14.422,15.354,14.422a7.64,7.64,0,0,0,10.8-10.8l-13.476-14.347,6.3-6.3c13.964-1.95,20.542-10.993,19.518-26.933a5.477,5.477,0,0,0-2.6-4.339,5.759,5.759,0,0,0-5.232-.427c-1.628.671-3.909.6-6.319.523-3.99-.123-8.961-.279-12.621,3.38a23.588,23.588,0,0,0-6.531,14.214l-5.2,5.2-5.2-5.2a23.591,23.591,0,0,0-6.529-14.214c-3.659-3.659-8.624-3.5-12.62-3.38-2.414.079-4.69.148-6.321-.523a5.771,5.771,0,0,0-5.233.427,5.47,5.47,0,0,0-2.594,4.342C8246.378,7393.908,8252.958,7402.951,8266.92,7404.9Zm10.97-8.228,5.744,5.745-5.515,5.512-5.743-5.743Zm-11.3,35.468a1.863,1.863,0,0,1-2.633-2.633l14.067-14.977,3.656,3.435Zm41.212-.039a1.852,1.852,0,0,1-2.59.039l-22.244-20.89,3.985-3.984,20.889,22.241A1.855,1.855,0,0,1,8307.8,7432.1Zm-18.021-30.263a4.768,4.768,0,0,0-.187-.851l4.315-4.315,5.517,5.514-4.8,4.805Zm11.934-20.651c1.891-1.889,4.891-1.8,8.354-1.687,2.885.09,5.86.186,8.578-.946.52,8.577-.717,18.482-14.1,20.58l-7.664-7.662A17.681,17.681,0,0,1,8301.716,7381.189Zm-48.562-2.593c2.74,1.089,5.708,1,8.582.908,3.463-.111,6.463-.2,8.352,1.689a17.855,17.855,0,0,1,4.824,10.287l-7.655,7.656C8253.89,7397.041,8252.638,7387.159,8253.153,7378.6Z"/><path d="M8241.345,7521.638a2.888,2.888,0,1,0-4.426-3.71,9.478,9.478,0,0,1-13.436,0,2.888,2.888,0,0,0-4.427,3.71,15.207,15.207,0,0,0,22.288,0Z"/><path d="M8241.568,7506.551a4.205,4.205,0,1,0-4.207-4.2A4.2,4.2,0,0,0,8241.568,7506.551Z"/><path d="M8222.147,7502.347a4.205,4.205,0,1,0-4.207,4.2A4.207,4.207,0,0,0,8222.147,7502.347Z"/></g></svg>