<svg xmlns="http://www.w3.org/2000/svg" width="60" height="60.59" viewBox="0 0 60 60.59"><g transform="translate(-3171.648 -1156.451)"><g transform="translate(3171.649 1156.451)"><path d="M3171.65,1186.7q0-12.4,0-24.793a5.077,5.077,0,0,1,5.477-5.457h37.527a5.07,5.07,0,0,1,5.443,5.427c0,3.47.006,6.939-.01,10.409a1.409,1.409,0,0,1-.254.928,1.177,1.177,0,0,1-.979.322,1.384,1.384,0,0,1-.737-.877,9.133,9.133,0,0,1-.038-1.823q0-4.51,0-9.021a3.047,3.047,0,0,0-3.315-3.345q-18.89,0-37.779,0a3.05,3.05,0,0,0-3.315,3.345q0,24.918,0,49.838a3.056,3.056,0,0,0,3.372,3.352h23.21c.168,0,.336,0,.5,0,.73.017,1.185.421,1.169,1.034a1.025,1.025,0,0,1-1.157.981q-4.131.01-8.262,0-7.726,0-15.452,0a5.069,5.069,0,0,1-5.4-5.405Q3171.648,1199.161,3171.65,1186.7Z" transform="translate(-3171.649 -1156.451)"/><path d="M3218.894,1218.612c-.383.5-.692.924-1.025,1.328a5.468,5.468,0,0,1-9.082-.855c-2.524-4.863-5.025-9.744-7.337-14.709a11.516,11.516,0,0,1,7.823-16.418,9.884,9.884,0,0,1,8.243,1.439c.083.057.173.1.366.222,0-.744-.013-1.4,0-2.06a20.878,20.878,0,0,1,.119-2.891,4.922,4.922,0,0,1,4.771-4.085c2.018-.036,4.036-.016,6.054-.008a1.027,1.027,0,0,1,1.155,1.231,7,7,0,0,1-2.759,5.371c-.162.129-.332.249-.611.459.526.088.94.152,1.352.229a11.494,11.494,0,0,1,9.478,12.617c-.079.775-.513,1.218-1.127,1.154s-.984-.571-.877-1.353a9.536,9.536,0,0,0-7.678-10.425,8.013,8.013,0,0,0-6.473,1.288,3.66,3.66,0,0,1-4.52.165c-3.779-2.89-8.879-1.621-11.68,1.175a9.287,9.287,0,0,0-1.852,10.927c2.344,4.93,4.814,9.8,7.3,14.666a3.453,3.453,0,0,0,5.812.534c.572-.7,1.086-1.445,1.639-2.16a1.02,1.02,0,0,1,1.814,0c.5.648.982,1.313,1.482,1.963a3.488,3.488,0,0,0,6.094-.552c2.24-4.445,4.453-8.9,6.678-13.353.46-.92.959-1.217,1.573-.934.637.293.711.886.228,1.851q-3.3,6.594-6.595,13.187a5.52,5.52,0,0,1-9.677.907C3219.368,1219.239,3219.155,1218.957,3218.894,1218.612Zm1.074-31.926a38.035,38.035,0,0,0,4.04-.21,4.656,4.656,0,0,0,3.78-3.886h-4.467C3220.9,1182.591,3219.641,1184.075,3219.968,1186.686Zm1.42,2h-1.46v.9Z" transform="translate(-3177.507 -1161.388)"/><path d="M3214.331,1164.848h-34.285v16.123h29.933c.851.005,1.32.363,1.32,1.01s-.471,1.008-1.322,1.008q-15.329,0-30.657,0c-.988,0-1.322-.336-1.322-1.326q0-8.77,0-17.54c0-.99.334-1.323,1.325-1.323q17.852,0,35.7,0c.989,0,1.323.335,1.323,1.325q0,4.953,0,9.906c0,.722-.28,1.135-.818,1.243-.669.134-1.195-.369-1.2-1.176q-.008-4.26,0-8.518Z" transform="translate(-3172.949 -1157.751)"/><path d="M3182.032,1190.728c.946,0,1.893-.006,2.838,0,.824.007,1.193.372,1.2,1.2q.011,2.839,0,5.678c0,.824-.374,1.194-1.2,1.2q-2.839.012-5.677,0c-.824,0-1.192-.373-1.2-1.2q-.011-2.839,0-5.678c0-.825.371-1.189,1.2-1.2C3180.14,1190.722,3181.086,1190.728,3182.032,1190.728Zm1.975,6.029V1192.8h-3.96v3.959Z" transform="translate(-3172.948 -1163.47)"/><path d="M3178,1207.462c0-.946-.007-1.894,0-2.839.007-.826.37-1.194,1.2-1.2q2.839-.012,5.677,0c.824,0,1.194.371,1.2,1.2q.011,2.839,0,5.678c0,.824-.374,1.194-1.2,1.2q-2.838.012-5.677,0c-.824,0-1.189-.372-1.2-1.2C3177.989,1209.355,3178,1208.409,3178,1207.462Zm2.047,1.974H3184v-3.96h-3.958Z" transform="translate(-3172.948 -1166.069)"/><path d="M3178,1221.364c0-.925-.007-1.85,0-2.776.008-.826.37-1.193,1.2-1.2q2.838-.011,5.676,0c.825,0,1.195.371,1.2,1.2q.011,2.839,0,5.679c0,.824-.374,1.194-1.2,1.2q-2.838.012-5.677,0c-.824,0-1.189-.372-1.2-1.2C3177.989,1223.3,3178,1222.331,3178,1221.364Zm6.012,2.054v-3.96h-3.96v3.96Z" transform="translate(-3172.948 -1168.929)"/><path d="M3200.031,1221.464c0,.947.009,1.893,0,2.84a1.029,1.029,0,0,1-1.171,1.159q-2.87.013-5.739,0a1.026,1.026,0,0,1-1.158-1.171q-.012-2.87,0-5.742a1.023,1.023,0,0,1,1.17-1.157q2.87-.013,5.74,0a1.028,1.028,0,0,1,1.159,1.171C3200.039,1219.529,3200.031,1220.5,3200.031,1221.464Zm-6.042,1.929h3.982v-3.937h-3.982Z" transform="translate(-3175.807 -1168.929)"/><path d="M3208.657,1174.714v-1.01c-.925,0-1.822,0-2.72,0-.808,0-1.265-.356-1.283-.981-.019-.648.457-1.034,1.289-1.037.882,0,1.765-.009,2.646,0a2.018,2.018,0,0,1,2.112,2.093c.013.924,0,1.849.006,2.773a1.032,1.032,0,0,0,1.015,1.19c.682.117,1.071.566.989,1.142a1.006,1.006,0,0,1-1.253.849,15.54,15.54,0,0,1-1.9-.636,3.844,3.844,0,0,1-2.932.662,2.026,2.026,0,0,1-1.978-1.975c-.013-.315-.007-.631,0-.945a2.019,2.019,0,0,1,2.144-2.124C3207.4,1174.708,3208,1174.714,3208.657,1174.714Zm-1.964,2.984c1.445.136,1.795-.033,1.948-.931h-1.948Z" transform="translate(-3178.406 -1159.57)"/><path d="M3187.775,1173.679c.7-.718,1.389-1.453,2.112-2.15a.976.976,0,0,1,1.719.409,1.486,1.486,0,0,1-.366,1.055c-.67.749-1.419,1.427-2.229,2.222.642.621,1.241,1.2,1.839,1.78a6.871,6.871,0,0,1,.527.541.982.982,0,0,1-.047,1.416.958.958,0,0,1-1.368,0c-.6-.555-1.166-1.153-1.748-1.73-.157-.156-.323-.3-.584-.548,0,.555.008.988,0,1.419a1.031,1.031,0,0,1-.992,1.148,1.01,1.01,0,0,1-1.02-1.115q-.013-3.942,0-7.884a1,1,0,0,1,.984-1.087,1.013,1.013,0,0,1,1.025,1.111c.014,1.111,0,2.222,0,3.332Z" transform="translate(-3174.508 -1159.052)"/><path d="M3197.963,1192.774h-3.952v4.012c.579,0,1.178,0,1.776,0,.749.008,1.2.38,1.212.988.013.628-.455,1.023-1.236,1.028-.882.006-1.764.01-2.646,0a1.028,1.028,0,0,1-1.157-1.17q-.012-2.866,0-5.734a1.023,1.023,0,0,1,1.158-1.167q2.867-.013,5.732,0a1.033,1.033,0,0,1,1.18,1.147c.007.252,0,.5,0,.756a.989.989,0,0,1-.836,1.093.974.974,0,0,1-1.155-.743C3198.014,1192.912,3197.987,1192.839,3197.963,1192.774Z" transform="translate(-3175.807 -1163.47)"/><path d="M3199.749,1173.73h-1.935v3.96h1.935c.041-.1.088-.231.151-.359a.94.94,0,0,1,1.138-.563.972.972,0,0,1,.776,1.015,2.015,2.015,0,0,1-1.914,1.967c-.733.032-1.469.03-2.2,0a1.983,1.983,0,0,1-1.925-1.951q-.042-2.078,0-4.157a1.98,1.98,0,0,1,1.984-1.955c.692-.02,1.386-.019,2.078,0a2.026,2.026,0,0,1,1.94,1.592,1.091,1.091,0,0,1-.671,1.38,1.027,1.027,0,0,1-1.276-.721C3199.8,1173.867,3199.772,1173.792,3199.749,1173.73Z" transform="translate(-3176.585 -1159.568)"/><path d="M3194,1205.441v4.04c1,0,1.983-.056,2.955.03a1.429,1.429,0,0,1,.946.646.988.988,0,0,1-.973,1.324c-1.3.037-2.6.029-3.9.01a.982.982,0,0,1-1.059-1.071q-.022-2.96,0-5.921a.984.984,0,0,1,1.058-1.072c.965-.019,1.932-.017,2.9,0a1,1,0,0,1,1.08.989,1.024,1.024,0,0,1-1.115,1.023c-.314.01-.629,0-.944,0Z" transform="translate(-3175.807 -1166.068)"/><path d="M3239.85,1202c-.038.333-.06.67-.118,1a.977.977,0,0,1-1.151.888,1.046,1.046,0,0,1-.852-1.142,9.064,9.064,0,0,0-.126-2.055,5.637,5.637,0,0,0-5.146-4.13,2.1,2.1,0,0,1-.9-.208.888.888,0,0,1-.384-1.1.862.862,0,0,1,.936-.694,13.992,13.992,0,0,1,3.054.632A7.427,7.427,0,0,1,3239.85,1202Z" transform="translate(-3183.828 -1164.253)"/><path d="M3217.342,1174.2c0-1.283,0-2.565,0-3.848,0-.743.394-1.194,1.005-1.2s1.007.452,1.008,1.194q.01,3.848,0,7.7c0,.741-.4,1.2-1.007,1.2s-1-.453-1.007-1.194C3217.337,1176.762,3217.342,1175.479,3217.342,1174.2Z" transform="translate(-3181.005 -1159.052)"/><path d="M3213.306,1220.674a1,1,0,1,1,.974-1.035A1.014,1.014,0,0,1,3213.306,1220.674Z" transform="translate(-3179.968 -1169.191)"/><path d="M3215.788,1224.482a1.005,1.005,0,1,1,1.03-.98A1.015,1.015,0,0,1,3215.788,1224.482Z" transform="translate(-3180.488 -1169.971)"/></g></g></svg>