<svg xmlns="http://www.w3.org/2000/svg" width="46.471" height="65" viewBox="0 0 46.471 65"><g transform="translate(-4193.748 -530.314)"><path d="M4236.213,578.225a9.7,9.7,0,0,0-4.12-1.642V575.8c0-9.16-.023-18.32.021-27.481a12.616,12.616,0,0,0-.845-4.877c-1.492-3.714-2.8-7.469-2.308-11.6.127-1.076-.44-1.534-1.531-1.534q-14.312,0-28.624,0c-1.057,0-1.508.45-1.513,1.5-.007,1.5.013,3-.013,4.506a3.4,3.4,0,0,1-.22,1.163c-.993,2.537-2.023,5.059-3.011,7.6a4,4,0,0,0-.277,1.409q-.021,23.546-.024,47.092a1.742,1.742,0,0,0,.9,1.727h37.2a2.523,2.523,0,0,1,.359-.11,9.387,9.387,0,0,0,4.008-16.98Zm-36.345-45.333h26.544V535.9h-26.544Zm.782,59.184v.677h-4.35v-.7q0-22.595.009-45.19a3.338,3.338,0,0,1,.232-1.159c.627-1.635,1.288-3.256,1.987-5.01.729,1.913,1.417,3.7,2.085,5.5a1.881,1.881,0,0,1,.035.63Q4200.651,569.449,4200.65,592.075Zm2.051-47.608c-.759-1.944-1.5-3.894-2.287-5.944.289-.017.506-.04.724-.04q12.529,0,25.059-.01c.438,0,.676.1.827.552.564,1.7,1.179,3.389,1.771,5.082.062.175.106.357.193.653-.979,0-1.894.014-2.809-.018-.117,0-.277-.223-.332-.374-.216-.6-.393-1.2-.593-1.8-.29-.873-.94-1.271-1.667-1.026a1.294,1.294,0,0,0-.755,1.76c.135.459.279.915.448,1.465-1.042,0-1.986.016-2.929-.018-.139-.005-.333-.222-.391-.381-.218-.594-.382-1.207-.58-1.809a1.281,1.281,0,1,0-2.421.752c.136.46.277.919.439,1.456-1.02,0-1.965.015-2.909-.017-.143-.005-.344-.211-.4-.367-.234-.633-.411-1.287-.632-1.925a1.275,1.275,0,0,0-1.621-.922,1.294,1.294,0,0,0-.787,1.7c.136.484.3.961.477,1.53-1.023,0-1.932.018-2.839-.017a.662.662,0,0,1-.466-.362c-.242-.63-.415-1.285-.633-1.924a1.27,1.27,0,1,0-2.416.754c.126.447.265.889.395,1.335a.848.848,0,0,1-.031.212c-.82,0-1.655.011-2.488-.013A.5.5,0,0,1,4202.7,544.467Zm.531,2.879h26.3v8.7h-26.3Zm0,11.312h26.283v17.86c-.784.244-1.563.432-2.3.725a9.375,9.375,0,0,0-3.962,3.07,1.045,1.045,0,0,1-.7.394q-9.483.031-18.968.015c-.1,0-.208-.018-.356-.032Zm.01,34.07V583.3h18.482c-.558,4.728-.243,5.893,2.554,9.424Zm27.6.044a6.858,6.858,0,1,1,6.838-6.886A6.864,6.864,0,0,1,4230.843,592.773Z"/><path d="M4221.855,585.06a4.454,4.454,0,0,0,4.008-6.614,16.439,16.439,0,0,0-3.141-3.8,1.207,1.207,0,0,0-1.675,0,16.47,16.47,0,0,0-3.168,3.854A4.454,4.454,0,0,0,4221.855,585.06Zm-1.787-5.229c.509-.842,1.124-1.62,1.819-2.6.688.972,1.3,1.75,1.813,2.59a1.706,1.706,0,0,1-.521,2.255,2.055,2.055,0,0,1-2.575,0A1.7,1.7,0,0,1,4220.068,579.832Z" transform="translate(-5.513 -10.296)"/><path d="M4242.8,602.036c.5-.439.814-.666,1.07-.944a1.259,1.259,0,1,0-1.77-1.79,12.829,12.829,0,0,0-.861.98c-.363-.4-.6-.7-.874-.952a1.264,1.264,0,1,0-1.792,1.781c.261.292.541.567.805.842-1.316,1.54-1.468,2.07-.807,2.7s1.166.468,2.706-.9c.276.3.513.6.79.853a1.237,1.237,0,0,0,1.811.034,1.218,1.218,0,0,0-.023-1.807A8.526,8.526,0,0,0,4242.8,602.036Z" transform="translate(-10.396 -16.055)"/></g></svg>