<svg xmlns="http://www.w3.org/2000/svg" width="92.421" height="92.003" viewBox="0 0 92.421 92.003"><g transform="translate(-7136.2 -11580.836)" style="isolation:isolate"><path d="M7182.2,11622.386a4.452,4.452,0,1,0,4.451,4.452A4.457,4.457,0,0,0,7182.2,11622.386Zm0,5.937a1.484,1.484,0,1,1,1.484-1.484A1.487,1.487,0,0,1,7182.2,11628.322Z"/><path d="M7182.2,11616.45a10.387,10.387,0,1,0,10.387,10.388A10.4,10.4,0,0,0,7182.2,11616.45Zm0,17.807a7.419,7.419,0,1,1,7.419-7.419A7.427,7.427,0,0,1,7182.2,11634.257Z"/><path d="M7198.993,11616.35l-6.3-6.3-2.757,2.771a1.869,1.869,0,0,1-2.092.294,1.808,1.808,0,0,1-1.188-1.647v-3.916h-8.9v3.916a2,2,0,0,1-3.278,1.354l-2.758-2.771-6.3,6.3,2.77,2.757a1.868,1.868,0,0,1,.293,2.092,1.8,1.8,0,0,1-1.646,1.188h-3.916v8.9h3.916a1.858,1.858,0,0,1,1.674,1.25,1.821,1.821,0,0,1-.321,2.031l-2.77,2.758,6.3,6.3,2.756-2.771a1.841,1.841,0,0,1,2.093-.292,1.8,1.8,0,0,1,1.187,1.645v3.918h8.9v-3.918a1.838,1.838,0,0,1,1.252-1.672,1.812,1.812,0,0,1,2.028.319l2.757,2.771,6.3-6.3-2.769-2.76a1.813,1.813,0,0,1-.343-1.975l.063-.149a1.8,1.8,0,0,1,1.632-1.155h3.917v-8.9h-3.917a2,2,0,0,1-1.352-3.277Zm-1.417,9h.949v2.969h-.949a4.793,4.793,0,0,0-4.361,2.953l-.092.222a4.8,4.8,0,0,0,1,5.174l.663.66-2.1,2.1-.659-.662a4.963,4.963,0,0,0-8.349,3.446v.95h-2.968v-.95a4.965,4.965,0,0,0-8.35-3.447l-.659.662-2.1-2.1.662-.661a4.962,4.962,0,0,0-3.448-8.347h-.948v-2.969h.948a4.965,4.965,0,0,0,3.448-8.352l-.661-.659,2.1-2.1.659.661a4.964,4.964,0,0,0,8.349-3.445v-.948h2.968v.948a4.965,4.965,0,0,0,8.352,3.448l.658-.661,2.1,2.1-.662.659a4.963,4.963,0,0,0,3.445,8.349Z"/><path d="M7164.617,11640.5a22.306,22.306,0,0,1,0-27.326l.8-1.035-14.7-14.694-1.043,1.207a43.146,43.146,0,0,0-9.43,18.646,7.351,7.351,0,0,0-2.9,10.511,5.884,5.884,0,0,0,3.034,9.122,43.2,43.2,0,0,0,9.3,18.095l1.045,1.206,14.7-14.693Zm-25.449-9.212a2.953,2.953,0,0,1,1.071-2.256l1.191-1-1.06-1.141a4.445,4.445,0,1,1,7.7-3.082l-.08,1.364,1.047.364a2.957,2.957,0,1,1-2.073,5.537l-1.549-.621-.434,1.61a2.958,2.958,0,0,1-5.816-.771Zm14.786,6.5a2.973,2.973,0,0,1-2.353,2.353l-4.991-4.991a6.087,6.087,0,0,0,.678-.944,5.676,5.676,0,0,0,.783.053,5.9,5.9,0,0,0,1.988-.366Zm-3.051,14.064a40.178,40.178,0,0,1-7.433-14.793,5.674,5.674,0,0,0,.659-.2l6.3,6.3h.614a5.943,5.943,0,0,0,5.936-5.937v-.613l-4.43-4.432a5.871,5.871,0,0,0-1.537-9,7.429,7.429,0,0,0-7.388-6.732c-.042,0-.078.012-.12.012a40.227,40.227,0,0,1,7.4-14.64l10.593,10.592a25.278,25.278,0,0,0,0,28.848Z"/><path d="M7168.539,11609.253a22.114,22.114,0,0,1,13.663-4.674,22.423,22.423,0,0,1,4.978.571,4.384,4.384,0,0,0,5.531,2.085,22.472,22.472,0,0,1,3.154,2.018l1.034.8,14.7-14.694-1.206-1.046a42.845,42.845,0,0,0-22.63-10.135,8.942,8.942,0,0,0-14.35.544,43.094,43.094,0,0,0-19.392,9.593l-1.207,1.045,14.695,14.694Zm24.05-7.642v1.483a1.484,1.484,0,1,1-2.968,0v-2.1l-2.353-2.354,2.353-2.353,2.354,2.353h2.1a1.484,1.484,0,0,1,0,2.969Zm14.629-6.072-10.595,10.592q-.762-.529-1.565-1a4.519,4.519,0,0,0,.308-.739,4.453,4.453,0,0,0-1.293-8.713h-.869l-2.243-2.242-1.448-5.792c-.018-.071-.052-.138-.072-.208A39.826,39.826,0,0,1,7207.218,11595.539Zm-26.42-11.735a6.008,6.008,0,0,1,5.836,4.558l1.345,5.374-3.264,3.264-5.374-1.345a6.015,6.015,0,0,1,1.457-11.851Zm-8.815,4.294a9.07,9.07,0,0,0-.169,1.723,8.971,8.971,0,0,0,6.8,8.715l5.792,1.448,1.989,1.989a25.352,25.352,0,0,0-4.2-.361,25.027,25.027,0,0,0-14.424,4.519l-10.592-10.593A40.2,40.2,0,0,1,7171.983,11588.1Z"/><path d="M7195.864,11644.423a22.306,22.306,0,0,1-27.325,0l-1.035-.8-14.695,14.7,1.207,1.043a42.95,42.95,0,0,0,21.07,9.905,8.872,8.872,0,0,0,14.233,0,42.965,42.965,0,0,0,21.07-9.905l1.206-1.043-14.7-14.7Zm-22.566,19.513a8.866,8.866,0,0,0,.242,2.026,40.028,40.028,0,0,1-16.354-7.824l10.592-10.594a24.938,24.938,0,0,0,11.514,4.338C7176.975,11654.966,7173.3,11660.409,7173.3,11663.936Zm8.9,5.937a5.943,5.943,0,0,1-5.936-5.937c0-2.477,3.281-7.542,5.936-10.979,2.654,3.438,5.935,8.5,5.935,10.979A5.942,5.942,0,0,1,7182.2,11669.872Zm8.662-3.91a8.893,8.893,0,0,0,.241-2.026c0-3.526-3.677-8.97-5.993-12.054a24.931,24.931,0,0,0,11.513-4.338l10.593,10.594A40.037,40.037,0,0,1,7190.864,11665.962Z"/><path d="M7227.517,11619.374l1.1-4.408h-4.36a5.749,5.749,0,0,0-.69.059,43.314,43.314,0,0,0-8.846-16.372l-1.043-1.207-14.7,14.694.8,1.035a22.308,22.308,0,0,1,0,27.326l-.8,1.034,14.7,14.692,1.045-1.205a43.306,43.306,0,0,0,8.952-16.745,3.94,3.94,0,0,0,2.008-2.417l1.743-6.1a20.218,20.218,0,0,0,.775-5.541,4.816,4.816,0,0,0-1.313-3.3A5.911,5.911,0,0,0,7227.517,11619.374Zm-6.135.808a2.962,2.962,0,0,1,2.877-2.248h.559l-.181.721a2.962,2.962,0,0,1-2.877,2.248h-.559Zm-7.882,31.67-10.59-10.591a25.281,25.281,0,0,0,0-28.847l10.592-10.592a40.315,40.315,0,0,1,7.29,14.274,5.918,5.918,0,0,0-2.29,3.365l-.193.771-.3-.15a6.329,6.329,0,0,0-2.812-.664,4.808,4.808,0,0,0-4.8,4.8,20.188,20.188,0,0,0,.776,5.542l1.744,6.1a3.941,3.941,0,0,0,3.773,2.848,2.6,2.6,0,0,1,3.848-.23A40.361,40.361,0,0,1,7213.5,11651.852Zm11.074-22.9-1.744,6.1a1.1,1.1,0,0,1-1.794.332l-1.736-1.734-1.736,1.734a1.1,1.1,0,0,1-1.794-.332l-1.744-6.1a17.2,17.2,0,0,1-.662-4.729,1.836,1.836,0,0,1,1.834-1.834,3.345,3.345,0,0,1,1.484.351l2.268,1.134h2.81a5.926,5.926,0,0,0,3.041-.836,1.845,1.845,0,0,1,.434,1.186A17.231,17.231,0,0,1,7224.574,11628.948Z"/></g></svg>