<svg xmlns="http://www.w3.org/2000/svg" width="129.872" height="116.895" viewBox="0 0 129.872 116.895"><g transform="translate(-4057.573 -1626.643)" style="isolation:isolate"><path d="M4155.619,1639.631c-.282,0-.563,0-.822.011-10.829.182-18.205,3.913-23.636,8.775v-15.28a2.165,2.165,0,0,0-1.2-1.937c-.933-.466-9.252-4.557-13.957-4.557a71.063,71.063,0,0,0-9.953,1.1,67.256,67.256,0,0,1-9.514,1.06,81.067,81.067,0,0,1-9.3-1.053,81.8,81.8,0,0,0-10.2-1.111c-4.7,0-13.024,4.091-13.957,4.557a2.166,2.166,0,0,0-1.2,1.937v34.636a2.166,2.166,0,0,0,3.133,1.936c2.283-1.142,8.894-4.1,12.02-4.1a79.332,79.332,0,0,1,9.565,1.067,82.016,82.016,0,0,0,9.9,1.1,69.267,69.267,0,0,0,10.211-1.112,68.409,68.409,0,0,1,9.287-1.053,9.31,9.31,0,0,1,1.939.258,19.862,19.862,0,0,1-3.9,4.518c-3.441,2.639-9.259,3.946-17.312,3.886-.172,0-.318,0-.438,0a12.889,12.889,0,0,0-12.759,12.988v8.659a11.5,11.5,0,0,0,4.059,8.892,13.015,13.015,0,0,0-8.8,6.261h-4.574l-5.942-6.666-.036-.041a6.052,6.052,0,0,0-8.9,0,6.737,6.737,0,0,0-.089,8.989l3.167,4.212-3.165,4.213a6.737,6.737,0,0,0,.087,8.989,6.052,6.052,0,0,0,8.9,0l.038-.041,5.94-6.666h4.574a12.992,12.992,0,0,0,11.24,6.494c4.444,0,9.7,2.647,15.262,5.447,7.02,3.535,14.977,7.541,23.7,7.541a25.981,25.981,0,0,0,25.6-30.375c20.638-.888,32.846-10.43,32.846-25.908V1672.1C4187.445,1654.2,4173.168,1639.631,4155.619,1639.631Zm-78.393,80.095h-3.979a2.165,2.165,0,0,0-1.616.725l-6.564,7.366a1.725,1.725,0,0,1-2.574-.017,2.374,2.374,0,0,1,0-3.16,1.7,1.7,0,0,0,.152-.181l4.207-5.6a2.165,2.165,0,0,0,0-2.6l-4.207-5.6a1.923,1.923,0,0,0-.152-.181,2.372,2.372,0,0,1,0-3.159,1.725,1.725,0,0,1,2.574-.017l6.564,7.366a2.165,2.165,0,0,0,1.616.725h3.979A12.885,12.885,0,0,0,4077.226,1719.726Zm-11.007-85.228c2.875-1.339,8.136-3.526,10.824-3.526a79.328,79.328,0,0,1,9.565,1.067,81.8,81.8,0,0,0,9.9,1.1,69.135,69.135,0,0,0,10.211-1.112,68.409,68.409,0,0,1,9.287-1.053c2.688,0,7.949,2.187,10.824,3.526v8.239c-3.092-1.344-7.736-3.106-10.824-3.106a70.929,70.929,0,0,0-9.953,1.1,66.544,66.544,0,0,1-9.514,1.06,81.288,81.288,0,0,1-9.3-1.053,81.638,81.638,0,0,0-10.2-1.112c-3.088,0-7.732,1.762-10.824,3.106Zm0,12.988c2.875-1.339,8.136-3.525,10.824-3.525a79.3,79.3,0,0,1,9.565,1.066,81.6,81.6,0,0,0,9.9,1.1,69.953,69.953,0,0,0,10.211-1.112,68.567,68.567,0,0,1,9.287-1.052c2.688,0,7.949,2.186,10.824,3.525v3.91c-3.092-1.344-7.736-3.106-10.824-3.106a70.91,70.91,0,0,0-9.953,1.1,66.665,66.665,0,0,1-9.514,1.06,81.288,81.288,0,0,1-9.3-1.053,81.635,81.635,0,0,0-10.2-1.112c-3.088,0-7.732,1.762-10.824,3.106Zm49.789,13.793a70.9,70.9,0,0,0-9.953,1.1,66.843,66.843,0,0,1-9.514,1.06,81.067,81.067,0,0,1-9.3-1.053,81.613,81.613,0,0,0-10.2-1.111c-3.088,0-7.732,1.761-10.824,3.1v-8.238c2.875-1.339,8.136-3.527,10.824-3.527a79.532,79.532,0,0,1,9.565,1.067,81.846,81.846,0,0,0,9.9,1.1,69.285,69.285,0,0,0,10.211-1.112,68.585,68.585,0,0,1,9.287-1.053c2.178,0,6.046,1.438,8.967,2.695-1.7,2.291-3.176,4.593-4.532,6.721A16.616,16.616,0,0,0,4116.008,1661.279Zm12.989,77.93c-7.7,0-14.845-3.6-21.756-7.079-6.036-3.039-11.737-5.909-17.21-5.909a8.659,8.659,0,0,1,0-17.318c5.473,0,11.174-2.871,17.21-5.91,6.911-3.479,14.058-7.079,21.756-7.079a21.648,21.648,0,0,1,0,43.3Zm-41.118-42.83a19.772,19.772,0,0,0,7.88,3.8c1.7.436,3.364.826,5.009,1.181a43.571,43.571,0,0,1-6.339,2.514C4091.407,1702.686,4088.115,1700.462,4087.879,1696.379Zm65.6,12.493a25.929,25.929,0,0,0-1.992-4.3c10.635-.021,19.717-3.292,26.276-9.463a30.366,30.366,0,0,0,5.324-6.657C4182.45,1701,4171.773,1708.356,4153.477,1708.872Zm21.315-16.917c-5.76,5.423-13.856,8.288-23.411,8.288h-3.04a25.916,25.916,0,0,0-19.344-8.658c-7.956,0-15.269,3.329-21.818,6.594-3.4-.568-6.786-1.288-10.347-2.2-7.8-1.993-8.965-6.322-8.965-8.727a8.556,8.556,0,0,1,8.429-8.659c.111,0,.247,0,.406,0,9.024.062,15.752-1.542,19.977-4.779,2.712-2.077,4.855-5.442,7.338-9.338,5.737-9.005,12.878-20.21,30.874-20.512q.361-.008.727-.009c15.162,0,27.5,12.624,27.5,28.141A26.891,26.891,0,0,1,4174.792,1691.955Z"/><path d="M4153.5,1658.1a15.154,15.154,0,1,0,16.514,3.285A15.154,15.154,0,0,0,4153.5,1658.1Zm13.453,21.654a10.824,10.824,0,1,1,2.345-11.8A10.824,10.824,0,0,1,4166.957,1679.756Z"/></g></svg>