<svg xmlns="http://www.w3.org/2000/svg" width="105.051" height="115.227" viewBox="0 0 105.051 115.227"><g transform="translate(-1268.538 -1897.457)" style="isolation:isolate"><path d="M1373.589,1938.972c0-13.576-6.153-24.685-17.791-32.127-9.33-5.967-22.155-9.388-35.187-9.388a53.384,53.384,0,0,0-20.675,3.982,1.688,1.688,0,1,0,1.318,3.107,50,50,0,0,1,19.357-3.713c12.405,0,24.567,3.228,33.367,8.855,10.621,6.792,16.235,16.918,16.235,29.284,0,15.326-2.015,21.6-15.353,33.676-3.834,3.471-3.392,11.376,1.354,24.167a2.85,2.85,0,0,1-1.957,3.756l-8.471,2.184a1.688,1.688,0,0,0,.42,3.323c.348.055,8.459-2.17,8.894-2.238a6.225,6.225,0,0,0,4.279-8.2c-3.976-10.719-4.8-18.187-2.253-20.49,14.083-12.745,16.463-20.212,16.463-36.179Zm0,0"/><path d="M1338.2,2004.711l-17.489,4.508a2.852,2.852,0,0,1-3.346-1.683c-2-4.93-6.69-16.477-18.611-14.863-.838.114-1.672.231-2.495.347-4.063.571-8.264,1.161-10.155.851-4.005-.655-6.2-2.314-6.92-5.221a5.425,5.425,0,0,1,.893-4.462,3.336,3.336,0,0,0-1.042-4.262,9.212,9.212,0,0,0-2.318-1.118c-.026-.4.173-.939,1.022-1.55a1.687,1.687,0,0,0,.351-2.4,18.344,18.344,0,0,0-2.987-2.873.9.9,0,0,1-.243-.252c1.4-.994,4.067-3.243,3.72-5.732-.145-1.04-.86-2.448-3.441-3.242-2.827-.87-3.219-1.963-3.221-3.015,0-1.072.634-1.736,2.159-2.91a26.27,26.27,0,0,0,7.314-8.1,4.749,4.749,0,0,0,.23-4.177,16.779,16.779,0,0,0-1.271-2.266c-.7-1.112-1.43-2.263-1.261-2.989a9.022,9.022,0,0,1,.63-1.53,16.789,16.789,0,0,0,1.855-6.57,29.4,29.4,0,0,1,13.03-23.031,1.688,1.688,0,0,0-1.915-2.78,32.668,32.668,0,0,0-14.484,25.591,13.479,13.479,0,0,1-1.539,5.347,11.31,11.31,0,0,0-.865,2.208c-.489,2.1.671,3.936,1.694,5.557a13.912,13.912,0,0,1,1.023,1.8,1.357,1.357,0,0,1-.07,1.192,22.449,22.449,0,0,1-6.432,7.076c-1.385,1.068-3.481,2.681-3.475,5.592.007,2.995,1.893,5.092,5.6,6.234a2.751,2.751,0,0,1,1.083.52c-.1.565-1.4,1.886-2.71,2.737a1.713,1.713,0,0,0-.468.454,3.6,3.6,0,0,0,.947,4.929c.562.448,1.022.857,1.384,1.2a4.536,4.536,0,0,0-.324,5.327,1.7,1.7,0,0,0,1.038.7,6.7,6.7,0,0,1,1.964.811,8.6,8.6,0,0,0-1.154,6.793c1.05,4.262,4.3,6.869,9.652,7.745,2.4.393,6.462-.179,11.17-.84.818-.115,1.647-.231,2.479-.343,8.2-1.111,12.066,5.489,15.029,12.787a6.244,6.244,0,0,0,5.775,3.877,6.151,6.151,0,0,0,1.543-.2l17.488-4.508a1.688,1.688,0,0,0-.842-3.269Zm0,0"/><path d="M1298.291,1971.053h6.549a2.887,2.887,0,0,0,2.883-2.884V1966a2.01,2.01,0,0,1,2.016-2.134,1.98,1.98,0,0,1,1.811,2.006v2.3a2.887,2.887,0,0,0,2.883,2.884h15.505a2.888,2.888,0,0,0,2.884-2.884V1966a1.92,1.92,0,1,1,3.826-.126v2.3a2.888,2.888,0,0,0,2.885,2.884h6.563a2.888,2.888,0,0,0,2.884-2.884v-6.074h1.911a5.282,5.282,0,1,0-.1-10.563h-1.809v-14.54h1.911a5.282,5.282,0,1,0-.1-10.564h-1.809v-6.073a2.887,2.887,0,0,0-2.884-2.884h-6.084c.005-.685.012-1.834.012-1.907a5.282,5.282,0,0,0-10.564-.01l-.011,1.917h-14.535c0-.684.012-1.834.012-1.9a5.281,5.281,0,1,0-10.563,0h0c0,.07-.011,1.645-.013,1.9h-6.06a2.887,2.887,0,0,0-2.884,2.884v6.565a2.887,2.887,0,0,0,2.884,2.885h2.3a1.907,1.907,0,1,1,.1,3.812h-2.4a2.887,2.887,0,0,0-2.884,2.883v15.523a2.887,2.887,0,0,0,2.884,2.885h2.3a1.907,1.907,0,1,1,.1,3.811h-2.4a2.888,2.888,0,0,0-2.884,2.884v6.565a2.887,2.887,0,0,0,2.884,2.885Zm52.5-16.145a1.907,1.907,0,1,1,.1,3.811h-2.4a2.889,2.889,0,0,0-2.885,2.884v6.074h-5.579v-1.805a5.326,5.326,0,0,0-5.028-5.378,5.408,5.408,0,0,0-5.551,5.276v1.907h-5.564v-5.582h1.905a5.282,5.282,0,1,0-.1-10.563h-1.8v-5.582h6.057a2.887,2.887,0,0,0,2.883-2.884v-2.17a2.063,2.063,0,0,1,1.921-2.135,1.909,1.909,0,0,1,1.906,1.906c0,.12-.015,2.388-.015,2.4a2.887,2.887,0,0,0,2.883,2.885h6.087v6.073a2.971,2.971,0,0,0,3.171,2.883h2.015Zm-26.908-34.061h6.057a2.885,2.885,0,0,0,2.884-2.873l.015-2.408a1.905,1.905,0,1,1,3.811,0c0,.12-.015,2.388-.015,2.4a2.887,2.887,0,0,0,2.883,2.884h6.089v6.073a2.969,2.969,0,0,0,3.169,2.884h2.015a1.908,1.908,0,1,1,.1,3.813h-2.4a2.887,2.887,0,0,0-2.883,2.883v6.074h-5.593c.005-.686.012-1.834.012-1.907a5.288,5.288,0,0,0-5.282-5.282,5.4,5.4,0,0,0-5.295,5.282v1.907h-5.566v-5.582h1.911a5.282,5.282,0,1,0-.1-10.564h-1.809Zm-25.1,16.145h1.905a5.282,5.282,0,1,0-.1-10.564h-1.8v-5.581h6.057a2.885,2.885,0,0,0,2.883-2.873l.015-2.41a1.906,1.906,0,0,1,3.812,0c0,.12-.015,2.388-.015,2.4a2.886,2.886,0,0,0,2.883,2.883h6.087v6.074a2.972,2.972,0,0,0,3.171,2.884h2.014a1.908,1.908,0,1,1,.1,3.813h-2.4a2.888,2.888,0,0,0-2.885,2.883v6.073h-5.579v-1.805a5.325,5.325,0,0,0-5.029-5.377,5.409,5.409,0,0,0-5.55,5.276v1.906h-5.564Zm0,25.1h1.905a5.282,5.282,0,1,0-.1-10.564h-1.8v-5.581h6.057a2.888,2.888,0,0,0,2.883-2.885V1940.9a2.009,2.009,0,0,1,2.016-2.134,1.981,1.981,0,0,1,1.811,2.006v2.3a2.887,2.887,0,0,0,2.883,2.885h6.072v6.073a2.886,2.886,0,0,0,2.884,2.883h2.3a1.908,1.908,0,1,1,.1,3.813h-2.4a2.888,2.888,0,0,0-2.884,2.884v6.074h-5.579v-1.805a5.326,5.326,0,0,0-5.029-5.378,5.409,5.409,0,0,0-5.55,5.276v1.907h-5.564Zm0,0"/></g></svg>