<svg xmlns="http://www.w3.org/2000/svg" width="85.025" height="131.215" viewBox="0 0 85.025 131.215"><g transform="translate(-17372.533 -11199.682)"><path d="M986.851,6175.119A196.119,196.119,0,0,0,966.2,6147.9l-1.159-1.221-1.152,1.228a201.028,201.028,0,0,0-20.648,27.4c-9.446,15-20.706,37.606-20.706,60.079a42.513,42.513,0,1,0,85.026,0C1007.559,6212.657,996.3,6190.067,986.851,6175.119Zm-21.8,99.6a39.38,39.38,0,0,1-39.336-39.335c0-21.695,10.977-43.7,20.185-58.334a204.379,204.379,0,0,1,19.157-25.692A199.505,199.505,0,0,1,984.2,6176.87c9.207,14.58,20.183,36.567,20.183,58.514A39.38,39.38,0,0,1,965.046,6274.719Z" transform="translate(16450 5053)"/><path d="M974.446,6267.25a34.928,34.928,0,0,1-7.822.884c-18.485,0-33.523-14.5-33.523-32.324,0-1.539.069-3.125.206-4.713a1.588,1.588,0,1,0-3.165-.273c-.145,1.679-.219,3.356-.219,4.986,0,19.575,16.464,35.5,36.7,35.5a38.129,38.129,0,0,0,8.536-.965,1.589,1.589,0,0,0-.714-3.1Z" transform="translate(16450 5053)"/><path d="M943.221,6217.622a5.357,5.357,0,0,0,4.132-6.708c-.569-2.908-3.066-4.974-6.721-4.03a5.523,5.523,0,1,0,2.589,10.738Zm-2.161-8.868c1.816-.471,3.176.924,3.6,2.809.46,2.025-.148,3.743-1.8,4.17-1.632.422-3.029-.694-3.62-2.717C938.665,6211.023,939.259,6209.22,941.06,6208.754Z" transform="translate(16450 5053)"/><path d="M951.989,6215.639c-.161-1.616-.24-2.424-.393-4.042-.131-1.327-.3-2.966-.462-4.4l.034,0c.5,1.336,1.092,2.788,1.632,3.994.7,1.567,1.045,2.354,1.707,3.934.762-.094,1.144-.136,1.908-.212.361-1.711.554-2.566.966-4.274.333-1.284.7-2.838.991-4.224l.035,0c.108,1.549.268,3.1.407,4.372.186,1.626.277,2.44.456,4.066.951-.063,1.426-.088,2.378-.125q-.5-5.327-1.068-10.645c-1.443.066-2.165.113-3.606.233-.394,1.457-.582,2.187-.938,3.647-.285,1.222-.53,2.665-.7,3.926l-.066.008a35.679,35.679,0,0,0-1.4-3.684c-.627-1.361-.948-2.039-1.61-3.39-1.456.192-2.183.3-3.634.551q.516,5.328,1.116,10.647C950.641,6215.851,951.09,6215.777,951.989,6215.639Z" transform="translate(16450 5053)"/><path d="M970.437,6214.819c.05-.79.074-1.185.124-1.976-1.82-.114-2.731-.146-4.553-.166.01-1.014.016-1.521.027-2.536,1.678.019,2.517.047,4.193.142.044-.784.067-1.177.111-1.962-1.712-.1-2.569-.126-4.283-.144.01-.888.015-1.331.024-2.219,1.862.021,2.792.053,4.65.164.048-.791.071-1.186.119-1.977-2.994-.178-4.494-.21-7.492-.158q.092,5.339.185,10.678C966.3,6214.617,967.683,6214.648,970.437,6214.819Z" transform="translate(16450 5053)"/><path d="M977.947,6209.436c-.105.747-.158,1.12-.262,1.867.7.1,1.044.15,1.739.261-.142.889-.213,1.334-.356,2.222a4.2,4.2,0,0,1-1.227-.043,3.371,3.371,0,0,1-3.108-3.92c.245-2.317,2.076-3.265,4.306-2.935a6.394,6.394,0,0,1,2.655.9c.36-.728.542-1.091.911-1.816a9.022,9.022,0,0,0-3.255-1.054c-3.962-.588-7.073,1.256-7.349,4.786a5.368,5.368,0,0,0,1.252,4.017,6.686,6.686,0,0,0,4.244,1.942,14.3,14.3,0,0,0,3.687,0c.416-2.211.623-3.317,1.04-5.528C980.518,6209.817,979.662,6209.677,977.947,6209.436Z" transform="translate(16450 5053)"/><path d="M987.965,6206.706q-3.051,4.723-5.749,9.662c.995.2,1.491.308,2.481.539.551-1,.831-1.5,1.4-2.485,1.253.3,1.877.466,3.122.816.039,1.149.053,1.723.071,2.871,1.03.3,1.542.457,2.564.789q.024-5.64-.368-11.269C990.084,6207.233,989.379,6207.048,987.965,6206.706Zm-1.078,6.049c.482-.815.725-1.221,1.22-2.03.337-.552.711-1.29,1.043-1.858l.035.009c.013.658.016,1.478.055,2.145.049.951.071,1.426.106,2.376C988.365,6213.127,987.873,6213,986.887,6212.755Z" transform="translate(16450 5053)"/><path d="M970.6,6235.856v-.1c4.123-1.392,6.132-4.226,6.132-7.781,0-4.586-3.968-8.348-11.078-8.348a20.823,20.823,0,0,0-10.357,2.526l1.6,5.667a14.857,14.857,0,0,1,6.955-2.01c3.35,0,4.947,1.5,4.947,3.5,0,2.833-3.3,3.864-5.925,3.864h-3.092v5.617h3.194c3.453,0,6.751,1.494,6.751,4.843,0,2.472-2.062,4.431-6.132,4.431a17.727,17.727,0,0,1-7.78-2.061l-1.6,5.925a20.408,20.408,0,0,0,9.945,2.319c8.5,0,13.706-4.328,13.706-10.2C977.865,6239.618,974.618,6236.578,970.6,6235.856Z" transform="translate(16450 5053)"/></g></svg>