<svg xmlns="http://www.w3.org/2000/svg" width="132.977" height="132.977" viewBox="0 0 132.977 132.977"><g transform="translate(-1426.902 -6148.643)"><path d="M1493.39,6148.642a66.489,66.489,0,1,0,66.488,66.489A66.564,66.564,0,0,0,1493.39,6148.642Zm0,129.736a63.248,63.248,0,1,1,63.248-63.247A63.32,63.32,0,0,1,1493.39,6278.378Z"/><path d="M1503.242,6239.85a58.679,58.679,0,0,0,0-26.5c-1.147-4.926-5.029-8.5-9.231-8.5a6.757,6.757,0,0,0-2.926.653c-4.144,1.955-6.342,6.956-5.225,11.9a40.768,40.768,0,0,1,0,18.408c-1.114,4.935,1.084,9.935,5.222,11.886a6.764,6.764,0,0,0,2.932.657C1498.213,6248.351,1502.095,6244.774,1503.242,6239.85Zm-9.231,5.261a3.56,3.56,0,0,1-1.544-.343c-2.737-1.292-4.22-4.837-3.453-8.235a43.965,43.965,0,0,0,0-19.858c-.77-3.409.713-6.954,3.456-8.248a3.548,3.548,0,0,1,1.538-.341c2.269,0,5.169,2.1,6.076,6a55.391,55.391,0,0,1,0,25.031C1499.181,6243.009,1496.28,6245.111,1494.011,6245.111Z"/><path d="M1481.666,6190.438a7.016,7.016,0,0,0-4.671-1.681c-3.57,0-7.158,2.356-9.142,6a58.687,58.687,0,0,0-7.058,25.546,11.434,11.434,0,0,0,2.957,8.4,7.673,7.673,0,0,0,5.512,2.506h0a6.883,6.883,0,0,0,1.159-.1c4.514-.781,7.965-5.016,8.206-10.081a40.746,40.746,0,0,1,4.9-17.742C1485.922,6198.826,1485.134,6193.421,1481.666,6190.438Zm-.983,11.309a43.983,43.983,0,0,0-5.291,19.139c-.166,3.492-2.539,6.514-5.527,7.031a3.378,3.378,0,0,1-.6.053h0a4.48,4.48,0,0,1-3.176-1.511,8.192,8.192,0,0,1-2.056-6.021,55.448,55.448,0,0,1,6.666-24.13c1.426-2.619,3.9-4.311,6.3-4.311a3.82,3.82,0,0,1,2.553.893C1481.842,6194.863,1482.328,6198.675,1480.683,6201.747Z"/><path d="M1496.216,6197.953a40.758,40.758,0,0,1,11.165,14.636,10.832,10.832,0,0,0,9.5,6.479,8.917,8.917,0,0,0,1.867-.2,7.261,7.261,0,0,0,4.968-3.994,11.276,11.276,0,0,0-.058-9.621,58.676,58.676,0,0,0-16.078-21.067,11.682,11.682,0,0,0-7.364-2.788,7.656,7.656,0,0,0-7.063,3.923C1491.043,6189.389,1492.329,6194.7,1496.216,6197.953Zm-.187-11.145a4.5,4.5,0,0,1,4.184-2.168,8.448,8.448,0,0,1,5.3,2.046,55.406,55.406,0,0,1,15.186,19.9,8.027,8.027,0,0,1,.124,6.824,4.1,4.1,0,0,1-2.753,2.293c-2.993.636-6.3-1.306-7.74-4.452a43.973,43.973,0,0,0-12.045-15.788C1495.606,6193.217,1494.634,6189.5,1496.029,6186.808Z"/><path d="M1545.681,6201.73c-1.433-4.608-5.256-7.827-9.3-7.827a6.791,6.791,0,0,0-3.4.883c-3.99,2.251-5.818,7.4-4.345,12.249a40.73,40.73,0,0,1,1.336,18.359c-.753,5,1.8,9.83,6.073,11.477a6.749,6.749,0,0,0,2.457.458h0c4.368,0,8.28-3.941,9.1-9.168A58.656,58.656,0,0,0,1545.681,6201.73Zm-1.274,25.928c-.632,4.027-3.495,6.432-5.9,6.432a3.526,3.526,0,0,1-1.288-.241c-2.822-1.087-4.559-4.516-4.041-7.962a43.993,43.993,0,0,0-1.441-19.805c-1.016-3.345.2-6.988,2.846-8.478a3.593,3.593,0,0,1,1.8-.462c2.227,0,5.072,1.907,6.2,5.551A55.42,55.42,0,0,1,1544.407,6227.658Z"/><path d="M1522.554,6228.041c-4.594-.588-9.115,2.538-10.8,7.225a40.718,40.718,0,0,1-9.9,15.518c-3.593,3.562-4.428,8.96-1.989,12.83a7.471,7.471,0,0,0,6.552,3.355h0a11.551,11.551,0,0,0,7.921-3.428,58.715,58.715,0,0,0,14.252-22.345,11.28,11.28,0,0,0-.752-9.6A7.26,7.26,0,0,0,1522.554,6228.041Zm2.977,12.079a55.427,55.427,0,0,1-13.461,21.1,8.294,8.294,0,0,1-5.656,2.507h0a4.313,4.313,0,0,1-3.807-1.837c-1.614-2.56-.958-6.346,1.517-8.8a43.98,43.98,0,0,0,10.679-16.742,7.438,7.438,0,0,1,6.622-5.143,6.085,6.085,0,0,1,.727.046,4.093,4.093,0,0,1,2.929,2.051A8.025,8.025,0,0,1,1525.531,6240.12Z"/><path d="M1487.023,6255.71a36.936,36.936,0,0,1-12.195-11.38,10.187,10.187,0,0,0-8.23-4.545,8.3,8.3,0,0,0-3.09.588,6.747,6.747,0,0,0-3.934,4.429,10.4,10.4,0,0,0,1.536,8.748,53.521,53.521,0,0,0,17.674,16.489,11.118,11.118,0,0,0,5.521,1.529h0c3.6,0,6.53-1.9,7.455-4.827C1493.053,6262.709,1491.065,6258.073,1487.023,6255.71Zm1.651,10.049c-.494,1.561-2.209,2.569-4.369,2.569a7.889,7.889,0,0,1-3.905-1.1,50.288,50.288,0,0,1-16.6-15.488,7.155,7.155,0,0,1-1.132-5.978,3.583,3.583,0,0,1,2.035-2.382,5.1,5.1,0,0,1,1.9-.36,7,7,0,0,1,5.547,3.122,40.168,40.168,0,0,0,13.253,12.367C1488.087,6260.084,1489.495,6263.2,1488.674,6265.759Z"/><path d="M1503.584,6177.195a35.155,35.155,0,0,1,13.385,8.539,9.985,9.985,0,0,0,7.015,3,8.218,8.218,0,0,0,4.385-1.24,6.512,6.512,0,0,0,2.954-4.9,10,10,0,0,0-2.981-8,51.114,51.114,0,0,0-19.471-12.417,11,11,0,0,0-3.67-.643c-4.218,0-7.594,2.548-8.028,6.051C1496.658,6171.631,1499.348,6175.669,1503.584,6177.195Zm-3.2-9.2c.226-1.833,2.3-3.216,4.813-3.216a7.78,7.78,0,0,1,2.593.459,47.866,47.866,0,0,1,18.232,11.627,6.749,6.749,0,0,1,2.081,5.347,3.349,3.349,0,0,1-1.461,2.534c-2.133,1.342-5.38.721-7.368-1.285a38.393,38.393,0,0,0-14.607-9.318C1501.908,6173.148,1500.067,6170.507,1500.388,6168Z"/><path d="M1454.643,6192.476a8.521,8.521,0,0,0,4.409,1.206h0a10.486,10.486,0,0,0,7.418-3.266,36.921,36.921,0,0,1,13.891-9.231c4.363-1.665,7.082-5.915,6.467-10.1-.507-3.548-3.978-6.123-8.252-6.123a11.392,11.392,0,0,0-4.01.744,53.542,53.542,0,0,0-20.133,13.382,10.4,10.4,0,0,0-2.943,8.377A6.75,6.75,0,0,0,1454.643,6192.476Zm2.151-11.167a50.263,50.263,0,0,1,18.908-12.568,8.181,8.181,0,0,1,2.875-.538c2.646,0,4.768,1.4,5.047,3.347.39,2.657-1.509,5.5-4.406,6.6a40.162,40.162,0,0,0-15.1,10.034,7.182,7.182,0,0,1-5.066,2.254h0a5.226,5.226,0,0,1-2.739-.742,3.581,3.581,0,0,1-1.613-2.68A7.149,7.149,0,0,1,1456.794,6181.309Z"/><path d="M1454.132,6214.55c-.055-4.67-3.1-8.691-7.241-9.558a7,7,0,0,0-6.392,2.115,10.6,10.6,0,0,0-2.9,7.533,53.522,53.522,0,0,0,5.6,23.514c1.768,3.549,5.108,5.841,8.507,5.843h0a6.494,6.494,0,0,0,4.128-1.411c3.307-2.645,4.215-7.608,2.154-11.811A36.92,36.92,0,0,1,1454.132,6214.55Zm-.319,25.51a3.3,3.3,0,0,1-2.1.7c-1.656,0-4.119-1.06-5.607-4.049a50.243,50.243,0,0,1-5.261-22.084,7.354,7.354,0,0,1,1.952-5.232,4.01,4.01,0,0,1,2.789-1.3,3.008,3.008,0,0,1,.635.068c2.627.551,4.636,3.313,4.673,6.416a40.165,40.165,0,0,0,4.2,17.635C1456.461,6235.007,1455.913,6238.38,1453.813,6240.06Z"/></g></svg>