<svg xmlns="http://www.w3.org/2000/svg" width="118.123" height="110.152" viewBox="0 0 118.123 110.152"><g transform="translate(-1171.428 -6157.384)"><path d="M1216.262,6182.639l.811,1.649c.044.091,4.426,9.126,1.854,14.478a9.509,9.509,0,0,1-5.349,5.244,13.247,13.247,0,0,0-3.584,2.282,13.07,13.07,0,1,0,19.647,15.322c.735-1.429,1.155-4.268,1.78-8.775.612-4.412,1.373-9.9,2.653-12.761a16.786,16.786,0,0,1,5.06-5.875,11.954,11.954,0,0,1,7.85-1.507,9.612,9.612,0,0,1,7.525,7.115c.2.819.31,1.443.351,1.691l.027.156a10.942,10.942,0,1,0,15.987-11.805l-.116-.062a10.914,10.914,0,0,0-1.278-.572,29.786,29.786,0,0,0-5.832-1.481c-2.98-.544-5.795-1.057-8.555-2.945-.152-.1-.287-.217-.423-.328l-.037-.027c-.119-.109-.248-.232-.3-.279-.644-.709-2.764-3.451-3.014-8.973h-.015a18.039,18.039,0,0,0-36.036,1.227,17.785,17.785,0,0,0,1.107,6.193Zm17.054-21.158a14.947,14.947,0,0,1,14.88,13.958h.014c.042.856.124,1.658.236,2.407l-.251.021.046.284.246-.043a15.787,15.787,0,0,0,3.6,8.214c.145.14.3.291.514.479l.094.077c.2.167.409.332.636.487,3.308,2.263,6.733,2.888,9.755,3.439a27,27,0,0,1,5.262,1.32,8.206,8.206,0,0,1,.959.427l.06.033a7.825,7.825,0,1,1-11.419,8.5l-.018-.111h0c-.008-.043-.017-.1-.029-.167l-.171-1.027h-.032c-.047-.219-.1-.459-.165-.715-1.994-8.074-9.733-9.4-10.076-9.452a15.155,15.155,0,0,0-9.933,1.913l-.21.138a19.685,19.685,0,0,0-6.087,7.138c-1.462,3.262-2.224,8.758-2.9,13.607-.45,3.242-.914,6.592-1.425,7.695l-.152.317a9.951,9.951,0,1,1-14.912-11.62l.216-.176a10.2,10.2,0,0,1,2.877-1.813,12.508,12.508,0,0,0,6.8-6.7c2.484-5.17.165-12.315-1.133-15.532l.086-.026-.8-1.645a14.773,14.773,0,0,1-1.507-6.5A14.948,14.948,0,0,1,1233.316,6161.481Z"/><path d="M1277.254,6211.958a14.449,14.449,0,0,0-4.817,0l-.018-.13-1.749.523c-2.111.63-8.27,1.786-11.381-.409a7.338,7.338,0,0,1-3.3-4.739,11.022,11.022,0,0,0-1.352-3.193,10.755,10.755,0,1,0-15.114,13.872c1.074.794,3.274,1.507,6.758,2.6,3.377,1.059,7.579,2.377,9.623,3.738s3.58,3.965,4.458,5.813c.2.509.429,1.066.7,1.709.021.049.043.1.07.149l.036.095c.075.2.151.391.236.581l.282.754.1.022a14.731,14.731,0,1,0,15.475-21.384Zm9.018,16.45a11.615,11.615,0,0,1-21.978,2.994l-.037-.081c-.068-.148-.126-.3-.184-.453l-.143-.337c-.262-.623-.481-1.161-.717-1.743-1.085-2.294-2.936-5.4-5.586-7.164-2.415-1.608-6.666-2.941-10.418-4.117a36.243,36.243,0,0,1-5.778-2.089l-.267-.187a7.631,7.631,0,0,1-.707-12.881,7.641,7.641,0,0,1,11.4,3.073l.136.241a7.906,7.906,0,0,1,1.006,2.416,10.37,10.37,0,0,0,4.5,6.409c3.695,2.605,9.429,1.879,12.308,1.279l.013.1,1.744-.513a11.48,11.48,0,0,1,5.181-.319h0A11.626,11.626,0,0,1,1286.272,6228.408Z"/><path d="M1188.271,6231.346c.112,0,.226,0,.339-.006a10.088,10.088,0,0,0,9.2-6.855c.53-1.139.763-3.17,1.126-6.636.341-3.248.764-7.291,1.618-9.378a13.583,13.583,0,0,1,4.409-5.055c.426-.278.89-.586,1.426-.952.05-.034.1-.073.071-.056l.128-.082c.163-.1.324-.207.48-.318l.714-.44,0-.11a13.745,13.745,0,1,0-22.483-10.145,13.559,13.559,0,0,0,.842,4.283l-.132.044.865,1.624c.951,1.784,3.112,7.112,1.713,10.292a6.625,6.625,0,0,1-3.64,3.809,10.338,10.338,0,0,0-2.67,1.827,10.069,10.069,0,0,0,6,18.154Zm-4.059-15.71.209-.181a7.287,7.287,0,0,1,1.977-1.333,9.7,9.7,0,0,0,5.04-5.31c1.673-3.8.036-8.8-1.043-11.361l.1-.033-.854-1.62a10.623,10.623,0,1,1,20.019-5.3,10.63,10.63,0,0,1-4.294,8.893l-.077.057c-.12.086-.245.165-.37.245l-.285.2c-.516.352-.963.648-1.453.972a16.672,16.672,0,0,0-5.509,6.428c-1.022,2.5-1.453,6.608-1.832,10.233a33.51,33.51,0,0,1-.833,5.6l-.118.274a6.947,6.947,0,1,1-10.674-7.763Z"/><path d="M1257.055,6234.8a16.5,16.5,0,0,0-26.246-6.3l-.078-.1-1.225,1.357c-1.692,1.876-7.049,6.675-11.467,6.371a8.514,8.514,0,0,1-6.129-2.715,12.328,12.328,0,0,0-3.155-2.278,12,12,0,1,0-6.405,21.976c1.475.142,4.02-.459,8.036-1.445,3.917-.962,8.792-2.165,11.609-2.038,2.848.122,5.89,1.762,7.86,3.06.5.374,1.053.788,1.7,1.256.054.038.108.074.1.06l.142.109c.188.146.376.291.571.426l.583.466.095-.026a16.522,16.522,0,0,0,24.012-20.176Zm-3.042,11.411a13.406,13.406,0,0,1-19.789,5.821l-.055-.038c-.16-.109-.312-.228-.465-.347l-.325-.233c-.624-.452-1.164-.854-1.726-1.274-2.379-1.571-5.963-3.476-9.524-3.629-3.263-.142-8.163,1.063-12.486,2.125a41.3,41.3,0,0,1-6.9,1.379l-.222-.03-.13,0a8.886,8.886,0,1,1,4.723-16.206l.241.135a9.168,9.168,0,0,1,2.455,1.792,11.471,11.471,0,0,0,8.015,3.524c5.169.362,10.374-3.884,12.72-6.1l.058.071,1.225-1.34a13.263,13.263,0,0,1,4.923-3.414h0a13.406,13.406,0,0,1,17.265,17.762Z"/><path d="M1205.465,6176.583a9.6,9.6,0,1,0-9.6-9.6A9.61,9.61,0,0,0,1205.465,6176.583Zm0-16.081a6.482,6.482,0,1,1-6.482,6.482A6.49,6.49,0,0,1,1205.465,6160.5Z"/><path d="M1261.052,6184.384a6.392,6.392,0,1,0-6.392-6.392A6.4,6.4,0,0,0,1261.052,6184.384Zm0-9.667a3.275,3.275,0,1,1-3.275,3.275A3.279,3.279,0,0,1,1261.052,6174.717Z"/><path d="M1266.675,6242.055a9.7,9.7,0,1,0,9.7,9.7A9.712,9.712,0,0,0,1266.675,6242.055Zm0,16.285a6.584,6.584,0,1,1,6.584-6.584A6.592,6.592,0,0,1,1266.675,6258.34Z"/><path d="M1184.361,6231.538a5.625,5.625,0,1,0,5.624,5.625A5.631,5.631,0,0,0,1184.361,6231.538Zm0,8.132a2.507,2.507,0,1,1,2.508-2.507A2.51,2.51,0,0,1,1184.361,6239.67Z"/><path d="M1219.611,6252.261a7.637,7.637,0,1,0,7.637,7.637A7.646,7.646,0,0,0,1219.611,6252.261Zm0,12.157a4.52,4.52,0,1,1,4.52-4.52A4.525,4.525,0,0,1,1219.611,6264.418Z"/><path d="M1186,6203.971a7.288,7.288,0,1,0-7.288,7.287A7.3,7.3,0,0,0,1186,6203.971Zm-11.459,0a4.17,4.17,0,1,1,4.171,4.17A4.176,4.176,0,0,1,1174.545,6203.971Z"/><path d="M1281.933,6209.143a3.857,3.857,0,1,0-3.857-3.857A3.862,3.862,0,0,0,1281.933,6209.143Zm0-4.6a.74.74,0,1,1-.74.74A.741.741,0,0,1,1281.933,6204.546Z"/></g></svg>