<svg xmlns="http://www.w3.org/2000/svg" width="60" height="47.14" viewBox="0 0 60 47.14"><path d="M6359.772,8738.851a1.11,1.11,0,0,0-1.445-.168,3.507,3.507,0,0,1-1.57.344,6.716,6.716,0,0,1-1.873-.454,20.466,20.466,0,0,1-6.856-4.441c-1.23-1.131-2.435-2.3-3.747-3.332a16.08,16.08,0,0,0-7.463-3.551,4.129,4.129,0,0,0-4.006,1.276c-1.165,1.289-2.423,2.5-3.672,3.709a3.553,3.553,0,0,0-1.091,2.571,11.12,11.12,0,0,0,1.35,5.254,29.2,29.2,0,0,0,5.275,7.034c1.093,1.163,2.007,2.5,2.988,3.761a3.438,3.438,0,0,1,.313.649,7.035,7.035,0,0,1-1.887-1.123c-1.653-1.429-3.243-2.929-4.907-4.346a19.035,19.035,0,0,0-7.962-4.346,4.476,4.476,0,0,0-4.847,1.366c-1.1,1.281-2.367,2.427-3.572,3.621a3.145,3.145,0,0,0-.936,1.944,10.358,10.358,0,0,0,1.314,5.784,26.45,26.45,0,0,0,4.871,6.59c.893.931,1.75,1.905,2.55,2.917a12.5,12.5,0,0,1,.993,1.759l-.176.143c-.645-.457-1.332-.864-1.924-1.38-1.465-1.271-2.86-2.623-4.332-3.886a19.72,19.72,0,0,0-8.1-4.5c-1.883-.463-3.586-.3-4.9,1.344a14.486,14.486,0,0,1-1.079,1.1c-.9.9-1.8,1.8-2.681,2.714a1.055,1.055,0,0,0,1.36,1.6,2.141,2.141,0,0,1,1.776-.35,14.386,14.386,0,0,1,6.593,3.233c1.63,1.313,3.105,2.815,4.706,4.167a18.932,18.932,0,0,0,7.86,4.265,4.471,4.471,0,0,0,4.85-1.358c1.074-1.249,2.293-2.373,3.476-3.525a3.52,3.52,0,0,0,1.074-2.511,11.014,11.014,0,0,0-1.358-5.32,27.028,27.028,0,0,0-4.917-6.637c-1.029-1.077-1.97-2.243-2.9-3.406a6.868,6.868,0,0,1-.662-1.311l.155-.1a19.4,19.4,0,0,1,1.691,1.186c1.617,1.4,3.176,2.871,4.8,4.261a19.229,19.229,0,0,0,8.012,4.394,4.471,4.471,0,0,0,4.851-1.354c1.106-1.278,2.367-2.426,3.571-3.619a3.239,3.239,0,0,0,.95-2.011,9.46,9.46,0,0,0-.871-4.748,23.917,23.917,0,0,0-4.853-7.077c-.993-1.056-1.994-2.107-2.91-3.229a12.543,12.543,0,0,1-1.089-1.916l.221-.171c.9.683,1.838,1.321,2.693,2.059,1.656,1.424,3.2,2.98,4.908,4.341a15.653,15.653,0,0,0,7.472,3.524,3.737,3.737,0,0,0,3.29-.7c1.574-1.484,3.076-3.043,4.591-4.59A.978.978,0,0,0,6359.772,8738.851Zm-34.559,33.067a2.6,2.6,0,0,1-1.73.164,13.2,13.2,0,0,1-6.183-3c-1.641-1.329-3.142-2.832-4.744-4.215a19.011,19.011,0,0,0-7.539-4.289c-.23-.061-.462-.118-.747-.19a17.886,17.886,0,0,1,2.2-2.186,2.573,2.573,0,0,1,1.73-.161,13.656,13.656,0,0,1,6.341,3.124c1.552,1.265,2.97,2.692,4.48,4.009a19.194,19.194,0,0,0,7.521,4.323c.271.074.545.145.894.234A18.18,18.18,0,0,1,6325.213,8771.918Zm-.073-14.742a19.2,19.2,0,0,1,4.271,6.563,14.157,14.157,0,0,1,.556,2.991.821.821,0,0,1-1,.956,27.8,27.8,0,0,1-2.8-.557c-.111-.024-.242-.252-.253-.393a9.764,9.764,0,0,0-2.841-5.69c-1.592-1.8-3.234-3.566-4.707-5.463a11.839,11.839,0,0,1-2.4-5.447c-.035-.219-.054-.44-.065-.531-.014-1.235.361-1.593,1.452-1.5a6.252,6.252,0,0,1,.988.156,3.254,3.254,0,0,1,1.436.464c.285.277.265.891.336,1.362a6.766,6.766,0,0,0,1.67,3.37C6322.858,8754.732,6324.012,8755.944,6325.141,8757.176Zm14.336.392a2.685,2.685,0,0,1-1.787.19,14.142,14.142,0,0,1-6.239-3.049,34.189,34.189,0,0,1-2.765-2.423c-2.916-2.812-6.032-5.288-10.152-6.205a17.967,17.967,0,0,1,2.22-2.229,2.6,2.6,0,0,1,1.738-.121,13.558,13.558,0,0,1,6.227,3.067c1.573,1.277,3.013,2.716,4.542,4.048a19.193,19.193,0,0,0,8.418,4.588A17.167,17.167,0,0,1,6339.477,8757.567ZM6337,8740.342c1.407,1.552,2.868,3.062,4.177,4.693a13.613,13.613,0,0,1,3.011,6.328c.035.22.052.442.063.533.006,1.214-.342,1.545-1.416,1.463-.243-.018-.487-.055-.73-.084-.929-.115-1.568-.372-1.794-1.521a10.635,10.635,0,0,0-2.817-4.788c-1.409-1.608-2.909-3.145-4.254-4.8a13.972,13.972,0,0,1-2.946-5.861,8.146,8.146,0,0,1-.121-1.591.826.826,0,0,1,.979-.922c1.007.134,2,.388,2.991.622a.5.5,0,0,1,.261.388C6334.357,8737.076,6335.563,8738.759,6337,8740.342Zm16.589,2.977a2.464,2.464,0,0,1-1.674.107,14.075,14.075,0,0,1-6.284-3.091,39.248,39.248,0,0,1-2.949-2.611c-2.843-2.734-5.924-5.057-10.089-6.013.806-.77,1.473-1.46,2.2-2.074a1.329,1.329,0,0,1,.975-.3,20.006,20.006,0,0,1,3.522.9,19.432,19.432,0,0,1,5.74,3.968c1.162,1.073,2.295,2.183,3.52,3.179a18.028,18.028,0,0,0,7.175,3.682A18.209,18.209,0,0,1,6353.587,8743.318Z" transform="translate(-6300.07 -8727.17)"/></svg>