<svg xmlns="http://www.w3.org/2000/svg" width="103.104" height="122.758" viewBox="0 0 103.104 122.758"><path d="M493.207,6225.267c0-.029-.01-.057-.014-.086a3.651,3.651,0,0,0-.091-.441c-.012-.044-.023-.087-.037-.13a3.565,3.565,0,0,0-.189-.493c-.006-.012-.014-.024-.02-.036a3.665,3.665,0,0,0-.254-.43c-.025-.038-.051-.074-.077-.11a3.63,3.63,0,0,0-.355-.422L476.2,6207.146l-.016-.014a3.8,3.8,0,0,0-.4-.335c-.042-.031-.084-.061-.127-.09a3.7,3.7,0,0,0-.408-.24c-.017-.009-.035-.02-.053-.029a3.487,3.487,0,0,0-.49-.188c-.042-.014-.085-.025-.128-.037a3.549,3.549,0,0,0-.448-.092c-.026,0-.052-.01-.079-.013a3.629,3.629,0,0,0-.521-.022c-.049,0-.1.007-.147.01-.066,0-.132,0-.2.014s-.125.023-.187.034-.109.017-.163.029a3.66,3.66,0,0,0-.488.145c-.039.014-.075.033-.113.049a3.381,3.381,0,0,0-.4.195c-.025.014-.053.022-.078.037a122.7,122.7,0,0,1-15.512,7.888,3.623,3.623,0,0,0-2.108,4.212,3.68,3.68,0,0,0,.167.544,3.632,3.632,0,0,0,4.756,1.94c1.888-.793,3.769-1.656,5.643-2.555a121.044,121.044,0,0,0-6.567,16.651,87.6,87.6,0,0,1-12.52,2.446,92.936,92.936,0,0,1,4.051-17.927,118.139,118.139,0,0,1,11.1-24.189c.014-.024.023-.05.036-.074a3.618,3.618,0,0,0,.2-.409c.014-.033.031-.066.043-.1a3.576,3.576,0,0,0,.149-.5c.01-.045.016-.091.025-.137.012-.068.029-.135.037-.2s.009-.14.014-.21c0-.044.007-.088.008-.133a3.619,3.619,0,0,0-.021-.521c0-.031-.01-.06-.015-.09a3.629,3.629,0,0,0-.09-.436c-.012-.045-.024-.09-.038-.135a3.7,3.7,0,0,0-.188-.487c-.008-.017-.018-.033-.026-.049a3.759,3.759,0,0,0-.245-.416c-.028-.04-.055-.079-.084-.118a3.553,3.553,0,0,0-.352-.417L444.249,6175.2a3.686,3.686,0,0,0-.416-.351c-.04-.029-.08-.057-.121-.085a3.512,3.512,0,0,0-.418-.247c-.015-.007-.029-.016-.043-.024a3.757,3.757,0,0,0-.5-.191l-.118-.033a3.516,3.516,0,0,0-.467-.1c-.02,0-.04-.008-.06-.01a3.488,3.488,0,0,0-.535-.022c-.041,0-.082.006-.123.008-.072,0-.143.006-.215.015s-.134.024-.2.036c-.047.009-.094.016-.14.026a3.656,3.656,0,0,0-.5.149c-.03.011-.058.026-.088.038a3.818,3.818,0,0,0-.427.209c-.021.012-.043.02-.064.032a122.779,122.779,0,0,1-15.513,7.887,3.625,3.625,0,0,0-2.108,4.212,3.569,3.569,0,0,0,.167.544,3.633,3.633,0,0,0,4.756,1.941c1.888-.794,3.769-1.656,5.642-2.555a121.1,121.1,0,0,0-6.566,16.651,87.569,87.569,0,0,1-12.531,2.447,91.857,91.857,0,0,1,4.042-17.924,118.524,118.524,0,0,1,11.12-24.193,3.631,3.631,0,0,0-.546-4.437l-9.446-9.447a10.586,10.586,0,0,0-16.937,2.748c-11.628,23.093-11.764,40.475-11.765,41.214a3.647,3.647,0,0,0,.07.706c.013.063.039.123.055.185a3.734,3.734,0,0,0,.149.493c.031.075.078.142.114.215a3.5,3.5,0,0,0,.219.411,3.621,3.621,0,0,0,.457.559l15.974,15.973a3.614,3.614,0,0,0,.557.457c.093.061.2.1.292.155a3.429,3.429,0,0,0,.335.178,3.582,3.582,0,0,0,.368.112c.1.03.2.072.31.093a3.608,3.608,0,0,0,.649.064c.019,0,.038.006.057.006h0a71.145,71.145,0,0,0,14.306-1.966,71.119,71.119,0,0,0-1.966,14.306,3.642,3.642,0,0,0,.07.706c.012.064.039.123.055.185a3.662,3.662,0,0,0,.149.493c.031.075.078.142.114.215a3.534,3.534,0,0,0,.219.411,3.621,3.621,0,0,0,.457.559l15.973,15.974a3.68,3.68,0,0,0,.559.457c.042.028.09.045.134.071a3.623,3.623,0,0,0,.5.262c.014.006.028.008.041.013a3.629,3.629,0,0,0,1.34.261,71.1,71.1,0,0,0,14.307-1.966,71.107,71.107,0,0,0-1.966,14.307,3.631,3.631,0,0,0,1.064,2.568l6.124,6.125a10.438,10.438,0,0,0,7.42,3.112,10.8,10.8,0,0,0,3.017-.435,10.424,10.424,0,0,0,7.356-7.843,114.3,114.3,0,0,1,13.714-33.6c.016-.026.024-.054.039-.08a3.581,3.581,0,0,0,.2-.4c.015-.036.033-.072.047-.109a3.656,3.656,0,0,0,.147-.5c.01-.046.017-.093.026-.14.011-.068.028-.134.036-.2s.009-.139.014-.208c0-.045.007-.089.009-.134A3.772,3.772,0,0,0,493.207,6225.267Zm-86.344-23.559-9.4-9.4c.306-4.449,1.966-18.728,10.92-36.512a3.311,3.311,0,0,1,2.457-1.8,3.265,3.265,0,0,1,2.856.923l7.461,7.463C411.671,6178.961,408.162,6193.276,406.863,6201.708Zm31.947,31.947-9.407-9.406c.317-4.76,2.178-20.8,13.061-40.562l10.638,10.638C443.619,6210.908,440.108,6225.224,438.81,6233.655Zm33.1,25.929a3.3,3.3,0,0,1-5.564,1.607l-5-5c.318-4.76,2.178-20.8,13.062-40.561l10.637,10.638A120.8,120.8,0,0,0,471.91,6259.584Z" transform="translate(-390.127 -6146.682)"/></svg>