<svg xmlns="http://www.w3.org/2000/svg" width="92.785" height="92.711" viewBox="0 0 92.785 92.711"><g transform="translate(-6109.54 -11578.952)" style="isolation:isolate"><path d="M6195.634,11606.906a6.877,6.877,0,0,0-6.777,5.374,74.558,74.558,0,0,0-10.612,11.888v5.071l-6.48,6.479a16.535,16.535,0,0,0-4.874,11.766v14a1.359,1.359,0,0,0,2.719,0v-14a13.83,13.83,0,0,1,4.077-9.843l7.805-7.806a4.1,4.1,0,1,1,5.806,5.8l-7.021,7.021a1.359,1.359,0,0,0,1.923,1.922l7.02-7.019a6.842,6.842,0,0,0,1-8.38,6.566,6.566,0,0,0,1.175-3.764v-11.585a4.191,4.191,0,0,1,4.186-4.212,4.125,4.125,0,0,1,4.025,4.1v18.7a3.861,3.861,0,0,1-1.14,2.75l-10.295,10.295a11.35,11.35,0,0,0-3.345,8.076v15.4H6169.61v-1.112a1.359,1.359,0,1,0-2.719,0v2.471a1.36,1.36,0,0,0,1.36,1.36h17.935a1.36,1.36,0,0,0,1.359-1.36v-16.754a8.639,8.639,0,0,1,2.55-6.153l10.295-10.3a6.562,6.562,0,0,0,1.935-4.672v-18.7A6.856,6.856,0,0,0,6195.634,11606.906Zm-12.163,19.075a6.8,6.8,0,0,0-2.507.858v-2.672a4.086,4.086,0,0,1,2.507-3.778Zm5.207-.561a3.869,3.869,0,0,1-.394,1.71,6.762,6.762,0,0,0-2.1-.974v-7.213a4.089,4.089,0,0,1,2.489-3.771Z"/><path d="M6133.62,11629.239v-5.071a74.527,74.527,0,0,0-10.612-11.888,6.81,6.81,0,0,0-13.468,1.446v18.7a6.56,6.56,0,0,0,1.935,4.672l10.295,10.3a8.643,8.643,0,0,1,2.55,6.154v1.095a1.359,1.359,0,1,0,2.718,0v-1.095a11.343,11.343,0,0,0-3.346-8.076l-10.294-10.295a3.861,3.861,0,0,1-1.14-2.751v-18.7a4.125,4.125,0,0,1,4.025-4.1,4.192,4.192,0,0,1,4.186,4.212v11.585a6.545,6.545,0,0,0,1.175,3.764,6.843,6.843,0,0,0,1,8.38l7.021,7.02a1.36,1.36,0,0,0,1.923-1.923l-7.021-7.021a4.105,4.105,0,0,1,5.806-5.8l7.805,7.806a13.829,13.829,0,0,1,4.077,9.843v21.46h-15.217v-7.958a1.359,1.359,0,1,0-2.718,0v9.316a1.36,1.36,0,0,0,1.359,1.36h17.935a1.36,1.36,0,0,0,1.359-1.36v-22.819a16.533,16.533,0,0,0-4.873-11.765Zm-7.944-3.088a6.757,6.757,0,0,0-2.1.978,3.87,3.87,0,0,1-.393-1.708v-10.248a4.084,4.084,0,0,1,2.484,3.554C6125.679,11620.332,6125.676,11616.172,6125.676,11626.151Zm5.225.687a6.734,6.734,0,0,0-2.507-.861v-5.586a4.082,4.082,0,0,1,2.507,3.777Z"/><path d="M6171.974,11600.281a3.17,3.17,0,0,0-2.779-1.646h-6.363a.451.451,0,0,1-.426-.6l5.3-14.842a3.173,3.173,0,0,0-2.986-4.237h-10.888a3.178,3.178,0,0,0-2.987,2.1l-1.537,4.306a1.359,1.359,0,0,0,2.56.913l1.537-4.3a.455.455,0,0,1,.427-.3h10.888a.453.453,0,0,1,.426.606l-5.3,14.842a3.171,3.171,0,0,0,2.986,4.235h6.362a.455.455,0,0,1,.382.7l-16.8,26.393h-3.731l6.163-17.256a1.819,1.819,0,0,0-1.713-2.429h-9.012a.451.451,0,0,1-.426-.6l5.645-15.808a1.36,1.36,0,0,0-2.561-.914l-5.645,15.809a3.172,3.172,0,0,0,2.987,4.235h7.735l-5.789,16.21a2.6,2.6,0,0,0,2.448,3.476h3.964a2.59,2.59,0,0,0,2.193-1.2l16.838-26.448A3.171,3.171,0,0,0,6171.974,11600.281Z"/><path d="M6176.6,11599.894a3.689,3.689,0,0,0,3.684,3.686h3.134a3.685,3.685,0,0,0,0-7.37h-3.134A3.69,3.69,0,0,0,6176.6,11599.894Zm7.784,0a.967.967,0,0,1-.966.968h-3.134a.967.967,0,0,1,0-1.934h3.134A.967.967,0,0,1,6184.385,11599.894Z"/><path d="M6177.689,11609.845a3.685,3.685,0,0,0-5.211,5.211l2.216,2.217a3.685,3.685,0,0,0,5.212-5.211Zm.294,5.5a.966.966,0,0,1-1.366,0l-2.216-2.216a.966.966,0,0,1,1.367-1.366l2.215,2.216A.968.968,0,0,1,6177.983,11615.35Z"/><path d="M6172.478,11589.943a3.689,3.689,0,0,0,5.211,0l2.217-2.217a3.685,3.685,0,1,0-5.212-5.21l-2.216,2.216a3.684,3.684,0,0,0,0,5.211Zm1.923-3.288,2.216-2.216a.966.966,0,1,1,1.366,1.365l-2.215,2.217a.966.966,0,0,1-1.367-1.366Z"/><path d="M6128.445,11603.579h3.134a3.685,3.685,0,1,0,0-7.37h-3.134a3.685,3.685,0,0,0,0,7.37Zm0-4.651h3.134a.967.967,0,1,1,0,1.934h-3.134a.967.967,0,0,1,0-1.934Z"/><path d="M6134.176,11609.845l-2.217,2.217a3.685,3.685,0,0,0,5.212,5.211l2.215-2.217a3.685,3.685,0,0,0-5.21-5.211Zm3.288,3.289-2.216,2.216a.966.966,0,0,1-1.367-1.366l2.216-2.217a.967.967,0,0,1,1.367,1.367Z"/><path d="M6134.175,11589.943a3.685,3.685,0,0,0,5.211-5.211l-2.215-2.216a3.685,3.685,0,0,0-5.212,5.211Zm-.294-5.5a.964.964,0,0,1,1.367,0l2.216,2.216a.966.966,0,0,1-1.367,1.366l-2.216-2.217A.965.965,0,0,1,6133.881,11584.439Z"/></g></svg>