<svg xmlns="http://www.w3.org/2000/svg" width="94.18" height="94.244" viewBox="0 0 94.18 94.244"><g transform="translate(-5986.078 -4552.508)"><path d="M6079.984,4609.234a5.624,5.624,0,0,0-10.862.455,17.9,17.9,0,0,0-.158,3.206c-.022,1.8-.006,3.6-.006,5.526h-.981q-24,0-48.006.016a1.468,1.468,0,0,1-1.394-.777c-2.029-3.1-4.115-6.167-6.143-9.269a2.522,2.522,0,0,0-2.357-1.274c-2.36.045-4.721.017-7.082.018h-5.623v-1.055c0-1.992.013-3.985-.007-5.977a8,8,0,0,0-.17-1.823,5.638,5.638,0,0,0-11.109,1.57q-.019,22.255,0,44.512c0,1.609.7,2.3,2.293,2.322a6.789,6.789,0,0,0,.828,0c2.523-.274,5.13.613,7.59-.545,1.219-2.446.289-5.056.572-7.574a11.3,11.3,0,0,0,.006-1.224h71.594v1.047c0,1.931,0,3.862,0,5.794.006,1.871.63,2.5,2.467,2.5,2.115,0,4.231-.029,6.346.013a2.317,2.317,0,0,0,2.477-1.484V4609.9C6080.166,4609.677,6080.058,4609.461,6079.984,4609.234Zm-86.368,33.116c0,.151-.024.3-.044.538h-3.67c-.019-.348-.052-.671-.052-.993q-.007-20.815-.006-41.631a5.023,5.023,0,0,1,.1-1.094,1.717,1.717,0,0,1,1.6-1.411,1.76,1.76,0,0,1,1.891,1.146,3.287,3.287,0,0,1,.174,1.079Q5993.623,4621.167,5993.616,4642.35Zm3.756-23.991v-4.416c0-.795.014-1.592,0-2.387-.011-.444.107-.674.612-.673,3.7.014,7.408,0,11.111.023a.942.942,0,0,1,.678.343c1.542,2.28,3.055,4.579,4.571,6.876.026.041,0,.114,0,.234Zm22.531,15.058h-22.464v-11.172H6019.9Zm7.523.016h-3.6v-11.191h3.6Zm41.5-.017h-37.558v-11.148h37.558Zm7.576,9.447h-3.778v-2.169q0-14.383,0-28.766a6.527,6.527,0,0,1,.137-1.545,1.815,1.815,0,0,1,3.547.184,6.271,6.271,0,0,1,.085,1.1q.007,15.119,0,30.237Z"/><path d="M6040.047,4596.643a22.4,22.4,0,0,0,15.377-25.058c-1.39-8.554-6.324-14.441-14.383-17.589a45.911,45.911,0,0,0-6.033-1.488h-3.678c-.3.06-.6.1-.894.182a43.072,43.072,0,0,0-6.168,1.695,22.58,22.58,0,0,0,15.779,42.258Zm-6.886-40.362a18.822,18.822,0,1,1-18.807,18.847A18.84,18.84,0,0,1,6033.161,4556.281Z"/><path d="M6025.866,4576.978q3.541.03,7.081,0a1.867,1.867,0,0,0,2.082-2.038q.038-5.472.007-10.944a1.876,1.876,0,1,0-3.73.037c-.02,2.7-.007,5.4-.007,8.093v1.112h-1.076c-1.471,0-2.943-.03-4.414,0a1.877,1.877,0,1,0,.057,3.736Z"/></g></svg>