<svg xmlns="http://www.w3.org/2000/svg" width="120.382" height="152.583" viewBox="0 0 120.382 152.583"><g transform="translate(-245.751 -2202.825)" style="isolation:isolate"><path d="M357.4,2259.756a8.731,8.731,0,1,0,0-17.462H344.569a16.343,16.343,0,0,0-3.934-11.411c.392-.18.782-.372,1.16-.591a13.617,13.617,0,0,0,6.387-8.324l.505-1.885a13.711,13.711,0,0,0-9.693-16.79h0a13.727,13.727,0,0,0-16.789,9.7l-.505,1.883a13.615,13.615,0,0,0,1.37,10.4c.13.226.268.446.41.663a16.409,16.409,0,0,0-7.516,4.914l-10.145,6.645a7.119,7.119,0,0,0-2.6,8.942l4.752,10.489-2.607,11.18v.012a2.974,2.974,0,0,0-.077.665v26.225a2.967,2.967,0,0,0,.644,1.848v11.434H287.893a2.965,2.965,0,0,0-1.83-.63h-7.68a9.516,9.516,0,0,0-9.505,9.505v18.527a2.982,2.982,0,0,0,2.981,2.98H274.4a14.666,14.666,0,0,0,14.323-11.608h27.189a14.175,14.175,0,0,0,13.457-9.77l.65.916v17.946a2.966,2.966,0,0,0-.836,2.067v7.679a9.516,9.516,0,0,0,9.505,9.5h18.527a2.98,2.98,0,0,0,2.98-2.98v-2.544a14.666,14.666,0,0,0-10.259-13.97v-24.176a28.756,28.756,0,0,0-1.424-8.945l-3.682-11.262-5.35-22.8,1.789-8.977Zm-74.318,64.275a8.692,8.692,0,0,1-8.244,8.67v-15.535a3.549,3.549,0,0,1,3.544-3.546h4.7Zm44.373-107.616.5-1.884a7.749,7.749,0,0,1,14.97,4.01l-.505,1.885a7.747,7.747,0,0,1-9.212,5.546c-.23-.074-.463-.141-.7-.2-.031-.009-.064-.015-.1-.023a7.748,7.748,0,0,1-4.962-9.33Zm-18.374,26.066,2.665-1.745-1.552,6.657-1.547-3.414A1.193,1.193,0,0,1,309.082,2242.481Zm15.028,70.429a8.2,8.2,0,0,1-8.2,8.2H289.043v-6.854h19.868a2.98,2.98,0,0,0,2.98-2.98v-13.282H324.11Zm.446-20.881h-13.31v-20.265h16.611Zm21,49.174a8.694,8.694,0,0,1,8.671,8.245H338.69a3.55,3.55,0,0,1-3.545-3.545v-4.7Zm-5.622-45.475,2.915,8.918a22.763,22.763,0,0,1,1.129,7.09v23.506h-8v-17.979a2.985,2.985,0,0,0-.548-1.723l-5.363-7.571V2297.5Zm-9.224-4.4,3.186-19.567h.176l4.27,18.194Zm8.172-37.535H335.3a8.576,8.576,0,0,1-8.193-6.144,2.98,2.98,0,1,0-5.721,1.668,14.567,14.567,0,0,0,13.806,10.436l-1.2,6.048H312.022l6.214-26.646a10.271,10.271,0,0,1,1.994-4.117l.082-.1a10.374,10.374,0,0,1,2.673-2.3,10.239,10.239,0,0,1,7.744-1.176c.219.07.44.136.663.2.048.013.1.021.145.034a10.358,10.358,0,0,1,6.89,11.835l-.229,1.169a2.978,2.978,0,0,0,2.924,3.554H357.4a2.771,2.771,0,0,1,0,5.542Z"/><path d="M318.169,2349.448H281.7a2.98,2.98,0,0,0,0,5.96h36.464a2.98,2.98,0,1,0,0-5.96Z"/><path d="M271.4,2349.448a2.981,2.981,0,1,0,2.107.873A3,3,0,0,0,271.4,2349.448Z"/><path d="M259.66,2271.764a2.98,2.98,0,1,0-2.107-.873A3.012,3.012,0,0,0,259.66,2271.764Z"/><path d="M289.043,2285.473a2.98,2.98,0,0,0-2.98-2.98H248.731a2.98,2.98,0,1,0,0,5.96h37.332A2.98,2.98,0,0,0,289.043,2285.473Z"/><path d="M271.579,2271.764h20.067a2.98,2.98,0,1,0,0-5.96H271.579a2.98,2.98,0,1,0,0,5.96Z"/></g></svg>