<svg xmlns="http://www.w3.org/2000/svg" width="60" height="65.091" viewBox="0 0 60 65.091"><g transform="translate(-6280.564 -11301.456)"><path d="M6340.563,11312.627c-.007-1.564-.01-1.564-1.495-2.048q-13.8-4.515-27.6-9.006a3.05,3.05,0,0,0-1.667,0c-1.506.418-2.982.941-4.469,1.427q-11.8,3.851-23.6,7.7c-.6.2-1.121.378-1.141,1.192a70.927,70.927,0,0,0,3.239,23.869c4.457,13.739,12.947,24.074,25.96,30.562a1.5,1.5,0,0,0,1.489.054,49.157,49.157,0,0,0,22.7-22.43c4.405-8.772,6.284-18.146,6.58-27.891C6340.563,11314.911,6340.566,11313.77,6340.563,11312.627Zm-6.3,26.753a47.732,47.732,0,0,1-23.091,25.22,1.119,1.119,0,0,1-1.166,0,47.885,47.885,0,0,1-23.484-26.168,64.7,64.7,0,0,1-4.167-19.615c-.053-.848-.1-1.7-.14-2.4,0-1.289.019-2.431-.009-3.571-.011-.452.149-.631.582-.771q13.653-4.437,27.3-8.9a1.823,1.823,0,0,1,1.063,0q13.542,4.4,27.071,8.834c.4.133.742.215.749.818A67.193,67.193,0,0,1,6334.26,11339.38Z" transform="translate(0 -0.001)"/><path d="M6325.46,11338.292h-1.935c-.445-1.065-.852-2.04-1.331-3.189.4-.369.918-.841,1.423-1.327.385-.371.53-.806.107-1.23a.774.774,0,0,0-1.23.093c-.481.513-.941,1.044-1.3,1.441l-3.239-1.341c0-.605,0-1.256,0-1.907,0-.56-.179-1.029-.815-1.013s-.8.481-.8,1.042c.005.672,0,1.345,0,1.875l-3.206,1.347c-.2-.238-.451-.575-.742-.871-.965-.983-1.341-1.119-1.791-.691s-.312.871.637,1.79a8.782,8.782,0,0,0,.912.713l-1.36,3.269h-1.846c-.579,0-1.088.149-1.068.842.019.642.508.778,1.056.776.67,0,1.34,0,1.851,0l1.324,3.149-1.363,1.315c-.406.391-.6.838-.146,1.29s.907.244,1.287-.16c.46-.49.908-.991,1.254-1.369l3.2,1.327c0,.416-.007.909,0,1.4.011.637-.152,1.4.788,1.523.6.079.823-.388.824-1.556v-1.362l3.242-1.353c.353.4.81.93,1.289,1.442.369.4.807.523,1.23.1s.292-.86-.1-1.23c-.508-.484-1.035-.947-1.435-1.312.485-1.166.892-2.141,1.339-3.213h1.925c.571,0,1.013-.218.995-.841C6326.428,11338.492,6325.992,11338.293,6325.46,11338.292Zm-8.265,5.451a4.641,4.641,0,1,1,4.613-4.641A4.614,4.614,0,0,1,6317.195,11343.743Z" transform="translate(0.71 0.712)"/><path d="M6307.7,11328.516a7.329,7.329,0,0,0-.858-.651c.51-1.23.914-2.206,1.354-3.27.55,0,1.2,0,1.848,0,.59,0,1.087-.175,1.078-.843-.009-.635-.506-.778-1.056-.772-.667,0-1.335,0-1.857,0-.468-1.119-.875-2.093-1.339-3.2.418-.389.919-.843,1.409-1.311.385-.366.552-.8.14-1.231-.445-.468-.906-.307-1.284.115-.466.52-.9,1.066-1.206,1.431l-3.28-1.376c0-.624.006-1.3,0-1.977-.007-.54-.248-.947-.819-.941s-.794.426-.8.962.03,1.1-.023,1.642a.771.771,0,0,1-.385.531c-.871.376-1.765.7-2.8,1.1-.366-.4-.819-.9-1.287-1.39-.365-.382-.795-.56-1.231-.144-.467.444-.31.9.11,1.285.516.468,1.057.907,1.587,1.36a7.576,7.576,0,0,0-.925,1.553c-.206.5-.339,1.026-.517,1.585-.528,0-1.049-.008-1.569,0-.616.01-1.341-.123-1.439.784-.062.566.418.826,1.411.828h1.521c.444,1.072.849,2.048,1.335,3.223-.38.338-.868.765-1.347,1.2-.432.4-.676.86-.166,1.339.466.436.924.218,1.287-.2.442-.507.858-1.037,1.145-1.387l3.295,1.366c0,.6,0,1.25,0,1.9,0,.553.174,1.024.816,1.018s.8-.48.806-1.03c0-.672,0-1.345,0-1.887l3.224-1.343a10.383,10.383,0,0,0,.67.816c1,1.015,1.4,1.17,1.848.746C6308.862,11329.91,6308.728,11329.516,6307.7,11328.516Zm-5.9-.095a4.645,4.645,0,1,1,4.674-4.648A4.614,4.614,0,0,1,6301.8,11328.421Z" transform="translate(0.311 0.327)"/><path d="M6316.677,11322.292a4.836,4.836,0,0,0,0-9.673,4.837,4.837,0,1,0,0,9.673Zm-.022-8.048a3.228,3.228,0,1,1-3.23,3.227A3.234,3.234,0,0,1,6316.655,11314.244Z" transform="translate(0.666 0.234)"/><path d="M6301.331,11336.542a4.185,4.185,0,1,0,4.188,4.166A4.176,4.176,0,0,0,6301.331,11336.542Zm.027,6.743a2.564,2.564,0,1,1,.023-5.127,2.6,2.6,0,0,1,2.549,2.543A2.567,2.567,0,0,1,6301.358,11343.285Z" transform="translate(0.345 0.719)"/><path d="M6323.888,11322.106a3.7,3.7,0,1,0,3.695,3.68A3.692,3.692,0,0,0,6323.888,11322.106Zm-.02,5.8a2.075,2.075,0,0,1-2.085-2.077,2.106,2.106,0,0,1,2.124-2.127,2.1,2.1,0,0,1-.039,4.2Z" transform="translate(0.807 0.416)"/></g></svg>