<svg xmlns="http://www.w3.org/2000/svg" width="116.182" height="115.641" viewBox="0 0 116.182 115.641"><g transform="translate(-540.371 -1897.25)" style="isolation:isolate"><path d="M653.492,1943.8l-2.674-1.8a9.555,9.555,0,0,0-12.649,1.833l-11.33,13.6v-42.494a7.643,7.643,0,0,0-7.643-7.642,7.458,7.458,0,0,0-3.821,1.069v-2.98a7.642,7.642,0,1,0-15.285,0v2.98a7.464,7.464,0,0,0-3.822-1.069,7.644,7.644,0,0,0-7.643,7.642v2.981a7.46,7.46,0,0,0-3.821-1.07,7.634,7.634,0,0,0-7.643,7.643v7.528a26.734,26.734,0,1,0,3.038,48.551c.134.247.287.477.441.744.4.65.82,1.338,1.279,2.159l2.885,4.623v5.179h-1.911a1.91,1.91,0,0,0-1.891,1.682l-1.911,15.285a1.85,1.85,0,0,0,.459,1.49,1.878,1.878,0,0,0,1.433.65H630.66a1.878,1.878,0,0,0,1.433-.65,1.85,1.85,0,0,0,.459-1.49l-1.911-15.285a1.91,1.91,0,0,0-1.891-1.682h-1.911V1988.2l28.24-36.474a1.065,1.065,0,0,0,.114-.153,5.712,5.712,0,0,0-1.7-7.776Zm-72.509-19.3a3.821,3.821,0,1,1,7.642,0v15.992a27.089,27.089,0,0,0-7.642-6.649Zm-13.375,55.409a22.928,22.928,0,1,1,22.928-22.928,22.929,22.929,0,0,1-22.928,22.928Zm59.46,17.2,1.433,11.464H583.142l1.433-11.464Zm24.916-47.614-28.565,36.9a1.831,1.831,0,0,0-.4,1.166v5.732H588.625v-5.732a1.9,1.9,0,0,0-.285-1.013l-3.134-5.025c-.459-.784-.9-1.49-1.3-2.158-.172-.306-.325-.574-.478-.841a26.625,26.625,0,0,0,9.019-31.412v-32.157a3.822,3.822,0,0,1,7.643,0v38.214h3.821v-47.767a3.822,3.822,0,0,1,7.643,0v47.767h3.821v-38.214a3.822,3.822,0,0,1,7.643,0V1960.8H619.2a11.465,11.465,0,0,0-11.464,11.465h3.822a7.643,7.643,0,0,1,7.642-7.643h5.732a1.915,1.915,0,0,0,1.452-.707l.02.019,14.712-17.655a5.707,5.707,0,0,1,7.585-1.089l2.675,1.777a1.913,1.913,0,0,1,.612,2.522Zm0,0"/><path d="M630.671,2012.891h-49.7a2.377,2.377,0,0,1-1.8-.819,2.346,2.346,0,0,1-.58-1.885l1.911-15.283a2.411,2.411,0,0,1,2.386-2.12H584.3v-4.536l-2.821-4.522c-.449-.8-.856-1.471-1.268-2.141l-.007-.012c-.062-.108-.126-.212-.187-.312l-.011-.018a27.235,27.235,0,1,1-3.348-49.931V1924.5a8.134,8.134,0,0,1,8.132-8.143h.012a7.963,7.963,0,0,1,3.32.739v-2.15a8.152,8.152,0,0,1,8.143-8.142,7.973,7.973,0,0,1,3.322.739v-2.15a8.142,8.142,0,1,1,16.285,0v2.149a7.963,7.963,0,0,1,3.319-.738,8.152,8.152,0,0,1,8.145,8.142v41.112l10.446-12.543a10.054,10.054,0,0,1,13.311-1.929l2.675,1.8a6.212,6.212,0,0,1,1.847,8.455,1.551,1.551,0,0,1-.153.208l-28.126,36.326v4.412h1.411a2.412,2.412,0,0,1,2.387,2.122l1.911,15.281a2.346,2.346,0,0,1-.58,1.885A2.376,2.376,0,0,1,630.671,2012.891Zm-.011-1h.011a1.377,1.377,0,0,0,1.044-.477l.007-.008a1.348,1.348,0,0,0,.335-1.087v-.006l-1.911-15.285a1.411,1.411,0,0,0-1.4-1.244h-2.41v-5.754l.1-.135,28.262-36.5a.567.567,0,0,0,.06-.08,5.212,5.212,0,0,0-1.55-7.1l-2.677-1.8a9.054,9.054,0,0,0-11.986,1.738l-12.214,14.667v-43.876a7.151,7.151,0,0,0-7.143-7.142,6.96,6.96,0,0,0-3.563,1l-.758.457v-3.865a7.142,7.142,0,1,0-14.285,0v3.865l-.758-.456a6.968,6.968,0,0,0-3.566-1,7.15,7.15,0,0,0-7.141,7.142v3.866l-.758-.456a6.963,6.963,0,0,0-3.565-1h-.01a7.134,7.134,0,0,0-7.132,7.142v8.255l-.679-.26a26.234,26.234,0,1,0,2.981,47.643l.438-.234.237.437c.071.131.15.261.234.4.064.1.129.212.2.328.415.674.825,1.347,1.28,2.161l2.954,4.734v5.822h-2.411a1.41,1.41,0,0,0-1.395,1.241l-1.912,15.293a1.348,1.348,0,0,0,.335,1.087l.007.008a1.377,1.377,0,0,0,1.044.477Zm-1.593-2.822H582.576l1.558-12.464h43.376Zm-45.359-1h44.226l-1.308-10.464h-41.61Zm39.81-14.285H588.125v-6.232a1.4,1.4,0,0,0-.21-.75l-3.14-5.035c-.3-.516-.595-1-.878-1.462q-.215-.354-.419-.691l-.007-.013c-.179-.318-.334-.59-.476-.837l-.223-.389.362-.264a26.108,26.108,0,0,0,8.85-30.822l-.036-.09v-32.253a4.322,4.322,0,0,1,8.643,0v37.714h2.821v-47.267a4.322,4.322,0,0,1,8.643,0v47.267h2.821v-37.714a4.322,4.322,0,0,1,8.643,0V1961.3H619.2a10.965,10.965,0,0,0-10.953,10.465h2.826a8.153,8.153,0,0,1,8.127-7.643h5.727a1.412,1.412,0,0,0,1.069-.522l.341-.419.025.024,14.37-17.245a6.207,6.207,0,0,1,8.249-1.183l2.672,1.775a2.425,2.425,0,0,1,.772,3.182l-.018.033-.023.03-28.569,36.9a1.333,1.333,0,0,0-.292.847v6.239Zm-34.393-1h33.393v-5.228a2.336,2.336,0,0,1,.508-1.479l28.538-36.86a1.42,1.42,0,0,0-.469-1.832l-2.675-1.777a5.207,5.207,0,0,0-6.923.992l-15.055,18.066-.059-.056a2.409,2.409,0,0,1-1.447.513H619.2a7.151,7.151,0,0,0-7.142,7.143v.5h-4.822v-.5A11.965,11.965,0,0,1,619.2,1960.3h3.322v-45.356a3.322,3.322,0,0,0-6.643,0v38.714h-4.821v-48.267a3.322,3.322,0,0,0-6.643,0v48.267H599.59v-38.714a3.322,3.322,0,0,0-6.643,0v32.061a27.107,27.107,0,0,1-8.865,31.645l.256.452q.2.333.413.681c.284.467.578.949.883,1.471l3.13,5.019a2.4,2.4,0,0,1,.361,1.282Zm-21.517-12.375a23.375,23.375,0,1,1,9.116-1.846A23.354,23.354,0,0,1,567.608,1980.409Zm.005-45.857a22.429,22.429,0,1,0,8.578,1.708A22.344,22.344,0,0,0,567.614,1934.552Zm21.511,7.384-.893-1.135a26.483,26.483,0,0,0-7.5-6.526l-.248-.145v-9.63a4.352,4.352,0,0,1,4.317-4.322h.006a4.344,4.344,0,0,1,4.319,4.321Zm-7.642-8.378a27.445,27.445,0,0,1,6.642,5.547v-14.6a3.321,3.321,0,0,0-6.642,0Z" fill="#707070"/><path d="M578.423,1956.981l5.407-5.407a1.912,1.912,0,0,0,0-2.694l-8.12-8.121a1.979,1.979,0,0,0-2.7,0l-5.407,5.407-5.407-5.407a1.978,1.978,0,0,0-2.694,0l-8.121,8.121a1.912,1.912,0,0,0,0,2.694l5.407,5.407-5.407,5.407a1.913,1.913,0,0,0,0,2.7l8.121,8.12a1.976,1.976,0,0,0,2.694,0l5.407-5.407,5.407,5.407a1.974,1.974,0,0,0,1.356.554,1.933,1.933,0,0,0,1.339-.554l8.12-8.12a1.913,1.913,0,0,0,0-2.7Zm-4.052,12.152-5.406-5.389a1.9,1.9,0,0,0-2.714,0l-5.406,5.389-5.389-5.389,5.389-5.406a1.9,1.9,0,0,0,0-2.714l-5.389-5.406,5.389-5.389,5.406,5.389a1.965,1.965,0,0,0,2.714,0l5.406-5.389,5.389,5.389-5.389,5.406a1.9,1.9,0,0,0,0,2.714l5.389,5.406Zm0,0"/><path d="M574.371,1974.257h0a2.465,2.465,0,0,1-1.7-.694l-.006-.006-5.053-5.053-5.066,5.066a2.476,2.476,0,0,1-3.376,0l-.012-.012-8.121-8.12a2.42,2.42,0,0,1,0-3.4l5.055-5.055-5.054-5.053a2.417,2.417,0,0,1,0-3.4l8.135-8.134a2.478,2.478,0,0,1,3.375,0l.013.013,5.053,5.053,5.066-5.066a2.479,2.479,0,0,1,3.376,0l.013.013,8.12,8.121a2.417,2.417,0,0,1,0,3.4l-5.055,5.055,5.054,5.053a2.42,2.42,0,0,1,0,3.4l-8.121,8.121a2.422,2.422,0,0,1-1.689.7Zm-1.006-1.411a1.47,1.47,0,0,0,1.006.411,1.424,1.424,0,0,0,.988-.411l8.117-8.117a1.416,1.416,0,0,0,0-1.99l-5.759-5.759,5.761-5.76a1.414,1.414,0,0,0,0-1.988l-8.112-8.113a1.479,1.479,0,0,0-2,0l-5.754,5.754-5.754-5.754a1.478,1.478,0,0,0-2,0l-8.114,8.114a1.414,1.414,0,0,0,0,1.988l5.759,5.759-5.761,5.76a1.416,1.416,0,0,0,0,1.989l8.113,8.112a1.476,1.476,0,0,0,2,0l5.754-5.754Zm1.007-3.006-5.764-5.746a1.4,1.4,0,0,0-2,0l0,0-5.76,5.741-6.095-6.095,5.746-5.765a1.4,1.4,0,0,0,0-2l-.005-.005-5.741-5.76,6.095-6.095,5.756,5.738a1.465,1.465,0,0,0,2.016,0l5.756-5.738,6.1,6.095-5.746,5.764a1.4,1.4,0,0,0,0,2l0,0,5.741,5.76Zm-5.052-6.448,5.051,5.035,4.683-4.683-5.035-5.051a2.4,2.4,0,0,1,0-3.424l5.035-5.051-4.683-4.683-5.06,5.044a2.465,2.465,0,0,1-3.4,0l-.008-.007-5.052-5.037-4.683,4.683,5.034,5.05a2.4,2.4,0,0,1,0,3.425l-5.034,5.05,4.683,4.683,5.051-5.035a2.4,2.4,0,0,1,3.424,0Z" fill="#707070"/></g></svg>