<svg xmlns="http://www.w3.org/2000/svg" width="159.536" height="156.896" viewBox="0 0 159.536 156.896"><g transform="translate(-882.359 -2200.669)" style="isolation:isolate"><path d="M1039.237,2338.935a55.344,55.344,0,0,1-24.686-5.115,67.42,67.42,0,0,0-53.445,0,62.118,62.118,0,0,1-49.368,0,60.508,60.508,0,0,0-26.721-5.522,2.659,2.659,0,0,0,0,5.319,55.311,55.311,0,0,1,24.684,5.115,67.421,67.421,0,0,0,53.441,0,62.127,62.127,0,0,1,49.372,0,60.527,60.527,0,0,0,26.723,5.521,2.659,2.659,0,0,0,0-5.318Z"/><path d="M1039.237,2352.229a55.314,55.314,0,0,1-24.686-5.115,67.431,67.431,0,0,0-53.445,0,62.118,62.118,0,0,1-49.368,0,60.507,60.507,0,0,0-26.721-5.521,2.659,2.659,0,0,0,0,5.318,55.329,55.329,0,0,1,24.684,5.116,67.421,67.421,0,0,0,53.441,0,62.114,62.114,0,0,1,49.372,0,60.547,60.547,0,0,0,26.723,5.521,2.66,2.66,0,0,0,0-5.319Z"/><path d="M885.017,2320.322a55.312,55.312,0,0,1,24.684,5.116,67.432,67.432,0,0,0,53.441,0,62.116,62.116,0,0,1,49.372,0,60.513,60.513,0,0,0,26.723,5.52,2.659,2.659,0,0,0,0-5.318,54.836,54.836,0,0,1-24.2-4.919l-10.076-17.043a24,24,0,0,0,16.232-13.511c.021-.039.055-.068.078-.112s.013-.076.029-.112a23.912,23.912,0,0,0-42.756-21.284l-.027.034v.019a23.73,23.73,0,0,0-2.831,8.365l-2.873-2.874a37.234,37.234,0,0,0-16.972-9.718l-29.193-7.568a11.956,11.956,0,1,0-6.114,23.117l31.057,8.062a6.361,6.361,0,0,1,2.963,1.693,6.481,6.481,0,0,1,0,9.161l-26.286,26.262a55.553,55.553,0,0,1-16.532-4.687A60.525,60.525,0,0,0,885.017,2315a2.66,2.66,0,0,0,0,5.319Zm114.336-58.5a18.54,18.54,0,0,1,17.992,23.3l-32.54-16.258A18.571,18.571,0,0,1,999.353,2261.825Zm-17.243,11.633,33.161,16.571a18.591,18.591,0,0,1-33.161-16.571Zm-23.794,29.254A11.816,11.816,0,0,0,958.29,2286a11.638,11.638,0,0,0-5.388-3.06l-31.037-8.052a6.647,6.647,0,1,1,3.433-12.831l29.211,7.581a31.893,31.893,0,0,1,14.541,8.322l6.779,6.774a23.953,23.953,0,0,0,23.361,19.632l7.873,13.32a68.546,68.546,0,0,0-45.957,2.836,55.333,55.333,0,0,1-24.686,5.115c-.365,0-.673-.021-1.026-.026Z"/><path d="M894.324,2280.438a9.307,9.307,0,1,0-9.307-9.306A9.305,9.305,0,0,0,894.324,2280.438Zm0-13.295a3.989,3.989,0,1,1-3.989,3.989A3.988,3.988,0,0,1,894.324,2267.143Z"/><path d="M887.677,2304.369a2.659,2.659,0,1,0,2.658-2.66A2.657,2.657,0,0,0,887.677,2304.369Z"/><path d="M898.311,2291.074a2.66,2.66,0,1,0,2.661,2.658A2.659,2.659,0,0,0,898.311,2291.074Z"/><path d="M975.285,2232.444a18.613,18.613,0,1,0-26.323,0A18.609,18.609,0,0,0,975.285,2232.444Zm-25.44-18.251a13.295,13.295,0,1,1,4.894,16.143A13.3,13.3,0,0,1,949.845,2214.193Z"/><path d="M968.224,2308.908a2.659,2.659,0,0,0,3.76-3.76l-2.66-2.66a2.659,2.659,0,0,0-3.76,3.76Z"/><path d="M973.319,2241.391a2.659,2.659,0,0,0-3.474,3.473l2.035,4.914a2.659,2.659,0,1,0,4.913-2.035l-2.034-4.912A2.649,2.649,0,0,0,973.319,2241.391Z"/><path d="M931.63,2233.95a2.655,2.655,0,0,0,2.036,0l4.913-2.037a2.659,2.659,0,1,0-2.037-4.911l-4.912,2.035a2.659,2.659,0,0,0,0,4.914Z"/><path d="M986.683,2211.769h.009a2.679,2.679,0,0,0,1.02-.205l4.912-2.035a2.661,2.661,0,1,0-2.047-4.912l-4.914,2.036a2.659,2.659,0,0,0,1.02,5.116Z"/><path d="M949.494,2242.819v.012l-2.033,4.9a2.658,2.658,0,1,0,4.912,2.034l2.035-4.914a2.659,2.659,0,0,0-4.914-2.034Z"/><path d="M931.639,2209.529h-.009l4.912,2.035a2.659,2.659,0,1,0,2.037-4.911l-4.9-2.036a2.659,2.659,0,1,0-2.037,4.912Z"/><path d="M985.675,2231.9v.008l4.912,2.037a2.659,2.659,0,1,0,2.037-4.913l-4.912-2.043a2.659,2.659,0,1,0-2.037,4.911Z"/></g></svg>