<svg xmlns="http://www.w3.org/2000/svg" width="90.86" height="84.803" viewBox="0 0 90.86 84.803"><path d="M5124.22,5243.014h-4.543a1.515,1.515,0,0,0-1.406.952l-2.648,6.62h-21.69a1.515,1.515,0,0,0-1.355.837l-3.028,6.057a1.514,1.514,0,0,0,1.354,2.192h24.23v33.315h-6.058a1.515,1.515,0,0,0-1.232.634l-1.8,2.515v-.12h-3.029V5294.5a1.518,1.518,0,0,0-.6-1.212l-5.514-4.135-1.273-15.283a7.583,7.583,0,0,0-2.192-4.725l-12.869-12.869,1.127-2.816a8.917,8.917,0,0,0,1.64.152,8.765,8.765,0,0,0,6.24-2.585l9.347-9.346a4.548,4.548,0,0,0,0-6.424l-.888-.887a1.512,1.512,0,0,0-2.141,0l-.444.443-.042-.043a2.863,2.863,0,0,0-2.039-.844,2.894,2.894,0,0,0-2.7,1.87l-1.01,2.694-6.01,4.006-.862-1.076a6.068,6.068,0,0,0,5.09-5.98V5230.9a6.054,6.054,0,0,0-8.834-5.381l-.225-.336a7.548,7.548,0,0,0-6.295-3.369,10.033,10.033,0,0,0-5.982,2,6.99,6.99,0,0,1-6.744.892l-3.159-1.264a1.514,1.514,0,0,0-1.861,2.185l2,3.341a10.23,10.23,0,0,0,14.445,3.249,4.227,4.227,0,0,1,3.706-.5l.83.277v3.471h0v-.02h-8.352a10.529,10.529,0,0,0-7.494,3.1l-7.7,7.7a4.554,4.554,0,0,0-.568,5.732l1.651,2.477a1.515,1.515,0,0,0,1.938.515l2.052-1.026.429.43a2.585,2.585,0,0,0,4.413-1.829V5249.7l5.188-5.187.99-.028-.982,5.406a9.681,9.681,0,0,1-2.693,5.138,12.78,12.78,0,0,0-3.245,5.515l-1.7,5.966-11.777-6.542-2.879-2.879a1.513,1.513,0,0,0-2.233.1l-7.572,9.086a1.514,1.514,0,0,0,.092,2.04l1.515,1.514a1.516,1.516,0,0,0,1.367.415l6.908-1.382,9.3,6.974a10.118,10.118,0,0,0,6.027,2.009,9.988,9.988,0,0,0,8.518-4.722l4.116-6.584,11.9,10.576,2.911,16.009v2.893h-46.945a1.513,1.513,0,0,0-1.3.735l-4.543,7.572a1.513,1.513,0,0,0,1.3,2.293h87.832a1.514,1.514,0,0,0,1.514-1.514v-60.574A1.514,1.514,0,0,0,5124.22,5243.014Zm-24.23,52.245v.757H5090.9v-2.093l4.384-2.192Zm-21.2-64.36a3.027,3.027,0,0,1,5.968-.716l-.355-.354a1.514,1.514,0,0,0-2.425.393,3.937,3.937,0,0,1-3.188,2.174Zm0,4.535a6.945,6.945,0,0,0,4.742-2.194l1.315,1.315v.887a3.026,3.026,0,0,1-5.024,2.276l-.137-.172a5.849,5.849,0,0,0-.405-.454,3,3,0,0,1-.491-1.65Zm-9.245-5.743a7.2,7.2,0,0,1-9.877-1.841,10.04,10.04,0,0,0,8.689-1.62,6.994,6.994,0,0,1,4.165-1.388,4.527,4.527,0,0,1,3.775,2.02l.468.7a6.065,6.065,0,0,0-.667,1.347l-.21-.07A7.236,7.236,0,0,0,5069.545,5229.691Zm4.912,8.925a2.576,2.576,0,0,1,2.865.822l4.828,6.037a1.515,1.515,0,0,0,2.023.313l7.571-5.047a1.512,1.512,0,0,0,.578-.729l1.1-2.937.953.952a1.512,1.512,0,0,0,2.141,0l.428-.427a1.515,1.515,0,0,1-.168,1.942l-9.346,9.346a5.8,5.8,0,0,1-8.2,0l-5.554-5.554a3.209,3.209,0,0,1-.947-2.286A2.577,2.577,0,0,1,5074.457,5238.616Zm-2.92,6.859,5.555,5.554a8.837,8.837,0,0,0,1.765,1.369l-.9,2.242-7.838-3.359q.106-.421.185-.851l.955-5.25C5071.351,5245.281,5071.442,5245.379,5071.537,5245.475Zm-4.905-3.974a1.511,1.511,0,0,0-1.028.442l-6.057,6.058a1.515,1.515,0,0,0-.444,1.07v2.4l-.443-.444a1.516,1.516,0,0,0-1.749-.283l-1.832.916-.91-1.365a1.518,1.518,0,0,1,.189-1.911l7.7-7.7a7.519,7.519,0,0,1,5.353-2.217h2.925a5.569,5.569,0,0,0-.378.912,8.681,8.681,0,0,0-1,2.052Zm-22.394,24.445-5.757,1.152,5.58-6.7,1.25,1.251Zm22.144,5.571a6.973,6.973,0,0,1-5.95,3.3,7.064,7.064,0,0,1-4.21-1.4l-9.035-6.777.791-3.167,11.9,6.614a1.515,1.515,0,0,0,2.192-.908l.418-1.463,4.559,2.736Zm7.356-8.434a1.513,1.513,0,0,0-2.29.329l-2.791,4.467-5.3-3.183.949-3.322a9.755,9.755,0,0,1,2.474-4.205,12.69,12.69,0,0,0,2.26-3.059l8.889,3.81,4.781,4.78-4.423,4.423Zm14.113,12.975a1.505,1.505,0,0,0-.484-.86l-6.816-6.06,4.3-4.3,6.447,6.447a4.547,4.547,0,0,1,1.314,2.834l1.245,14.939-3.334,1.668Zm12.875,27.53h-61.663l2.726-4.543h62.182Zm21.979,0h-18.257l5.408-7.572h12.849Zm0-10.6h-4.543v-33.315h4.543Zm0-36.344h-29.351l1.515-3.029h27.836Zm0-6.057h-3.82l1.817-4.543h2Z" transform="translate(-5034.874 -5221.813)"/></svg>