<svg xmlns="http://www.w3.org/2000/svg" width="96.863" height="102.139" viewBox="0 0 96.863 102.139"><path d="M5694.759,4578.364h-7.045a1.734,1.734,0,0,0-1.761,1.7v1.7a1.732,1.732,0,0,0-1.761-1.7h-5.283a1.738,1.738,0,0,0-1.761,1.59l-.122,1.814h-3.4v-3.4a1.733,1.733,0,0,0-1.761-1.7h-7.045a1.734,1.734,0,0,0-1.761,1.7v10.214a1.732,1.732,0,0,0,1.761,1.7h7.045a1.732,1.732,0,0,0,1.761-1.7v-3.4h3.17l-.961,13.927a3.464,3.464,0,0,1-3.512,3.1H5661.3v-.73a1.7,1.7,0,0,0-1.007-1.533,29.079,29.079,0,0,0-7.513-2.23,1.811,1.811,0,0,0-.839.082,17.874,17.874,0,0,0-2.969-.606v-4.644a14.932,14.932,0,0,0,1.515-.863c5.917-4,10.813-8.022,10.813-16.672v-1.744a18.5,18.5,0,0,0-6.127-13.665,20.065,20.065,0,0,0-24.859-1.408,14.043,14.043,0,0,0-16.343,10.98,13.132,13.132,0,0,0-.222,2.39v25.536a1.732,1.732,0,0,0,1.761,1.7,26.59,26.59,0,0,0,18.08-6.992,14.6,14.6,0,0,0,1.293.736v4.644a17.881,17.881,0,0,0-2.971.6,1.831,1.831,0,0,0-.837-.082,29.116,29.116,0,0,0-7.513,2.231,1.7,1.7,0,0,0-1.007,1.532v.056a39.636,39.636,0,0,0-10.567,26.216c0,4.67.23,10.044,1.66,13.619h-3.421v-3.4a1.734,1.734,0,0,0-1.762-1.7h-7.044a1.733,1.733,0,0,0-1.761,1.7v10.214a1.732,1.732,0,0,0,1.761,1.7h7.044a1.733,1.733,0,0,0,1.762-1.7v-3.4h10.068a25.354,25.354,0,0,0-3.024,11.917h3.522a21.952,21.952,0,0,1,1.762-8.536v.024a1.732,1.732,0,0,0,1.761,1.7h7.044a1.733,1.733,0,0,0,1.762-1.7v-6.81h22.049l1.015,1.226a22.175,22.175,0,0,1,5.114,14.1h3.522a25.517,25.517,0,0,0-5.887-16.222l-1.347-1.628-.677-1.961a20.582,20.582,0,0,1,.442-14.587l.1-.239a5.352,5.352,0,0,0,3.848-4.773v-.07l19.089-3.953a6.906,6.906,0,0,0,5.567-6.66v-18a1.732,1.732,0,0,0,1.761,1.7h7.045a1.732,1.732,0,0,0,1.761-1.7v-10.214A1.733,1.733,0,0,0,5694.759,4578.364Zm-24.656,10.215h-3.522v-6.81h3.522Zm-63.4,59.583h-3.522v-6.81h3.522Zm13.647-5.826.124.724h-2.924c-1-1.354-2.041-4.871-2.041-13.625a36.912,36.912,0,0,1,7.045-20.93v10.338C5620.229,4623.93,5619.457,4637.164,5620.348,4642.336Zm20.52-82.665a15.7,15.7,0,0,1,16.766,13.317l-9.639-4.659a1.8,1.8,0,0,0-1.094-.153l-20.461,3.489A15.481,15.481,0,0,1,5640.868,4559.671Zm-23.6,37.355v-23.769a10.365,10.365,0,0,1,9.591-10.166,18.34,18.34,0,0,0-4.307,11.869v1.744c0,7.3,3.5,11.3,8.143,14.782A22.985,22.985,0,0,1,5617.268,4597.026Zm8.806-20.322v-1.518l20.868-3.56,10.824,5.232c-.051,6.339-3.047,9.5-9.3,13.729a11.772,11.772,0,0,1-13.082,0C5629.077,4586.318,5626.074,4583.153,5626.074,4576.7Zm7.045,25.955a13.9,13.9,0,0,1,3.522-.462,1.732,1.732,0,0,0,1.761-1.7v-4.966a14.143,14.143,0,0,0,7.045,0v4.966a1.732,1.732,0,0,0,1.761,1.7,13.907,13.907,0,0,1,3.522.462v2.724l-8.806,1.83-8.8-1.83Zm-9.583,35.481a69.1,69.1,0,0,1,1.358-15.174,7.326,7.326,0,0,0,1.472.758,20.412,20.412,0,0,1,.217,14.223h-2.27A1.764,1.764,0,0,0,5623.536,4638.14Zm6.06,10.022h-3.522v-6.81h3.522Zm3.523-8.512a1.734,1.734,0,0,0-1.762-1.7H5630.3a23.689,23.689,0,0,0,0-13.619h23.177a23.881,23.881,0,0,0,.089,15.322Zm24.656-20.684c0,.924-1.506,1.958-3.523,1.958H5629.6c-2.016,0-3.522-1.034-3.522-1.958v-14.688a25.08,25.08,0,0,1,3.522-1.112v3.6a1.717,1.717,0,0,0,1.392,1.665l10.567,2.2a1.81,1.81,0,0,0,.739,0l10.567-2.2a1.716,1.716,0,0,0,1.391-1.665v-3.6a25.072,25.072,0,0,1,3.523,1.112Zm21.872-7.353-18.35,3.8v-8.108h11.025a6.934,6.934,0,0,0,7.02-6.234l1.215-17.6h1.874v24.812h0A3.45,3.45,0,0,1,5679.647,4611.613ZM5693,4588.579h-3.522v-6.81H5693Z" transform="translate(-5599.657 -4556.237)"/></svg>