<svg xmlns="http://www.w3.org/2000/svg" width="76.294" height="123.707" viewBox="0 0 76.294 123.707"><g transform="translate(-6046.389 -2465.453)" style="isolation:isolate"><path d="M6078.6,2492.177a13.553,13.553,0,1,0-8.377-6.119A13.578,13.578,0,0,0,6078.6,2492.177Zm-5.516-15.286a8.975,8.975,0,0,1,8.7-6.855,8.969,8.969,0,1,1-2.1,17.684,8.963,8.963,0,0,1-6.6-10.829Z"/><path d="M6120.121,2498.1a8.748,8.748,0,0,0-6.248-2.636h-42.512c-.094,0-.186.006-.279.015a15.217,15.217,0,0,0-14.774,9.688c-1.016,2.913-9.919,28.669-9.919,35.766,0,6.052,2.3,9.595,4.223,11.5a11.886,11.886,0,0,0,8.574,3.488c.864-.009,1.656-.054,2.407-.119h10.924l-6.624,20.5a9.837,9.837,0,0,0,6.337,12.382,9.9,9.9,0,0,0,3.034.48,9.85,9.85,0,0,0,9.346-6.816l10.912-33.775a2.209,2.209,0,0,0,.1-.733,9.163,9.163,0,0,0,.227-1.99,9.962,9.962,0,0,0-9.952-9.951h-11.669a109.252,109.252,0,0,1,5.624-16.252,34.76,34.76,0,0,0,2.307-6.494h31.671a8.832,8.832,0,0,0,6.288-15.053Zm-6.275,10.468H6080.3a2.294,2.294,0,0,0-2.259,1.9,29.768,29.768,0,0,1-2.327,7.206c-.024.046-.046.095-.066.144a110.07,110.07,0,0,0-6.564,19.854,2.291,2.291,0,0,0,2.233,2.808H6085.9a5.374,5.374,0,0,1,5.367,5.367,5.252,5.252,0,0,1-.217,1.393,2.332,2.332,0,0,0-.073.479l-10.731,33.217a5.249,5.249,0,0,1-9.989-3.228l7.591-23.5a2.294,2.294,0,0,0-2.182-3h-14.174a2.058,2.058,0,0,0-.206.01c-.669.061-1.375.1-2.148.11a7.592,7.592,0,0,1-5.3-2.161c-1.873-1.854-2.863-4.705-2.863-8.243,0-5.352,6.976-26.544,9.642-34.2a10.665,10.665,0,0,1,10.6-6.666c.088,0,.175-.009.263-.02h42.383a4.193,4.193,0,0,1,2.987,1.269,4.289,4.289,0,0,1,1.245,3.039A4.242,4.242,0,0,1,6113.846,2508.564Z"/></g></svg>