<svg xmlns="http://www.w3.org/2000/svg" width="83.349" height="85.222" viewBox="0 0 83.349 85.222"><g transform="translate(-5219.367 -4565.235)"><path d="M5261.042,4580.516a8.335,8.335,0,1,0,8.335,8.335A8.344,8.344,0,0,0,5261.042,4580.516Zm0,13.891a5.557,5.557,0,1,1,5.555-5.556A5.564,5.564,0,0,1,5261.042,4594.407Z"/><path d="M5301.326,4576.348h-2.778v-9.723a1.389,1.389,0,0,0-1.389-1.39h-8.335a1.389,1.389,0,0,0-1.389,1.39v9.723H5284.3a4.156,4.156,0,0,0-3.6,0h-38.84a4.166,4.166,0,0,0-3.611,0h-3.6v-9.723a1.389,1.389,0,0,0-1.39-1.39h-8.334a1.389,1.389,0,0,0-1.389,1.39v9.723h-2.779a1.389,1.389,0,0,0,0,2.778h2.779v9.725a1.387,1.387,0,0,0,1.389,1.388h8.334a1.388,1.388,0,0,0,1.39-1.388v-9.725H5236a4.115,4.115,0,0,0,.428,3.043l13.283,23.76a4.272,4.272,0,0,0,.509.7l1.036,11.116-8.284,7.5a1.389,1.389,0,0,0-.014,2.047l.581.541-14.754,15.556a4.163,4.163,0,0,0,2.978,7.073,4.186,4.186,0,0,0,3-1.266l14.879-15.687,1.452,1.351a1.394,1.394,0,0,0,.946.373c.021,0,.042,0,.063,0a1.392,1.392,0,0,0,.971-.459l8.546-9.5,12.209,5.527a1.389,1.389,0,0,0,1.884-.807l.079-.227,4.22,1.875-2.247,13.488a4.168,4.168,0,0,0,8.222,1.37l2.777-16.669a4.167,4.167,0,0,0-2.417-4.493l-7.794-3.464.393-1.123a1.39,1.39,0,0,0-.773-1.74l-7.312-3.078.911-8.795c.029-.02.06-.037.088-.059a4.19,4.19,0,0,0,.977-1.157l13.263-23.726a4.127,4.127,0,0,0,.439-3.061h.892v9.725a1.387,1.387,0,0,0,1.389,1.388h8.335a1.387,1.387,0,0,0,1.389-1.388v-9.725h2.778a1.389,1.389,0,1,0,0-2.778Zm-75.013-8.335h1.389v19.448h-1.389Zm5.557,19.448h-1.39v-19.448h1.39Zm35.453,11.113h-12.171l-10.873-19.448h33.988l-10.874,19.45Zm-28.476-17.778a1.394,1.394,0,0,1,.215-1.67h1.978a1.363,1.363,0,0,1,.2.265l11.093,19.843a4.846,4.846,0,0,0-1.957,2.192Zm-6.081,66.468a1.389,1.389,0,1,1-1.976-1.953l14.787-15.591,2.034,1.892Zm52.456-19.4a1.386,1.386,0,0,1,.8,1.5l-2.778,16.667a1.388,1.388,0,1,1-2.739-.456l2.423-14.548a1.391,1.391,0,0,0-.805-1.5l-5.411-2.4.919-2.629Zm-9.326-6.812-2.3,6.578-11.752-5.32a1.391,1.391,0,0,0-1.6.336l-8.284,9.209-5.994-5.576,7.677-6.95a1.389,1.389,0,0,0,.451-1.159l-1.153-12.314v-.013l-.229-2.44a2.055,2.055,0,0,1,2.053-2.054h12.563a2.056,2.056,0,0,1,2.053,1.991L5268,4616.661a1.389,1.389,0,0,0,.843,1.424Zm7.941-41.313a1.389,1.389,0,0,1-.149,1.069l-11.78,21.074a4.851,4.851,0,0,0-1.819-2.438l11.2-20.041a1.383,1.383,0,0,1,.215-.281h1.975A1.378,1.378,0,0,1,5283.837,4579.743Zm6.376-11.73h1.39v19.448h-1.39Zm5.558,19.448h-1.39v-19.448h1.39Z"/></g></svg>