<svg xmlns="http://www.w3.org/2000/svg" width="85.372" height="85.373" viewBox="0 0 85.372 85.373"><g transform="translate(-4838.247 -4561.224)"><path d="M4880.933,4581.879a1.379,1.379,0,0,1-1.377-1.377H4876.8a4.131,4.131,0,0,0,8.262,0h-2.754A1.379,1.379,0,0,1,4880.933,4581.879Z"/><path d="M4920.865,4572.24h-2.754a2.758,2.758,0,0,0-2.754,2.754H4896.08a2.758,2.758,0,0,0-2.754-2.754h-2.754a2.757,2.757,0,0,0-2.754,2.754v.869c-.182-.375-.364-.738-.547-1.085a8.258,8.258,0,0,0-6.338-13.554H4868.54a16.542,16.542,0,0,0-16.523,16.524v3.8a67.721,67.721,0,0,1-11.409,37.679,14.061,14.061,0,0,0,11.7,21.86h3.6c-.315,1.243-.659,2.479-1.064,3.7l-.6,1.812H4891.1l-.6-1.812a52.227,52.227,0,0,1-2.684-16.536v-1.891l.806-1.209a11.593,11.593,0,0,0,.732-11.6h14.986a8.269,8.269,0,0,0,8.261-8.261V4586.01h2.754a2.758,2.758,0,0,0,2.754,2.754h2.754a2.758,2.758,0,0,0,2.754-2.754v-11.016A2.757,2.757,0,0,0,4920.865,4572.24Zm-30.293,2.754,2.754,0v11.018h-2.754Zm-.792,13.641a2.761,2.761,0,0,0,.792.129h2.754a2.758,2.758,0,0,0,2.754-2.754h3.655a4.556,4.556,0,0,0,.476.57l1.377,1.377v13.121l-20.73-1.151a1.38,1.38,0,0,1-1.3-1.376v-1.525a8.274,8.274,0,0,0,8.216-7.388Zm-1.977-2.091-2.739,1.369v.851a5.426,5.426,0,0,1-.2,1.377h-2.233a3.583,3.583,0,0,1-3.223-1.993l-2.464,1.233a6.325,6.325,0,0,0,5.687,3.516h.526a5.461,5.461,0,0,1-3.6,1.377h-5.508v2.754h2.754v1.524a4.122,4.122,0,0,0,2.622,3.829,6.858,6.858,0,0,1-13.5.034,4.133,4.133,0,0,0,2.615-3.824V4580.1a6.856,6.856,0,0,1,1.424-4.192,5.46,5.46,0,0,0,4.073,1.841h6.9a8.186,8.186,0,0,0,4.18-1.15A23.649,23.649,0,0,1,4887.8,4586.544Zm-33.032-4.994v-3.8a13.784,13.784,0,0,1,13.769-13.77h12.393a5.508,5.508,0,0,1,.007,11.016h-6.9a2.754,2.754,0,0,1,.011-5.508v-2.754a5.516,5.516,0,0,0-5.508,5.516,5.6,5.6,0,0,0,.1,1.012,9.6,9.6,0,0,0-2.856,6.84v18.493a1.383,1.383,0,0,1-1.279,1.374l-6.489.463a12.306,12.306,0,0,0-6.548,2.466A70.6,70.6,0,0,0,4854.771,4581.55Zm-5.508,31.241a9.669,9.669,0,0,1,8.262-9.53v5.585a6.927,6.927,0,0,1-.727,3.079l-.8,1.6a11.664,11.664,0,0,0-1.224,5.186,11.544,11.544,0,0,0,1.616,5.849h-4.37v2.754h15.716l2.184-2.184a1.965,1.965,0,0,1,1.377-.57,1.379,1.379,0,0,1,1.377,1.377v1.377h1.377a2.754,2.754,0,0,1,0,5.508h-19.277a5.514,5.514,0,0,1-5.508-5.508Zm19.277,3.512v-2.754h11.016l0,2.754Zm8.262,2.754v6.26a5.472,5.472,0,0,0-1.57-.624,4.137,4.137,0,0,0-3.938-2.882v-2.754Zm0,15.758v3.52h-5.508v-2.754h2.754A5.447,5.447,0,0,0,4876.8,4634.815Zm-20.277,3.52h-4.218a11.307,11.307,0,0,1-9.407-17.579q1.965-2.949,3.609-6.06v12.623a8.27,8.27,0,0,0,8.262,8.262h2.219Q4856.795,4636.964,4856.525,4638.335Zm9.261,2.754v2.754h-7.763a55.234,55.234,0,0,0,1.75-8.262h8.767v2.754A2.757,2.757,0,0,0,4865.786,4641.089Zm13.77,2.754H4868.54v-2.754h11.016Zm2.754,0v-2.754a2.756,2.756,0,0,0-2.754-2.754v-11.016h5.508v.93a54.93,54.93,0,0,0,2.255,15.594Zm4.022-20.221-.628.943h-6.148v-5.508a2.757,2.757,0,0,0,2.754-2.754v-2.754a2.757,2.757,0,0,0-2.754-2.754H4868.54a2.758,2.758,0,0,0-2.754,2.754v2.754a2.757,2.757,0,0,0,2.754,2.754v3.661a4.871,4.871,0,0,0-.57.47l-1.377,1.377h-6.955l-.628-.943a8.852,8.852,0,0,1-.552-8.863l.8-1.6a9.677,9.677,0,0,0,1.018-4.31v-5.815l2.912-.208a9.624,9.624,0,0,0,18.973-.064l2.9.161v5.926a9.675,9.675,0,0,0,1.018,4.312l.8,1.605a8.845,8.845,0,0,1-.553,8.861Zm23.517-18.334a5.513,5.513,0,0,1-5.507,5.507h-16.229a6.9,6.9,0,0,1-.295-1.951v-5.773l14.786.82,2.5,1.25,1.232-2.463-1.993-1v-14.866l-.807-.807h6.314Zm5.508-22.032H4896.08v-5.508h19.277Zm5.508,2.754h-2.754v-11.016h2.754Z"/></g></svg>