<svg xmlns="http://www.w3.org/2000/svg" width="60" height="59.869" viewBox="0 0 60 59.869"><g transform="translate(-3568.833 -1151.912)"><path d="M3633.028,1184.672c-8.4,2.934-16.631,7.6-25.171,14.268-1.509,1.178-2.975,2.395-4.423,3.627a.612.612,0,0,0-.075.046,3.919,3.919,0,0,1-2.105.374h-.4a5.815,5.815,0,0,0-2.139.267,5.728,5.728,0,0,0-1.378.826,5.692,5.692,0,0,1-.944.608,4.855,4.855,0,0,1-1.116.3,3.881,3.881,0,0,0-3.573,3.481,4.709,4.709,0,0,1-.334,1.106,5.505,5.505,0,0,1-.632.932,4.557,4.557,0,0,0-1.182,3.493l-.011.4a2.793,2.793,0,0,1-.505,1.8v0q-2.955,3.035-5.881,6.142a.622.622,0,1,0,.9.855c7.846-8.288,15.63-16.307,24.56-23.277,8.431-6.581,16.55-11.186,24.818-14.077a.621.621,0,1,0-.412-1.172Zm-42.238,29.752.011-.394a3.382,3.382,0,0,1,.92-2.756,6.785,6.785,0,0,0,.767-1.147,5.851,5.851,0,0,0,.431-1.391,2.683,2.683,0,0,1,2.59-2.523,5.863,5.863,0,0,0,1.4-.395,6.679,6.679,0,0,0,1.163-.737,3.393,3.393,0,0,1,2.774-.85h.468l.183,0C3597.8,1207.485,3594.262,1210.908,3590.79,1214.425Z" transform="translate(-5.023 -11.612)"/><path d="M3577.564,1195.8h.387a4.551,4.551,0,0,0,3.527-1.09,5.535,5.535,0,0,1,.948-.609,4.847,4.847,0,0,1,1.117-.3,3.886,3.886,0,0,0,3.571-3.479,4.8,4.8,0,0,1,.335-1.111,5.579,5.579,0,0,1,.632-.93,4.562,4.562,0,0,0,1.181-3.492l.011-.395a2.813,2.813,0,0,1,.463-1.75c1.19-1.048,2.4-2.087,3.629-3.106a.616.616,0,0,0,.2-.3,130.129,130.129,0,0,1,11.1-26.394.623.623,0,1,0-1.088-.606,131.536,131.536,0,0,0-11.146,26.463q-1.814,1.5-3.559,3.048s-.007,0-.009,0-.005.009-.009.012c-7.187,6.336-13.611,13.129-19.848,19.731a.622.622,0,0,0,.9.855q2.85-3.017,5.77-6.07A2.959,2.959,0,0,1,3577.564,1195.8Zm10.479-11.64c0,.062-.011.124-.013.186l-.011.413a3.4,3.4,0,0,1-.919,2.756,6.621,6.621,0,0,0-.766,1.145,5.776,5.776,0,0,0-.432,1.393,2.684,2.684,0,0,1-2.59,2.521,5.933,5.933,0,0,0-1.4.4,6.644,6.644,0,0,0-1.167.739,3.391,3.391,0,0,1-2.784.847h-.406c-.078,0-.143.012-.218.015C3580.757,1191.045,3584.3,1187.545,3588.042,1184.159Z" transform="translate(0 -0.001)"/><path d="M3626.373,1169.94a.626.626,0,0,0,.719.058,72.022,72.022,0,0,1,21.591-8.885.622.622,0,0,0-.269-1.215,71.967,71.967,0,0,0-20.42,8.13,129.283,129.283,0,0,1,7.131-15.194.621.621,0,0,0-1.088-.6,131.126,131.126,0,0,0-7.845,17.008A.621.621,0,0,0,3626.373,1169.94Z" transform="translate(-20.339)"/><path d="M3604.386,1202.638a5.141,5.141,0,0,0-1.715,3.158,1.287,1.287,0,0,0,1.359,1.359h0a5.142,5.142,0,0,0,3.155-1.715,6.834,6.834,0,0,0,1.483-2.112c.478-1.165.117-1.772-.141-2.031C3607.6,1200.378,3605.75,1201.276,3604.386,1202.638Zm3.257-.466c.107.184-.144,1.2-1.334,2.387h0c-1.187,1.189-2.192,1.44-2.377,1.348-.1-.184.149-1.2,1.338-2.387a4.11,4.11,0,0,1,2.277-1.365A.22.22,0,0,1,3607.643,1202.171Z" transform="translate(-12.007 -17.391)"/><path d="M3620.377,1165.086c-.785,1.76-.961,3.819.225,4.35a1.236,1.236,0,0,0,.5.107c1.063,0,2.208-1.324,2.886-2.839a5.146,5.146,0,0,0,.479-3.56,1.35,1.35,0,0,0-.7-.788C3622.572,1161.829,3621.163,1163.33,3620.377,1165.086Zm2.863-1.6h.013c.164.136.292,1.174-.395,2.708h0c-.672,1.506-1.511,2.11-1.726,2.11h-.011c-.165-.136-.292-1.176.4-2.71C3622.186,1164.089,3623.024,1163.487,3623.241,1163.487Z" transform="translate(-18.067 -3.668)"/><path d="M3623.351,1187.452a5.135,5.135,0,0,0-2.475,2.6,1.348,1.348,0,0,0,.107,1.05,1.553,1.553,0,0,0,1.469.691,3.669,3.669,0,0,0,.456-.03,6.78,6.78,0,0,0,2.424-.883c1.667-.964,3.016-2.528,2.367-3.656S3625.019,1186.49,3623.351,1187.452Zm1.358,2.353c-1.457.844-2.5.823-2.646.685-.054-.206.453-1.121,1.909-1.96a4.923,4.923,0,0,1,2.292-.757.6.6,0,0,1,.353.07C3626.672,1188.047,3626.168,1188.963,3624.709,1189.8Z" transform="translate(-18.446 -12.288)"/><path d="M3649.762,1175.66a6.866,6.866,0,0,0-2.557.332c-1.84.575-3.5,1.806-3.111,3.048.238.761,1.109,1.08,2.171,1.08a7.33,7.33,0,0,0,2.118-.346h0c1.838-.575,3.5-1.806,3.109-3.047C3651.385,1176.379,3651.015,1175.777,3649.762,1175.66Zm-1.75,2.925c-1.609.5-2.623.252-2.73.092-.007-.214.688-1,2.294-1.5a5.968,5.968,0,0,1,1.762-.3,1.516,1.516,0,0,1,.966.206C3650.312,1177.3,3649.618,1178.084,3648.012,1178.585Z" transform="translate(-26.685 -8.42)"/><path d="M3581.329,1231.6c1.361-1.362,2.258-3.221,1.339-4.143s-2.781-.019-4.143,1.341-2.259,3.223-1.339,4.145a1.324,1.324,0,0,0,.972.372,5.2,5.2,0,0,0,3.17-1.714Zm-3.258.47c-.105-.187.146-1.2,1.336-2.39a4.118,4.118,0,0,1,2.277-1.367.22.22,0,0,1,.1.018c.105.184-.148,1.2-1.336,2.39S3578.252,1232.167,3578.071,1232.069Z" transform="translate(-2.831 -26.673)"/><path d="M3590.608,1220.849l-1.184,1.032a.621.621,0,1,0,.813.939l1.19-1.035a.622.622,0,0,0-.819-.936Z" transform="translate(-7.23 -24.407)"/><path d="M3616.331,1182.164a.628.628,0,0,0-.83.295l-.677,1.417a.621.621,0,0,0,.292.829.609.609,0,0,0,.269.061.618.618,0,0,0,.56-.353l.68-1.42A.621.621,0,0,0,3616.331,1182.164Z" transform="translate(-16.298 -10.714)"/><path d="M3636.768,1179.221l-1.35.811a.622.622,0,1,0,.64,1.066l1.348-.808a.622.622,0,1,0-.638-1.068Z" transform="translate(-23.52 -9.659)"/><path d="M3617.378,1201.337a.623.623,0,0,0,.321-.089l1.347-.808a.623.623,0,0,0-.638-1.069l-1.35.812a.622.622,0,0,0,.321,1.155Z" transform="translate(-17.005 -16.809)"/></g></svg>