<svg xmlns="http://www.w3.org/2000/svg" width="123.975" height="136.535" viewBox="0 0 123.975 136.535"><g transform="translate(-635.766 -6144.645)"><path d="M705.561,6240.654a1.977,1.977,0,1,0-1.723,3.559c.38.226.789.406,1.189.6a16.839,16.839,0,0,1,9.536,17.843,16.994,16.994,0,1,1-17.025-19.553c1.479-.067,2.234-.912,2.131-2.159a2.013,2.013,0,0,0-2.366-1.8,22.932,22.932,0,0,0-2.787.247,21,21,0,0,0-1.988,41.1c.933.246,1.873.459,2.809.686h4.8a6.139,6.139,0,0,1,.858-.266,20.5,20.5,0,0,0,8.7-3.486,20.96,20.96,0,0,0,3.394-31.624A20.727,20.727,0,0,0,705.561,6240.654Z"/><path d="M656.8,6215.548c-11.693-.085-20.963,9.269-21.037,21.229-.07,11.279,9.455,20.684,21.008,20.743a20.986,20.986,0,1,0,.029-41.972Zm-.029,37.964a16.985,16.985,0,1,1,17.021-16.862A16.946,16.946,0,0,1,656.774,6253.512Z"/><path d="M738.679,6215.548a20.987,20.987,0,1,0,.016,41.973c11.588-.044,21.107-9.5,21.013-20.871A20.933,20.933,0,0,0,738.679,6215.548Zm-.113,37.974a16.99,16.99,0,1,1,17.142-16.9A16.931,16.931,0,0,1,738.566,6253.522Z"/><path d="M697.932,6186.7a21.027,21.027,0,1,0-21.237-20.706C676.946,6177.552,686.614,6186.978,697.932,6186.7Zm-.15-38.055a17.03,17.03,0,1,1-17.093,17.01A17.1,17.1,0,0,1,697.782,6148.643Z"/><path d="M719.125,6196.83c2.987,7.718,8.853,12.17,17.054,13.286a30.606,30.606,0,0,0,6.495-.214,2,2,0,0,0,1.943-2.13,2.025,2.025,0,0,0-2.352-1.8c-.354.014-.707.116-1.058.109a34.418,34.418,0,0,1-6.216-.212,16.989,16.989,0,1,1,20.67-17.438,16.462,16.462,0,0,1-7.523,15c-.255.178-.53.327-.78.511-1.125.823-1.424,1.89-.813,2.866a2.054,2.054,0,0,0,3.04.442,20.832,20.832,0,0,0,10.155-17.78c-.054-.994-.08-1.794-.148-2.59a10.822,10.822,0,0,0-.22-1.31c-1.789-8.512-6.834-14.228-15.187-16.493s-15.749-.016-21.421,6.568C717.4,6181.875,716.157,6189.16,719.125,6196.83Z"/><path d="M656.324,6210.265a20.983,20.983,0,1,0-7.427-40.405,31.677,31.677,0,0,0-5.473,3.247,1.837,1.837,0,0,0-.439,2.708,1.94,1.94,0,0,0,2.717.48c.422-.242.8-.553,1.211-.825,6.041-4.047,12.314-4.291,18.591-.76A16.827,16.827,0,0,1,673.43,6193a17.165,17.165,0,0,1-14.821,13.209,16.99,16.99,0,0,1-17.372-10.008,16.8,16.8,0,0,1,.569-15.026c.737-1.427.5-2.558-.563-3.132-1.113-.6-2.218-.1-2.992,1.341a20.363,20.363,0,0,0-2.484,9.833A20.921,20.921,0,0,0,656.324,6210.265Z"/><path d="M718.62,6217.059a41.189,41.189,0,0,0,3.883-3.831,1.824,1.824,0,0,0-.878-3,7.611,7.611,0,0,0-2.267.149c-.07-.325-.186-.754-.254-1.19a20.566,20.566,0,0,0-5.362-10.956,21.653,21.653,0,0,0-29.538-2.289,21.346,21.346,0,0,0-5.974,7.4,2.027,2.027,0,0,0,.7,2.886,1.961,1.961,0,0,0,2.723-.88c.221-.331.405-.688.6-1.035a17.723,17.723,0,0,1,27.52-4.414,16.914,16.914,0,0,1,5.455,10.385c-1.6-.634-2.488-.51-3.114.363-.667.928-.464,1.888.664,3.051,1.021,1.053,2.034,2.113,3.083,3.137A1.89,1.89,0,0,0,718.62,6217.059Z"/><path d="M683.477,6215.741c.7-1.2.08-2.1-.828-2.893-1.1-.965-2.172-1.967-3.285-2.92a1.9,1.9,0,0,0-2.764-.132,31.227,31.227,0,0,0-3.664,4.2,2.347,2.347,0,0,0,.177,2.238c.415.475,1.457.443,2.236.536.234.028.507-.268.851-.467.1.366.184.608.233.856a20.2,20.2,0,0,0,3.178,7.694c6.672,9.637,18.294,12.476,28.666,6.991a20.933,20.933,0,0,0,8.342-8.2,2.009,2.009,0,0,0-.512-2.828,1.987,1.987,0,0,0-2.789.647c-.243.315-.448.66-.666,1a17.786,17.786,0,0,1-18.592,7.774c-6.86-1.414-12.644-7.25-13.607-13.871C681.7,6216.864,682.782,6216.943,683.477,6215.741Z"/><path d="M736.938,6179.008c-1.99-.117-3.99-.071-5.985-.051-1.856.019-2.518.722-2.53,2.625-.015,2.35,0,4.7,0,7.052,0,2.44-.02,4.88.007,7.319.017,1.575.7,2.393,2.207,2.42,2.614.046,5.237.075,7.843-.1a5.622,5.622,0,0,0,5.181-4.121,5.778,5.778,0,0,0-1.521-6.338,1.277,1.277,0,0,1-.4-1.583A5.369,5.369,0,0,0,736.938,6179.008Zm-4.468,4a33.215,33.215,0,0,1,4.338.068,1.825,1.825,0,0,1,1.149,1.393,2.071,2.071,0,0,1-1.32,1.43,27.96,27.96,0,0,1-4.167.067Zm5.446,11.33c-1.759.1-3.526.024-5.392.024v-4.369c1.816,0,3.54-.05,5.26.016a2.171,2.171,0,0,1,2.221,2.181A2.106,2.106,0,0,1,737.916,6194.334Z"/><path d="M656.424,6183.565c1.688,0,3.377.037,5.063-.019a2,2,0,0,0,2.107-1.96,1.959,1.959,0,0,0-2.05-2c-3.2-.041-6.4-.045-9.593.008a1.825,1.825,0,0,0-1.95,1.94c-.035,5.151-.026,10.3-.011,15.455a1.747,1.747,0,0,0,1.648,1.938q5.122.149,10.25.01a1.744,1.744,0,0,0,1.684-2.029,1.882,1.882,0,0,0-1.9-1.859c-.484-.047-.977-.021-1.465-.021-2.031,0-4.062,0-6.148,0v-4.37c.339-.027.6-.062.855-.066,1.554-.02,3.111.014,4.661-.066a1.715,1.715,0,0,0,1.7-1.728,1.764,1.764,0,0,0-1.466-2.059,9.2,9.2,0,0,0-1.848-.146c-1.31-.02-2.619-.006-3.935-.006v-3.021Z"/><path d="M695.847,6254.465c.931-.044,1.865-.023,2.8-.022,2.213,0,2.362.116,2.965,2.191a1.964,1.964,0,0,0,3.889-.523,5.721,5.721,0,0,0-5.217-5.6,40.051,40.051,0,0,0-4.926-.014,5.658,5.658,0,0,0-5.361,5.444c-.064,1.374-.011,2.754-.011,4.131h.007c0,1.466-.061,2.935.013,4.4a5.511,5.511,0,0,0,4.677,5.224,28.523,28.523,0,0,0,6.1,0,5.461,5.461,0,0,0,4.665-5.481,2.768,2.768,0,0,0-.97-1.865c-1.146-.849-2.6-.06-2.909,1.559-.221,1.179-.777,1.893-1.969,1.953a34.3,34.3,0,0,1-3.729,0,1.764,1.764,0,0,1-1.889-1.828c-.029-2.577-.034-5.154,0-7.73A1.738,1.738,0,0,1,695.847,6254.465Z"/><path d="M748.855,6198.047a6.987,6.987,0,0,0,.109-1.259,9.529,9.529,0,0,0-.085-1.387,1.883,1.883,0,0,0-1.955-1.653,1.781,1.781,0,0,0-1.881,1.56,8.91,8.91,0,0,0,.01,2.771,1.764,1.764,0,0,0,1.907,1.514A1.851,1.851,0,0,0,748.855,6198.047Z"/><path d="M659.313,6227.923c-2.34-1.256-4.876-1.147-7.4-1.134-2.291.012-2.939.645-2.943,2.922q-.008,6.19,0,12.381c0,4,.164,4.161,4.215,4.1.842,0,1.691.068,2.526-.012a9.678,9.678,0,0,0,3.608-18.26Zm.491,11.421c-1.477,2.574-3.885,3.163-6.77,2.833v-11.3c2.651-.328,4.952.16,6.515,2.426A5.368,5.368,0,0,1,659.8,6239.344Z"/><path d="M739.4,6233.52a5.406,5.406,0,0,0-5.131-7.3c-1.862-.054-3.726-.028-5.589-.014-1.881.015-2.551.67-2.575,2.572-.029,2.351-.007,4.7-.006,7.053,0,2.44-.025,4.88.009,7.32.022,1.58.643,2.431,2.022,2.46a80.978,80.978,0,0,0,8.236-.122,5.583,5.583,0,0,0,5.011-4.164,5.8,5.8,0,0,0-1.622-6.324A1.2,1.2,0,0,1,739.4,6233.52Zm-9.24-3.288a31.755,31.755,0,0,1,4.279.067,2.034,2.034,0,0,1,1.252,1.4,1.267,1.267,0,0,1-1.338,1.48c-1.365.046-2.733.012-4.193.012Zm5.514,11.342c-1.794.114-3.6.029-5.494.029v-4.356c1.869,0,3.674-.075,5.469.026a2.154,2.154,0,0,1,.025,4.3Z"/><path d="M746.309,6242.9a1.844,1.844,0,0,0-1.843-1.9,1.732,1.732,0,0,0-1.983,1.562,9.652,9.652,0,0,0,.087,3.011,1.659,1.659,0,0,0,1.944,1.243,1.786,1.786,0,0,0,1.749-1.531,9.207,9.207,0,0,0,.092-1.323h-.043C746.312,6243.606,746.329,6243.251,746.309,6242.9Z"/><path d="M747.346,6242.625a10.953,10.953,0,0,0-.073,1.192h.043a11.912,11.912,0,0,0,.007,1.2,1.8,1.8,0,0,0,1.779,1.8,1.7,1.7,0,0,0,2.025-1.48,6.507,6.507,0,0,0-.1-2.988,2.627,2.627,0,0,0-1.864-1.3A1.679,1.679,0,0,0,747.346,6242.625Z"/><path d="M691.473,6175.3a2.044,2.044,0,0,0,2.472-1.67c.258-.888.456-1.792.689-2.721h6.207c.229.914.428,1.777.663,2.629.387,1.4,1.355,2.061,2.523,1.762a2.031,2.031,0,0,0,1.388-2.64c-1.075-4.4-2.15-8.793-3.325-13.163a4.452,4.452,0,0,0-8.713.02c-1.172,4.371-2.248,8.768-3.32,13.165A2.015,2.015,0,0,0,691.473,6175.3Zm5.734-14.623c.063-.24.359-.42.547-.627.179.218.457.41.522.658.52,1.959,1,3.929,1.535,6.063h-4.139C696.193,6164.67,696.679,6162.666,697.207,6160.673Z"/></g></svg>