<svg xmlns="http://www.w3.org/2000/svg" width="84.587" height="92.146" viewBox="0 0 84.587 92.146"><g transform="translate(-6633.144 -11576.454)" style="isolation:isolate"><path d="M6717.719,11650.605l-.965-19.466a4.524,4.524,0,0,0-3.954-4.271c-7.579-.959-13.6,2.892-17.511,6.583v-16.06a7.6,7.6,0,0,0-7.6-7.59h-28.46c-.632-3.106-1.631-8.6-.912-11.066a10.874,10.874,0,0,0,4.637-2.635c2.17-1.982,4.078,2.584,8.305.835a5.1,5.1,0,0,0,3.112-3.99c.777-5.245-.039-9.321-2.359-11.788a13.655,13.655,0,0,0-12.933-4.454c-6.031,1.118-10.979,5.686-12.1,8.415a11.347,11.347,0,0,0-.121,6.428,1.861,1.861,0,0,1-.15,1.232,54.9,54.9,0,0,0-5.009,17.023h-.969a7.6,7.6,0,0,0-7.6,7.591v43.615a7.6,7.6,0,0,0,7.6,7.592h46.954a7.606,7.606,0,0,0,7.469-6.22c5.217-.39,9.966-.887,13.729-1.334A10.047,10.047,0,0,0,6717.719,11650.605Zm-68.421-56.551a4.745,4.745,0,0,0,.38-3.144,8.557,8.557,0,0,1-.023-4.7c1.287-3.151,12.052-11.81,20.264-3.078,2.142,2.278,2.057,6.365,1.608,9.395a2.242,2.242,0,0,1-3.235,1.677l-1.885-.957a4.8,4.8,0,0,0-5.39.731c-3.052,2.787-4.239,1.446-4.978,2.78-1.367,2.464-.932,6.994.26,13.046h-11.692A51.667,51.667,0,0,1,6649.3,11594.055Zm5.649,46.021c1.262,1.648.875,2.765.019,4.754-.23.534-.6,1.586-1.177,1.631a1.308,1.308,0,0,1-.975-.546c-3.748-6.157-4.164-25.979-4.148-33.234h3.258C6651.354,11619.593,6650.728,11634.563,6654.947,11640.075Zm32.747,25.644H6640.74a4.719,4.719,0,0,1-4.716-4.712v-43.615a4.72,4.72,0,0,1,4.716-4.712h.64c-1.774,18.781,3.566,34.741,5.379,42.337a6.881,6.881,0,0,0,3.822,4.207c10.667,4.634,30,4.105,41.554,3.366A4.722,4.722,0,0,1,6687.694,11665.719Zm4.716-14.566h-24.421a1.44,1.44,0,0,0-1.44,1.409,2.332,2.332,0,1,1-3.89-1.782,1.442,1.442,0,0,0,0-2.145,2.332,2.332,0,1,1,3.89-1.783,1.44,1.44,0,0,0,1.44,1.411h24.421Zm0-14.625a1.945,1.945,0,0,1-2.976-.1,15.372,15.372,0,0,0-6.594-5.113,1.44,1.44,0,0,0-1.042,2.685,12.524,12.524,0,0,1,5.354,4.186,4.805,4.805,0,0,0,5.258,1.645v5.554H6669.2a8.285,8.285,0,1,0,0,8.649h23.209v5.644c-10.852.706-27.1,1.125-37.473-1.944-3.024-.895-4.772-1.538-5.437-3.6-3.985-12.312-6.53-28.136-5.227-41.452h1.514c-.017,7.914.4,27.881,4.568,34.73a4.093,4.093,0,0,0,3.654,1.92c.849-.065,2.415-.521,3.377-2.834,1.01-2.433,2.286-4.988-.152-8.172-3.6-4.709-2.916-19.733-2.419-25.645h2.081c1.715,7.953,4.172,17.189,4.255,23.028a2.792,2.792,0,0,0,4.65,2.048,18.239,18.239,0,0,1,5.819-3.542,1.44,1.44,0,1,0-1-2.7,21.044,21.044,0,0,0-6.6,3.97c-.131-6.053-2.483-15.014-4.185-22.8h27.852a4.72,4.72,0,0,1,4.716,4.712Zm16.143,21.658c-3.352.4-8,.892-13.264,1.288v-21.881c6.507-7.445,12.889-8.407,17.15-7.869a1.65,1.65,0,0,1,1.438,1.56l.966,19.464A7.157,7.157,0,0,1,6708.553,11658.186Z"/><circle cx="1.44" cy="1.44" r="1.44" transform="translate(6675.191 11630.441)"/></g></svg>