<svg xmlns="http://www.w3.org/2000/svg" width="72.058" height="147.198" viewBox="0 0 72.058 147.198"><g transform="translate(-5617.824 -2446.893)" style="isolation:isolate"><path d="M5689.792,2583.091l-5.521-39.8c-.556-13.066-6.889-31.483-14.5-42.638l5.768-18.7a9.6,9.6,0,0,0-1.022-7.946l-13.849-22.508a9.6,9.6,0,0,0-8.243-4.608h0a9.682,9.682,0,0,0-8.247,14.744l11.647,18.916c-1.1,3.968-2.686,8.281-3.728,9.491a45.62,45.62,0,0,1-3.948,3.239c-3.446,2.654-5.808,4.535-7.179,6.422-1.665,2.274-13.045,19.019-13.528,19.73l-.059.086-.055.088a9.626,9.626,0,0,0,1.918,12.43l14.731,12.7a9.671,9.671,0,0,0,11.51.832q.017.59.085,1.189l-17.76,33.069a9.682,9.682,0,0,0,17.056,9.166l12.88-24,2.874,20.736a9.707,9.707,0,0,0,9.58,8.358,8.6,8.6,0,0,0,1.431-.111A9.692,9.692,0,0,0,5689.792,2583.091Zm-8.94,6.012a3.565,3.565,0,0,1-.653.051,4.737,4.737,0,0,1-4.689-4.1l-4.226-30.487a8.574,8.574,0,0,1-3.475-.13l-17.287,32.211a4.758,4.758,0,0,1-4.185,2.505,4.747,4.747,0,0,1-4.177-6.987l18.573-34.586a9.45,9.45,0,0,1-.316-2.374c0-4.988-1.731-12.38-4.621-19.772-2.949-7.511-5.829-11.825-7.015-13.071l-7.065,11.389,11.676,10.065A4.743,4.743,0,0,1,5647.2,2541l-14.736-12.707a4.737,4.737,0,0,1-.94-6.085s11.795-17.358,13.439-19.6c1.9-2.615,9.006-7.167,10.876-9.343,2.819-3.275,5.294-13.507,5.294-13.507l-12.747-20.7a4.741,4.741,0,0,1,8.076-4.968l13.864,22.534a4.7,4.7,0,0,1,.494,3.878l-6.493,21.049c7.491,9.786,14.529,28.834,15.023,42.184l5.553,40.028A4.744,4.744,0,0,1,5680.852,2589.1Zm-30.834-64.712-1.881-1.622.645-1.041Q5649.374,2522.932,5650.018,2524.391Z"/><path d="M5649.727,2481.73a15.951,15.951,0,1,0-15.948,15.956A15.965,15.965,0,0,0,5649.727,2481.73Zm-26.966,0a11.014,11.014,0,1,1,11.018,11.019A11.025,11.025,0,0,1,5622.761,2481.73Z"/></g></svg>