<svg xmlns="http://www.w3.org/2000/svg" width="112.344" height="112.351" viewBox="0 0 112.344 112.351"><g transform="translate(-903.828 -1898.895)" style="isolation:isolate"><path d="M941.747,1997.186a2.2,2.2,0,1,0-1.552-.643,2.21,2.21,0,0,0,1.552.643Zm0,0"/><path d="M1013.978,2006.857h-10.556l-4.012-7.17v-19.558a10.419,10.419,0,0,0-7.366-10l-16.834-5.226v-17.823a8.233,8.233,0,0,0-1.347-4.525,12.176,12.176,0,0,0-2.874-23.643v-9.033A11,11,0,0,0,960,1898.9a2.194,2.194,0,0,0-2.194,2.194V1918.6l-.03,0a7.142,7.142,0,0,0-7.27,7.012,7.149,7.149,0,0,0,7.012,7.271l.127,0a29.4,29.4,0,0,1-3.137,10.4,8.279,8.279,0,0,0-.924,3.794v18.872l-5.285,9.526-28.321,17.8a9.148,9.148,0,0,0-4.3,7.787v5.786h-9.656a2.194,2.194,0,0,0,0,4.389h107.956a2.194,2.194,0,0,0,0-4.389Zm-36.284-75.815a7.8,7.8,0,0,1-6.7,7.714v-15.429a7.8,7.8,0,0,1,6.7,7.715Zm-15.5-27.383a6.608,6.608,0,0,1,4.4,6.222v31.429a2.2,2.2,0,0,0,1.531,2.091,3.848,3.848,0,0,1,2.691,3.681v17.247H957.977v-17.247a3.819,3.819,0,0,1,.43-1.774,33.577,33.577,0,0,0,3.791-15.382Zm-6.531,24a2.754,2.754,0,0,1,1.981-4.666h.092c.024,0,.046,0,.069,0v5.514l-.209,0a2.744,2.744,0,0,1-1.933-.842Zm-18.644,69.658a2.193,2.193,0,0,0-2.937-1l-9.723,4.775a2.263,2.263,0,0,0-.407.26l-3.889,3.126v-3.4a4.781,4.781,0,0,1,2.25-4.071l28.8-18.106a2.191,2.191,0,0,0,.751-.791l5.21-9.385h11.843l-6.339,9.514a27.093,27.093,0,0,1-10.592,9.285l-4.544,2.232a2.195,2.195,0,0,0,1.936,3.939l4.542-2.231a31.479,31.479,0,0,0,12.309-10.793l1.723-2.586,17.945,6.61v20.284a6.281,6.281,0,0,0,.288,1.885H924.1l2.413-1.939,9.5-4.668a2.2,2.2,0,0,0,1-2.937Zm55.146,9.544a1.885,1.885,0,0,1-1.883-1.885v-21.814a2.2,2.2,0,0,0-1.436-2.059l-18.395-6.776,2.388-3.584,1.089-1.635,16.812,5.217a6.053,6.053,0,0,1,4.278,5.808v20.131a2.21,2.21,0,0,0,.278,1.072l3.092,5.525Zm0,0"/></g></svg>